<svg width="39" height="39" viewBox="0 0 39 39" fill="none" xmlns="http://www.w3.org/2000/svg">
<path fill-rule="evenodd" clip-rule="evenodd" d="M19.0947 38.9682L19.0767 39C6.2376 33.2059 -1.38808 19.7813 0.210453 5.78631C11.618 -1.92877 26.5713 -1.92877 37.9789 5.78631C39.5774 19.7812 31.9517 33.2059 19.1127 39L19.0947 38.9682H19.0947Z" fill="url(#paint0_linear_2434_6663)"/>
<path fill-rule="evenodd" clip-rule="evenodd" d="M19.0942 0C25.6845 0 32.2747 1.92875 37.9785 5.78629C39.5742 19.7561 31.9783 33.1572 19.1809 38.9682H19.0942V0Z" fill="url(#paint1_linear_2434_6663)"/>
<path fill-rule="evenodd" clip-rule="evenodd" d="M23.3113 13.8552C23.5141 13.2833 23.4246 13.5474 23.6091 12.9177C24.6178 9.47301 24.9811 12.667 25.3158 13.9208C25.9575 16.3229 27.4254 16.4925 28.9559 17.1201C25.7721 17.9507 26.1014 18.4227 25.2891 21.4648C24.9541 22.7186 24.651 24.8794 23.6418 21.4347C23.4416 20.7509 23.4827 20.841 23.2588 20.2416C22.5831 18.4347 22.0125 18.9783 21.5342 20.4705C20.9988 22.1393 20.4634 24.913 20.0681 26.7635C19.7656 28.1814 19.4191 28.7467 19.0946 28.7188C18.77 28.7467 18.4237 28.1814 18.121 26.7635C17.71 24.8399 17.1476 21.9192 16.5915 20.2782C16.0928 18.8058 15.534 18.6455 14.9421 20.2099C14.7133 20.8144 14.6436 21.9446 14.5036 22.6555C13.7612 26.4261 12.6668 25.1063 12.4011 22.975C12.1179 20.7035 12.13 17.5426 9.23315 17.1201C11.927 17.0168 11.8074 14.1447 12.3189 12.0282C13.6856 6.37285 14.465 11.7981 14.7877 13.5908C15.2202 15.9949 16.1695 15.4216 16.7592 13.4311C17.2592 11.7445 17.7514 9.20694 18.121 7.47683C18.4236 6.05889 18.77 5.49358 19.0946 5.52149C19.4191 5.49358 19.7745 6.05705 20.0681 7.47683C20.4321 9.23485 20.8876 11.803 21.4357 13.5224C21.9556 15.1535 22.5532 15.9917 23.3114 13.8552H23.3113Z" fill="white"/>
<defs>
<linearGradient id="paint0_linear_2434_6663" x1="31.4621" y1="4.63733" x2="6.7273" y2="34.3627" gradientUnits="userSpaceOnUse">
<stop stop-color="#54ABF2"/>
<stop offset="1" stop-color="#3633E8"/>
</linearGradient>
<linearGradient id="paint1_linear_2434_6663" x1="31.4616" y1="4.6373" x2="6.72684" y2="34.3627" gradientUnits="userSpaceOnUse">
<stop stop-color="#65B3F3"/>
<stop offset="1" stop-color="#4A47EA"/>
</linearGradient>
</defs>
</svg>
