<svg width="57" height="60" viewBox="0 0 57 60" fill="none" xmlns="http://www.w3.org/2000/svg">
<path fill-rule="evenodd" clip-rule="evenodd" d="M28.5 59.0575L28.473 59.1049C9.30998 50.4569 -2.0718 30.4199 0.314113 9.53152C17.3406 -1.98369 39.6593 -1.98369 56.6857 9.53152C59.0716 30.4198 47.6899 50.4568 28.5268 59.1049L28.4999 59.0575H28.5Z" fill="url(#paint0_linear_266_2872)"/>
<path fill-rule="evenodd" clip-rule="evenodd" d="M28.4999 0.895508C38.3362 0.895508 48.1724 3.77428 56.6857 9.53188C59.0675 30.3827 47.7301 50.3845 28.6292 59.0578H28.4999V0.895508Z" fill="url(#paint1_linear_266_2872)"/>
<path d="M47.0446 27.2891C47.0446 31.3312 44.3862 34.1716 40.5627 34.1716C36.7573 34.1716 34.1354 31.3494 34.1354 27.2891C34.1354 23.247 36.7755 20.4066 40.5809 20.4066C44.3862 20.4066 47.0446 23.2288 47.0446 27.2891ZM44.5865 27.2891C44.5865 24.4487 43.0207 22.6462 40.5809 22.6462C38.141 22.6462 36.5752 24.4487 36.5752 27.2891C36.5752 30.1295 38.141 31.932 40.5809 31.932C43.0207 31.932 44.5865 30.0931 44.5865 27.2891Z" fill="white"/>
<path d="M25.7513 33.9531H23.4208V20.6433H28.5007C31.5231 20.6433 33.2893 22.1728 33.2893 24.7947C33.2893 26.579 32.4517 27.8535 30.8859 28.4908L33.4167 33.9531H30.8677L28.6099 28.9824H25.7513V33.9531ZM25.7513 22.719V26.925H28.5007C29.9755 26.925 30.8495 26.142 30.8495 24.7947C30.8495 23.4655 29.9755 22.719 28.5007 22.719H25.7513Z" fill="white"/>
<path d="M17.7368 29.3648H14.8054V33.9531H12.4749V20.6433H17.7368C20.4134 20.6433 22.1431 22.3913 22.1431 24.995C22.1431 27.5622 20.3952 29.3648 17.7368 29.3648ZM17.2817 22.719H14.8054V27.2891H17.2452C18.8475 27.2891 19.7033 26.4334 19.7033 24.9767C19.7033 23.5201 18.8293 22.719 17.2817 22.719Z" fill="white"/>
<defs>
<linearGradient id="paint0_linear_266_2872" x1="46.959" y1="7.8166" x2="10.0409" y2="52.1835" gradientUnits="userSpaceOnUse">
<stop stop-color="#54ABF2"/>
<stop offset="1" stop-color="#3633E8"/>
</linearGradient>
<linearGradient id="paint1_linear_266_2872" x1="46.959" y1="7.81696" x2="10.0408" y2="52.1838" gradientUnits="userSpaceOnUse">
<stop stop-color="#65B3F3"/>
<stop offset="1" stop-color="#4A47EA"/>
</linearGradient>
</defs>
</svg>
