<svg width="20" height="21" viewBox="0 0 20 21" fill="none" xmlns="http://www.w3.org/2000/svg">
<path opacity="0.964" fill-rule="evenodd" clip-rule="evenodd" d="M9.47851 0.500701C13.5396 0.460407 16.6212 2.156 18.7232 5.58748C20.4818 8.99593 20.4238 12.3726 18.5491 15.7176C16.5481 18.7911 13.6986 20.3853 10.0006 20.5C6.1631 20.3625 3.25559 18.6669 1.27798 15.4132C-0.482149 12.0047 -0.42414 8.62802 1.45199 5.28314C3.33612 2.3809 6.01162 0.786752 9.47851 0.500701ZM9.52202 1.93543C13.0379 1.91137 15.6989 3.38957 17.505 6.37006C18.9977 9.31783 18.9107 12.2163 17.244 15.0654C15.5249 17.6261 13.1104 18.9594 10.0006 19.0653C6.68724 18.9307 4.18575 17.4525 2.49609 14.6306C1.02764 11.744 1.08564 8.88902 2.67011 6.06572C4.27159 3.57292 6.55556 2.19616 9.52202 1.93543Z" fill="#BCBCBC"/>
<path opacity="0.946" fill-rule="evenodd" clip-rule="evenodd" d="M9.68997 6.00046C10.6663 5.98333 11.0361 6.44709 10.7993 7.39171C10.4256 7.90083 9.95435 8.00952 9.38544 7.71779C8.94822 7.31659 8.88297 6.86008 9.18967 6.34827C9.34115 6.2031 9.50791 6.08715 9.68997 6.00046Z" fill="#BCBCBC"/>
<path opacity="0.988" fill-rule="evenodd" clip-rule="evenodd" d="M9.82624 8.8482C10.2286 8.79933 10.5112 8.95872 10.674 9.32644C10.703 11.3554 10.703 13.3843 10.674 15.4132C10.3866 15.8766 10.0026 15.9707 9.5219 15.6958C9.45134 15.6054 9.38612 15.5112 9.32625 15.4132C9.29725 13.3843 9.29725 11.3554 9.32625 9.32644C9.43221 9.09715 9.5989 8.93776 9.82624 8.8482Z" fill="#BCBCBC"/>
</svg>
