<svg width="196" height="203" viewBox="0 0 196 203" fill="none" xmlns="http://www.w3.org/2000/svg">
<path d="M98.3406 70.4992C101.039 70.4992 103.224 68.2453 103.224 65.4656C103.224 62.6859 101.039 60.4319 98.3406 60.4319C76.7672 60.4319 59.2781 78.4606 59.2781 100.701C59.2781 122.94 76.7672 140.969 98.3406 140.969C119.916 140.969 137.405 122.94 137.405 100.701C137.405 97.9201 135.218 95.6676 132.522 95.6676C129.825 95.6676 127.639 97.9201 127.639 100.701C127.639 117.381 114.523 130.903 98.3406 130.903C82.1601 130.903 69.0426 117.381 69.0426 100.701C69.0426 84.02 82.1601 70.4992 98.3406 70.4992Z" fill="#BB6A37"/>
<path d="M191.508 70.8031C190.66 68.1621 187.896 66.7299 185.333 67.604C182.829 68.4581 181.435 71.2054 182.182 73.8125C196.784 121.749 170.926 172.812 124.425 187.865C77.9246 202.918 28.3902 176.262 13.7875 128.326C-0.816625 80.3894 25.0431 29.3265 71.543 14.2732C88.7569 8.70149 107.212 8.70149 124.425 14.2732C127.009 15.0765 129.735 13.5687 130.514 10.9046C131.282 8.2806 129.874 5.50707 127.345 4.65913C75.7112 -12.0407 20.7194 17.5709 4.51953 70.8C-11.6804 124.027 17.0463 180.716 68.6805 197.416C120.316 214.116 175.307 184.504 191.506 131.275C197.498 111.59 197.498 90.4876 191.508 70.8031Z" fill="#BB6A37"/>
<path d="M107.64 35.9619C107.665 33.0959 105.53 30.7001 102.757 30.4858C101.299 30.3578 99.8391 30.2299 98.342 30.2299C60.5866 30.2299 29.98 61.7809 29.98 100.701C29.98 139.62 60.5866 171.171 98.342 171.171C136.096 171.171 166.703 139.62 166.703 100.701C166.703 98.8806 166.595 97.0614 166.378 95.2545C165.988 92.4918 163.499 90.5785 160.819 90.9809C158.139 91.3817 156.283 93.9487 156.672 96.7114C156.687 96.8163 156.705 96.9196 156.726 97.0244C156.832 98.2439 156.937 99.4526 156.937 100.698C156.938 134.059 130.704 161.102 98.3435 161.106C65.9811 161.107 39.7475 134.062 39.746 100.703C39.7445 67.3434 65.9766 40.2988 98.339 40.2972H98.3405C99.5519 40.2972 100.726 40.4051 101.906 40.5131L102.821 40.5917C105.373 40.7042 107.529 38.663 107.637 36.0328C107.638 36.0082 107.638 35.9851 107.64 35.9619Z" fill="#BB6A37"/>
<path d="M127.639 45.3309V63.3812L94.8889 97.1415C92.9491 99.0733 92.8953 102.26 94.7692 104.26C96.6432 106.259 99.7345 106.315 101.674 104.383C101.715 104.343 101.755 104.301 101.794 104.26L134.544 70.4993H152.054C153.349 70.4993 154.59 69.9689 155.507 69.0239L184.803 38.8218C186.71 36.8561 186.71 33.6694 184.803 31.7037C183.888 30.7602 182.647 30.2299 181.352 30.2299H166.703V15.1288C166.703 12.3491 164.516 10.0951 161.818 10.0967C160.525 10.0967 159.283 10.627 158.368 11.5706L129.07 41.7726C128.153 42.7161 127.639 43.9958 127.639 45.3309ZM137.405 47.4153L156.937 27.2806V35.2635C156.937 38.0432 159.123 40.2972 161.82 40.2972H169.564L150.032 60.4319H137.405V47.4153Z" fill="#BB6A37"/>
</svg>
