<svg width="70" height="70" viewBox="0 0 70 70" fill="none" xmlns="http://www.w3.org/2000/svg">
<rect x="0.5" y="0.5" width="69" height="69" rx="23.5" fill="#BB6A37" stroke="#E6E9EC"/>
<path d="M40.5349 55.764V45.6181L50.0696 40.3618V50.3855L40.5349 55.764Z" fill="white"/>
<path fill-rule="evenodd" clip-rule="evenodd" d="M19.8768 23.4926L35.279 14.6914L50.07 23.4926V37.0612L40.2908 42.562H29.4115V55.7639L19.8768 50.3853V23.4926ZM29.4118 29.1161L35.0348 25.8157L40.5356 29.1161V37.3062H29.4118V29.1161Z" fill="white"/>
<g opacity="0.2">
<path fill-rule="evenodd" clip-rule="evenodd" d="M44.0422 0.0561523C48.6962 0.178627 51.7903 0.528572 54.447 1.52847C60.9153 3.96299 66.0202 9.06785 68.4547 15.5362C69.5305 18.3946 69.854 21.7594 69.9512 27.0287C68.3028 27.4312 66.5803 27.6446 64.8079 27.6446C52.8758 27.6446 43.2029 17.9718 43.2029 6.03971C43.2029 3.96379 43.4957 1.95626 44.0422 0.0561523Z" fill="white"/>
<path fill-rule="evenodd" clip-rule="evenodd" d="M26.7833 69.9437C21.6562 69.8408 18.3525 69.5108 15.5393 68.452C9.07098 66.0175 3.96612 60.9126 1.5316 54.4442C0.47278 51.631 0.142772 48.3273 0.039917 43.2002H26.7833V69.9437Z" fill="white"/>
</g>
</svg>
