<svg width="262" height="138" viewBox="0 0 262 138" fill="none" xmlns="http://www.w3.org/2000/svg">
<rect x="43.0001" y="41.1958" width="176" height="51" rx="6" fill="#161616"/>
<g filter="url(#filter0_d_2434_6936)">
<path d="M214.445 92.3295H214.444H47.6087H47.6079C46.4641 92.3308 45.3605 91.8602 44.5416 91.0113C43.7219 90.1615 43.2557 89.0023 43.254 87.7872V45.5873C43.2557 44.3714 43.7218 43.2114 44.5416 42.3605C45.3604 41.5105 46.4642 41.0385 47.6087 41.0381C47.6088 41.0381 47.6089 41.0381 47.6089 41.0381H214.443C215.01 41.0381 215.572 41.1541 216.097 41.3803C216.623 41.6066 217.102 41.939 217.507 42.3601C217.913 42.7813 218.236 43.2828 218.456 43.8368C218.677 44.3908 218.791 44.9855 218.791 45.5867L218.792 87.7877C218.792 88.3884 218.678 88.9827 218.457 89.5362C218.236 90.0896 217.914 90.5906 217.508 91.0112C217.103 91.4317 216.624 91.7635 216.099 91.9892C215.573 92.2148 215.011 92.3302 214.445 92.3295Z" stroke="#989898" stroke-width="1.5" shape-rendering="crispEdges"/>
</g>
<path d="M81.3814 66.4043C81.3428 62.1198 84.8905 60.0354 85.0527 59.9384C83.0435 57.0099 79.9294 56.6097 78.835 56.5778C76.2195 56.3026 73.6825 58.1425 72.3501 58.1425C70.9912 58.1425 68.9395 56.6044 66.7282 56.6496C63.8826 56.6935 61.2206 58.3405 59.7606 60.8982C56.7475 66.1132 58.9947 73.7768 61.8814 77.9922C63.3255 80.058 65.0129 82.3617 67.2215 82.2806C69.3822 82.1929 70.1894 80.9048 72.7969 80.9048C75.3805 80.9048 76.1384 82.2806 78.3909 82.2288C80.7099 82.1929 82.1699 80.155 83.5634 78.0719C85.2322 75.707 85.9024 73.3754 85.9289 73.2557C85.8758 73.2371 81.4266 71.5382 81.3814 66.4043ZM77.1264 53.8048C78.2885 52.3518 79.0837 50.3751 78.863 48.3691C77.1809 48.4436 75.0773 49.5323 73.866 50.9534C72.7942 52.2056 71.8369 54.2581 72.0842 56.1883C73.9737 56.3292 75.9137 55.2352 77.1264 53.8048Z" fill="white"/>
<path d="M112.679 81.984H109.659L108.005 76.7876H102.255L100.679 81.984H97.7395L103.437 64.2931H106.956L112.679 81.984ZM107.506 74.6075L106.01 69.988C105.852 69.5161 105.554 68.4048 105.118 66.6554H105.065C104.889 67.4078 104.609 68.5191 104.224 69.988L102.754 74.6075H107.506ZM127.303 75.449C127.303 77.6184 126.714 79.3333 125.534 80.5922C124.478 81.7128 123.166 82.2725 121.601 82.2725C119.911 82.2725 118.695 81.6703 117.957 80.4632V87.1565H115.123V73.4204C115.123 72.0578 115.087 70.6607 115.018 69.2276H117.511L117.669 71.2496H117.722C118.668 69.7261 120.102 68.9644 122.028 68.9644C123.533 68.9644 124.789 69.5586 125.795 70.7484C126.799 71.9408 127.303 73.5068 127.303 75.449ZM124.414 75.5526C124.414 74.311 124.135 73.2874 123.574 72.4805C122.961 71.6417 122.138 71.2217 121.106 71.2217C120.407 71.2217 119.771 71.4556 119.203 71.9169C118.634 72.3822 118.262 72.9897 118.088 73.7421C118.01 74.0235 117.966 74.3131 117.956 74.6048V76.7331C117.956 77.6597 118.241 78.4426 118.81 79.0834C119.379 79.7215 120.118 80.0418 121.028 80.0418C122.095 80.0418 122.927 79.6284 123.521 78.8082C124.117 77.9853 124.414 76.9006 124.414 75.5526ZM141.978 75.449C141.978 77.6184 141.389 79.3333 140.21 80.5922C139.153 81.7128 137.842 82.2725 136.275 82.2725C134.585 82.2725 133.37 81.6703 132.632 80.4632V87.1565H129.797V73.4204C129.797 72.0578 129.761 70.6607 129.692 69.2276H132.185L132.343 71.2496H132.397C133.341 69.7261 134.775 68.9644 136.702 68.9644C138.206 68.9644 139.463 69.5586 140.471 70.7484C141.473 71.9408 141.978 73.5068 141.978 75.449ZM139.089 75.5526C139.089 74.311 138.808 73.2874 138.247 72.4805C137.634 71.6417 136.814 71.2217 135.782 71.2217C135.083 71.2217 134.447 71.4556 133.877 71.9169C133.307 72.3822 132.936 72.9897 132.762 73.7421C132.676 74.093 132.629 74.3788 132.629 74.6048V76.7331C132.629 77.6597 132.915 78.4426 133.482 79.0834C134.051 79.7201 134.79 80.0418 135.702 80.0418C136.771 80.0418 137.602 79.6284 138.195 78.8082C138.791 77.9853 139.089 76.9006 139.089 75.5526ZM158.387 77.0216C158.387 78.5277 157.86 79.752 156.814 80.6972C155.662 81.7288 154.055 82.2459 151.994 82.2459C150.09 82.2459 148.563 81.879 147.412 81.1439L148.067 78.7816C149.31 79.5181 150.676 79.885 152.163 79.885C153.232 79.885 154.063 79.643 154.656 79.1631C155.25 78.6819 155.551 78.0385 155.551 77.2356C155.551 76.5164 155.302 75.9142 154.814 75.4237C154.323 74.9345 153.512 74.4785 152.373 74.0598C149.274 72.9046 147.724 71.215 147.724 68.9924C147.724 67.5407 148.272 66.3523 149.365 65.4231C150.458 64.4952 151.907 64.0312 153.71 64.0312C155.321 64.0312 156.662 64.3117 157.727 64.8714L157.016 67.1818C156.013 66.6394 154.882 66.3682 153.616 66.3682C152.616 66.3682 151.831 66.6142 151.27 67.1034C150.798 67.5407 150.559 68.0738 150.559 68.7065C150.559 69.4044 150.831 69.984 151.374 70.4387C151.845 70.8574 152.704 71.3134 153.946 71.8026C155.469 72.4167 156.589 73.1319 157.306 73.9534C158.028 74.775 158.387 75.7999 158.387 77.0216ZM167.784 71.3546H164.659V77.548C164.659 79.1233 165.209 79.9089 166.313 79.9089C166.82 79.9089 167.24 79.8664 167.572 79.7773L167.651 81.9295C167.092 82.1382 166.357 82.2432 165.446 82.2432C164.327 82.2432 163.452 81.9016 162.82 81.2183C162.191 80.535 161.875 79.3905 161.875 77.7793V71.3493H160.013V69.2223H161.875V66.8867L164.659 66.0465V69.2223H167.784V71.3546ZM181.855 75.5008C181.855 77.4616 181.293 79.0714 180.174 80.3303C179.002 81.6264 177.444 82.2725 175.501 82.2725C173.626 82.2725 172.136 81.6517 171.024 80.4114C169.913 79.1685 169.357 77.6025 169.357 75.7135C169.357 73.7368 169.931 72.1176 171.076 70.8587C172.224 69.5985 173.769 68.9684 175.711 68.9684C177.584 68.9684 179.087 69.5906 180.226 70.8322C181.313 72.0365 181.855 73.5919 181.855 75.5008ZM178.916 75.5659C178.916 74.3974 178.663 73.3951 178.157 72.5563C177.562 71.5434 176.711 71.0369 175.609 71.0369C174.473 71.0369 173.602 71.5434 173.009 72.5563C172.501 73.3951 172.249 74.4147 172.249 75.6191C172.249 76.7889 172.501 77.7939 173.009 78.6301C173.622 79.643 174.477 80.1495 175.585 80.1495C176.669 80.1495 177.518 79.6324 178.133 78.6048C178.654 77.7461 178.916 76.7371 178.916 75.5659ZM191.073 71.7202C190.778 71.6669 190.479 71.6407 190.18 71.6417C189.182 71.6417 188.411 72.0166 187.869 72.7717C187.398 73.4363 187.161 74.2765 187.161 75.2908V81.984H184.326V73.2449C184.329 71.9058 184.301 70.5668 184.244 69.229H186.713L186.817 71.6696H186.895C187.196 70.8308 187.667 70.1542 188.313 69.6477C188.904 69.2051 189.623 68.9655 190.362 68.9644C190.624 68.9644 190.861 68.983 191.071 69.0163L191.073 71.7202ZM203.752 75.0023C203.759 75.4331 203.724 75.8637 203.648 76.2878H195.143C195.175 77.548 195.588 78.5131 196.377 79.1778C197.094 79.7706 198.021 80.0684 199.159 80.0684C200.418 80.0684 201.567 79.869 202.6 79.4662L203.045 81.4323C201.837 81.9587 200.412 82.2206 198.767 82.2206C196.788 82.2206 195.235 81.6384 194.105 80.4765C192.977 79.3134 192.412 77.75 192.412 75.7919C192.412 73.8697 192.938 72.2678 193.989 70.9903C195.09 69.6264 196.578 68.9445 198.45 68.9445C200.289 68.9445 201.682 69.6264 202.627 70.9903C203.376 72.0711 203.752 73.4111 203.752 75.0023ZM201.049 74.2672C201.069 73.4257 200.882 72.7012 200.498 72.0884C200.008 71.2988 199.252 70.9053 198.24 70.9053C197.314 70.9053 196.558 71.2894 195.984 72.0605C195.512 72.6733 195.231 73.4097 195.145 74.2645L201.049 74.2672Z" fill="white"/>
<path d="M101.437 58.0389C100.649 58.0389 99.9668 58.0003 99.399 57.9352V49.3822C100.193 49.2596 100.996 49.1991 101.799 49.2014C105.05 49.2014 106.547 50.8006 106.547 53.4075C106.547 56.4144 104.779 58.0389 101.437 58.0389ZM101.913 50.2981C101.475 50.2981 101.101 50.3247 100.791 50.3885V56.8903C100.959 56.9169 101.281 56.9289 101.733 56.9289C103.863 56.9289 105.076 55.7165 105.076 53.446C105.076 51.4214 103.979 50.2981 101.913 50.2981ZM111.213 58.104C109.381 58.104 108.194 56.7361 108.194 54.879C108.194 52.9435 109.406 51.5637 111.317 51.5637C113.123 51.5637 114.337 52.8664 114.337 54.7767C114.337 56.7361 113.086 58.104 111.213 58.104ZM111.267 52.5819C110.26 52.5819 109.615 53.5231 109.615 54.8392C109.615 56.13 110.273 57.0711 111.253 57.0711C112.233 57.0711 112.891 56.0648 112.891 54.8126C112.891 53.5364 112.247 52.5819 111.267 52.5819ZM124.786 51.6926L122.824 57.9618H121.546L120.734 55.2393C120.532 54.5734 120.364 53.8976 120.23 53.2147H120.203C120.101 53.898 119.907 54.5826 119.701 55.2393L118.836 57.9618H117.545L115.7 51.6926H117.132L117.842 54.673C118.009 55.3829 118.15 56.0528 118.267 56.6856H118.294C118.396 56.1579 118.564 55.4985 118.81 54.6863L119.701 51.6939H120.836L121.689 54.6225C121.895 55.3323 122.062 56.0289 122.193 56.6869H122.23C122.32 56.0422 122.463 55.3576 122.655 54.6225L123.417 51.6939L124.786 51.6926ZM132.006 57.9618H130.612V54.3619C130.612 53.2533 130.187 52.6976 129.348 52.6976C128.522 52.6976 127.954 53.4075 127.954 54.233V57.9618H126.561V53.4846C126.561 52.9302 126.547 52.336 126.509 51.6913H127.735L127.8 52.659H127.839C128.213 51.9891 128.974 51.5637 129.826 51.5637C131.143 51.5637 132.007 52.57 132.007 54.2077L132.006 57.9618ZM135.849 57.9618H134.454V48.8159H135.849V57.9618ZM140.929 58.104C139.098 58.104 137.91 56.7361 137.91 54.879C137.91 52.9435 139.122 51.5637 141.032 51.5637C142.839 51.5637 144.051 52.8664 144.051 54.7767C144.053 56.7361 142.8 58.104 140.929 58.104ZM140.981 52.5819C139.975 52.5819 139.33 53.5231 139.33 54.8392C139.33 56.13 139.989 57.0711 140.967 57.0711C141.948 57.0711 142.605 56.0648 142.605 54.8126C142.606 53.5364 141.963 52.5819 140.981 52.5819ZM149.546 57.9618L149.445 57.24H149.407C148.982 57.8209 148.361 58.104 147.574 58.104C146.45 58.104 145.652 57.3171 145.652 56.2589C145.652 54.7115 146.994 53.9113 149.317 53.9113V53.7956C149.317 52.9701 148.88 52.5567 148.015 52.5567C147.397 52.5567 146.854 52.7122 146.377 53.022L146.094 52.106C146.674 51.7445 147.397 51.5637 148.247 51.5637C149.885 51.5637 150.712 52.4277 150.712 54.1572V56.4663C150.712 57.099 150.74 57.5896 150.802 57.9631L149.546 57.9618ZM149.354 54.8392C147.807 54.8392 147.03 55.214 147.03 56.1034C147.03 56.7614 147.43 57.0831 147.986 57.0831C148.695 57.0831 149.354 56.542 149.354 55.8069V54.8392ZM157.479 57.9618L157.414 56.9555H157.375C156.975 57.7159 156.302 58.104 155.362 58.104C153.85 58.104 152.73 56.7747 152.73 54.9043C152.73 52.9435 153.891 51.5623 155.476 51.5623C156.315 51.5623 156.91 51.8455 157.245 52.4144H157.273V48.8159H158.667V56.2722C158.667 56.8784 158.682 57.446 158.719 57.9618H157.479ZM157.273 54.2729C157.273 53.3955 156.692 52.6471 155.805 52.6471C154.771 52.6471 154.14 53.563 154.14 54.8525C154.14 56.1167 154.795 56.9821 155.777 56.9821C156.653 56.9821 157.273 56.2203 157.273 55.3177V54.2729ZM167.511 58.104C165.68 58.104 164.493 56.7361 164.493 54.879C164.493 52.9435 165.706 51.5637 167.615 51.5637C169.422 51.5637 170.635 52.8664 170.635 54.7767C170.636 56.7361 169.385 58.104 167.511 58.104ZM167.563 52.5819C166.558 52.5819 165.913 53.5231 165.913 54.8392C165.913 56.13 166.571 57.0711 167.55 57.0711C168.531 57.0711 169.188 56.0648 169.188 54.8126C169.191 53.5364 168.546 52.5819 167.563 52.5819ZM178.129 57.9618H176.734V54.3619C176.734 53.2533 176.308 52.6976 175.469 52.6976C174.644 52.6976 174.077 53.4075 174.077 54.233V57.9618H172.682V53.4846C172.682 52.9302 172.669 52.336 172.631 51.6913H173.857L173.922 52.659H173.96C174.334 51.9891 175.096 51.5623 175.947 51.5623C177.263 51.5623 178.129 52.5686 178.129 54.2064V57.9618ZM187.505 52.7375H185.971V55.7817C185.971 56.5567 186.24 56.9435 186.782 56.9435C187.028 56.9435 187.235 56.9169 187.401 56.8784L187.439 57.9365C187.169 58.0402 186.808 58.0921 186.358 58.0921C185.26 58.0921 184.603 57.4859 184.603 55.8986V52.7375H183.688V51.6926H184.603V50.5441L185.971 50.1306V51.6913H187.505V52.7375ZM194.882 57.9618H193.489V54.3885C193.489 53.2666 193.065 52.6989 192.225 52.6989C191.503 52.6989 190.83 53.1894 190.83 54.1825V57.9618H189.438V48.8159H190.83V52.5819H190.858C191.297 51.8987 191.932 51.5623 192.743 51.5623C194.071 51.5623 194.882 52.5939 194.882 54.233V57.9618ZM202.44 55.1622H198.258C198.284 56.3493 199.07 57.0193 200.234 57.0193C200.852 57.0193 201.421 56.9156 201.924 56.7228L202.14 57.6906C201.547 57.9485 200.849 58.0774 200.037 58.0774C198.076 58.0774 196.915 56.8385 196.915 54.9176C196.915 52.9954 198.103 51.5504 199.88 51.5504C201.482 51.5504 202.487 52.7375 202.487 54.5308C202.496 54.7424 202.48 54.9543 202.44 55.1622ZM201.162 54.1692C201.162 53.2014 200.674 52.5181 199.783 52.5181C198.982 52.5181 198.349 53.2147 198.259 54.1692H201.162Z" fill="white"/>
<defs>
<filter id="filter0_d_2434_6936" x="0.504028" y="0.288086" width="261.038" height="136.792" filterUnits="userSpaceOnUse" color-interpolation-filters="sRGB">
<feFlood flood-opacity="0" result="BackgroundImageFix"/>
<feColorMatrix in="SourceAlpha" type="matrix" values="0 0 0 0 0 0 0 0 0 0 0 0 0 0 0 0 0 0 127 0" result="hardAlpha"/>
<feOffset dy="2"/>
<feGaussianBlur stdDeviation="21"/>
<feComposite in2="hardAlpha" operator="out"/>
<feColorMatrix type="matrix" values="0 0 0 0 0.733333 0 0 0 0 0.415686 0 0 0 0 0.215686 0 0 0 0.08 0"/>
<feBlend mode="normal" in2="BackgroundImageFix" result="effect1_dropShadow_2434_6936"/>
<feBlend mode="normal" in="SourceGraphic" in2="effect1_dropShadow_2434_6936" result="shape"/>
</filter>
</defs>
</svg>
