<svg width="264" height="138" viewBox="0 0 264 138" fill="none" xmlns="http://www.w3.org/2000/svg">
<g filter="url(#filter0_d_2434_820)">
<rect x="42.542" y="40.1836" width="179" height="53" rx="6" fill="#181717"/>
<rect x="43.292" y="40.9336" width="177.5" height="51.5" rx="5.25" stroke="#989898" stroke-width="1.5"/>
</g>
<path d="M96.702 59.1836V55.4756C96.702 54.2636 96.678 53.3756 96.618 52.9556L99.138 59.1836H100.242L102.774 52.9316C102.714 53.5436 102.702 54.1316 102.702 55.7516V59.1836H103.854V50.5076H102.678L99.69 57.8036L96.702 50.5076H95.55V59.1836H96.702ZM107.098 59.3276C108.046 59.3276 108.85 58.9076 109.15 58.2356L109.27 59.1836H110.23V55.4996C110.23 53.9156 109.246 53.1476 107.794 53.1476C106.282 53.1476 105.274 53.9516 105.274 55.1756H106.258C106.258 54.4676 106.798 54.0476 107.746 54.0476C108.538 54.0476 109.126 54.3956 109.126 55.3796V55.5476L107.278 55.6916C105.898 55.7996 105.094 56.4716 105.094 57.5516C105.094 58.6196 105.838 59.3276 107.098 59.3276ZM107.422 58.4516C106.69 58.4516 106.234 58.1396 106.234 57.5156C106.234 56.9396 106.642 56.5556 107.638 56.4596L109.138 56.3396V56.6516C109.138 57.7556 108.49 58.4516 107.422 58.4516ZM112.62 59.1836V56.0756C112.62 54.9356 113.232 54.1796 114.288 54.1796C115.152 54.1796 115.704 54.6596 115.704 55.8476V59.1836H116.832V55.5956C116.832 54.0956 116.124 53.1476 114.576 53.1476C113.748 53.1476 113.004 53.5436 112.632 54.2156L112.512 53.3156H111.492V59.1836H112.62ZM119.811 59.3276C120.759 59.3276 121.563 58.9076 121.863 58.2356L121.983 59.1836H122.943V55.4996C122.943 53.9156 121.959 53.1476 120.507 53.1476C118.995 53.1476 117.987 53.9516 117.987 55.1756H118.971C118.971 54.4676 119.511 54.0476 120.459 54.0476C121.251 54.0476 121.839 54.3956 121.839 55.3796V55.5476L119.991 55.6916C118.611 55.7996 117.807 56.4716 117.807 57.5516C117.807 58.6196 118.551 59.3276 119.811 59.3276ZM120.135 58.4516C119.403 58.4516 118.947 58.1396 118.947 57.5156C118.947 56.9396 119.355 56.5556 120.351 56.4596L121.851 56.3396V56.6516C121.851 57.7556 121.203 58.4516 120.135 58.4516ZM123.833 56.0996C123.833 57.7436 124.889 59.0276 126.557 59.0276C127.481 59.0276 128.249 58.6196 128.633 57.9356V59.1116C128.633 60.2276 127.913 60.9476 126.809 60.9476C125.825 60.9476 125.177 60.4436 125.033 59.5796H123.905C124.121 61.0676 125.213 61.9676 126.809 61.9676C128.609 61.9676 129.749 60.7916 129.749 58.9436V53.3156H128.741L128.657 54.3116C128.285 53.5796 127.553 53.1476 126.605 53.1476C124.901 53.1476 123.833 54.4436 123.833 56.0996ZM124.961 56.0756C124.961 54.9956 125.633 54.1316 126.761 54.1316C127.913 54.1316 128.585 54.9476 128.585 56.0756C128.585 57.2276 127.889 58.0436 126.749 58.0436C125.645 58.0436 124.961 57.1796 124.961 56.0756ZM133.609 59.3276C135.061 59.3276 136.045 58.6196 136.333 57.3596H135.277C135.085 58.0316 134.509 58.3916 133.633 58.3916C132.517 58.3916 131.869 57.7076 131.785 56.4716L136.321 56.4596V56.0396C136.321 54.2996 135.229 53.1476 133.561 53.1476C131.857 53.1476 130.693 54.4196 130.693 56.2556C130.693 58.0796 131.881 59.3276 133.609 59.3276ZM133.561 54.0956C134.557 54.0956 135.193 54.7436 135.193 55.7156H131.809C131.953 54.6836 132.577 54.0956 133.561 54.0956ZM139.878 56.2436C139.878 58.0556 141.174 59.3276 142.938 59.3276C144.69 59.3276 145.986 58.0556 145.986 56.2436C145.986 54.4316 144.69 53.1596 142.938 53.1596C141.174 53.1596 139.878 54.4316 139.878 56.2436ZM141.018 56.2436C141.018 55.0196 141.798 54.1676 142.938 54.1676C144.066 54.1676 144.858 55.0196 144.858 56.2436C144.858 57.4676 144.066 58.3196 142.938 58.3196C141.798 58.3196 141.018 57.4676 141.018 56.2436ZM148.063 59.1836V56.0756C148.063 54.9356 148.675 54.1796 149.731 54.1796C150.595 54.1796 151.147 54.6596 151.147 55.8476V59.1836H152.275V55.5956C152.275 54.0956 151.567 53.1476 150.019 53.1476C149.191 53.1476 148.447 53.5436 148.075 54.2156L147.955 53.3156H146.935V59.1836H148.063ZM158.174 59.1836V54.2636H159.326V53.3156H158.174V51.4796H157.046V53.3156H155.894V54.2636H157.046V59.1836H158.174ZM161.166 59.1716V55.9796C161.166 54.9716 161.754 54.1796 162.846 54.1796C163.686 54.1796 164.25 54.6596 164.25 55.8476V59.1836H165.378V55.5956C165.378 54.0956 164.658 53.1476 163.158 53.1476C162.246 53.1476 161.538 53.5796 161.166 54.2156V50.3516H160.038V59.1716H161.166ZM169.173 59.3276C170.625 59.3276 171.609 58.6196 171.897 57.3596H170.841C170.649 58.0316 170.073 58.3916 169.197 58.3916C168.081 58.3916 167.433 57.7076 167.349 56.4716L171.885 56.4596V56.0396C171.885 54.2996 170.793 53.1476 169.125 53.1476C167.421 53.1476 166.257 54.4196 166.257 56.2556C166.257 58.0796 167.445 59.3276 169.173 59.3276ZM169.125 54.0956C170.121 54.0956 170.757 54.7436 170.757 55.7156H167.373C167.517 54.6836 168.141 54.0956 169.125 54.0956Z" fill="white"/>
<path d="M101.11 81.1836C105.774 81.1836 108.986 77.9056 108.986 73.1756C108.986 68.3796 105.708 65.1016 100.956 65.1016H95.324V81.1836H101.11ZM100.692 67.6976C104.014 67.6976 106.016 69.7656 106.016 73.1756C106.016 76.5196 104.058 78.5876 100.846 78.5876H98.14V67.6976H100.692ZM114.147 81.4696C115.841 81.4696 117.315 80.6996 117.777 79.5776L117.975 81.1836H120.329V74.5836C120.329 71.5696 118.525 69.9856 115.599 69.9856C112.651 69.9856 110.715 71.5256 110.715 73.8796H113.003C113.003 72.7356 113.883 72.0756 115.467 72.0756C116.831 72.0756 117.711 72.6696 117.711 74.1436V74.3856L114.455 74.6276C111.881 74.8256 110.429 76.0796 110.429 78.0816C110.429 80.1276 111.837 81.4696 114.147 81.4696ZM115.027 79.4456C113.817 79.4456 113.157 78.9616 113.157 77.9716C113.157 77.0916 113.795 76.5416 115.467 76.3876L117.733 76.2116V76.7836C117.733 78.4556 116.677 79.4456 115.027 79.4456ZM121.83 77.8836C121.83 80.0176 123.546 81.4696 126.252 81.4696C128.936 81.4696 130.806 80.1056 130.806 77.9056C130.806 76.2336 129.882 75.3976 128.056 74.9796L126.098 74.5176C125.174 74.2976 124.69 73.9016 124.69 73.2856C124.69 72.4716 125.306 71.9876 126.362 71.9876C127.396 71.9876 128.012 72.5816 128.034 73.5056H130.586C130.564 71.3936 128.914 69.9856 126.472 69.9856C123.964 69.9856 122.16 71.2616 122.16 73.3956C122.16 75.1336 123.106 76.0576 125.064 76.4976L127.022 76.9596C127.99 77.1796 128.276 77.5756 128.276 78.1256C128.276 78.9176 127.594 79.4236 126.34 79.4236C125.108 79.4236 124.404 78.8296 124.382 77.8836H121.83ZM135.233 81.1836V75.2436C135.233 73.6156 136.223 72.4276 137.917 72.4276C139.281 72.4276 140.183 73.3076 140.183 75.1336V81.1836H142.867V74.4956C142.867 71.6796 141.459 69.9856 138.775 69.9856C137.213 69.9856 135.937 70.6676 135.255 71.7236V64.8156H132.549V81.1836H135.233ZM147.691 81.1836L147.867 79.4896C148.505 80.7436 149.891 81.4696 151.519 81.4696C154.643 81.4696 156.689 79.1596 156.689 75.8156C156.689 72.3836 154.797 69.9636 151.695 69.9636C150.045 69.9636 148.593 70.6896 147.889 71.8996V64.8156H145.205V81.1836H147.691ZM147.911 75.7056C147.911 73.7476 149.121 72.3836 150.969 72.3836C152.861 72.3836 153.983 73.7696 153.983 75.7056C153.983 77.6416 152.861 79.0056 150.969 79.0056C149.121 79.0056 147.911 77.6636 147.911 75.7056ZM157.888 75.7276C157.888 79.1156 160.33 81.4476 163.696 81.4476C167.062 81.4476 169.504 79.1156 169.504 75.7276C169.504 72.3396 167.062 70.0076 163.696 70.0076C160.33 70.0076 157.888 72.3396 157.888 75.7276ZM160.572 75.7276C160.572 73.7476 161.848 72.4056 163.696 72.4056C165.544 72.4056 166.82 73.7476 166.82 75.7276C166.82 77.7076 165.544 79.0496 163.696 79.0496C161.848 79.0496 160.572 77.7076 160.572 75.7276ZM174.565 81.4696C176.259 81.4696 177.733 80.6996 178.195 79.5776L178.393 81.1836H180.747V74.5836C180.747 71.5696 178.943 69.9856 176.017 69.9856C173.069 69.9856 171.133 71.5256 171.133 73.8796H173.421C173.421 72.7356 174.301 72.0756 175.885 72.0756C177.249 72.0756 178.129 72.6696 178.129 74.1436V74.3856L174.873 74.6276C172.299 74.8256 170.847 76.0796 170.847 78.0816C170.847 80.1276 172.255 81.4696 174.565 81.4696ZM175.445 79.4456C174.235 79.4456 173.575 78.9616 173.575 77.9716C173.575 77.0916 174.213 76.5416 175.885 76.3876L178.151 76.2116V76.7836C178.151 78.4556 177.095 79.4456 175.445 79.4456ZM189.904 70.2716C189.464 70.1616 189.09 70.1176 188.716 70.1176C187.264 70.1176 186.23 70.8436 185.768 71.9216L185.614 70.3376H183.084V81.1836H185.768V75.9036C185.768 73.7916 186.978 72.7576 188.914 72.7576H189.904V70.2716ZM195.521 81.4696C197.171 81.4696 198.579 80.7436 199.239 79.4896L199.415 81.1836H201.879V64.8156H199.217V71.7016C198.535 70.6236 197.193 69.9856 195.675 69.9856C192.397 69.9856 190.417 72.4056 190.417 75.7936C190.417 79.1596 192.375 81.4696 195.521 81.4696ZM196.115 79.0056C194.245 79.0056 193.101 77.6416 193.101 75.7056C193.101 73.7696 194.245 72.3836 196.115 72.3836C197.985 72.3836 199.195 73.7476 199.195 75.7056C199.195 77.6636 197.985 79.0056 196.115 79.0056Z" fill="white"/>
<path d="M75.3135 82.5281V74.2912L83.0542 70.0239V78.1616L75.3135 82.5281Z" fill="#BB6A37"/>
<path fill-rule="evenodd" clip-rule="evenodd" d="M58.542 56.3288L71.0462 49.1836L83.0541 56.3288V67.3444L75.115 71.8102H66.2827V82.5281L58.542 78.1615V56.3288ZM66.2828 60.894L70.8478 58.2146L75.3136 60.894V67.5431H66.2828V60.894Z" fill="#BB6A37"/>
<defs>
<filter id="filter0_d_2434_820" x="0.541992" y="0.183594" width="263" height="137" filterUnits="userSpaceOnUse" color-interpolation-filters="sRGB">
<feFlood flood-opacity="0" result="BackgroundImageFix"/>
<feColorMatrix in="SourceAlpha" type="matrix" values="0 0 0 0 0 0 0 0 0 0 0 0 0 0 0 0 0 0 127 0" result="hardAlpha"/>
<feOffset dy="2"/>
<feGaussianBlur stdDeviation="21"/>
<feComposite in2="hardAlpha" operator="out"/>
<feColorMatrix type="matrix" values="0 0 0 0 0.733333 0 0 0 0 0.415686 0 0 0 0 0.215686 0 0 0 0.08 0"/>
<feBlend mode="normal" in2="BackgroundImageFix" result="effect1_dropShadow_2434_820"/>
<feBlend mode="normal" in="SourceGraphic" in2="effect1_dropShadow_2434_820" result="shape"/>
</filter>
</defs>
</svg>
