<svg width="15" height="15" viewBox="0 0 15 15" fill="none" xmlns="http://www.w3.org/2000/svg">
<g opacity="0.87">
<path d="M2.49986 0C1.61744 0 0.9021 0.716656 0.9021 1.6007C0.9021 2.48474 1.61744 3.20141 2.49986 3.20141C3.38227 3.20141 4.09762 2.48474 4.09762 1.6007C4.09762 0.716656 3.38227 0 2.49986 0Z" fill="#BB6A37"/>
<path d="M0.996086 4.52002C0.944175 4.52002 0.9021 4.56217 0.9021 4.61418V14.4067C0.9021 14.4587 0.944175 14.5009 0.996086 14.5009H4.00363C4.05554 14.5009 4.09762 14.4587 4.09762 14.4067V4.61418C4.09762 4.56217 4.05554 4.52002 4.00363 4.52002H0.996086Z" fill="#BB6A37"/>
<path d="M5.88329 4.52002C5.83138 4.52002 5.78931 4.56217 5.78931 4.61418V14.4067C5.78931 14.4587 5.83138 14.5009 5.88329 14.5009H8.89084C8.94272 14.5009 8.98483 14.4587 8.98483 14.4067V9.13381C8.98483 8.75921 9.13333 8.39998 9.39776 8.13513C9.66213 7.8702 10.0207 7.72143 10.3946 7.72143C10.7685 7.72143 11.1271 7.8702 11.3915 8.13513C11.6559 8.39998 11.8044 8.75921 11.8044 9.13381V14.4067C11.8044 14.4587 11.8465 14.5009 11.8984 14.5009H14.9059C14.9578 14.5009 14.9999 14.4587 14.9999 14.4067V7.91366C14.9999 6.0857 13.413 4.6556 11.5975 4.82095C11.0376 4.87194 10.4841 5.01139 9.96717 5.23332L8.98483 5.6551V4.61418C8.98483 4.56217 8.94272 4.52002 8.89084 4.52002H5.88329Z" fill="#BB6A37"/>
</g>
</svg>
