<svg width="207" height="35" viewBox="0 0 207 35" fill="none" xmlns="http://www.w3.org/2000/svg">
<path fill-rule="evenodd" clip-rule="evenodd" d="M17.1363 34.9715L17.1201 35C5.59785 29.8002 -1.24572 17.7525 0.188868 5.19285C10.4264 -1.73095 23.8461 -1.73095 34.0837 5.19285C35.5182 17.7524 28.6747 29.8002 17.1524 35L17.1362 34.9715H17.1363Z" fill="url(#paint0_linear_260_1024)"/>
<path fill-rule="evenodd" clip-rule="evenodd" d="M17.1364 0C23.0507 0 28.9649 1.73093 34.0838 5.19283C35.5158 17.7299 28.699 29.7564 17.2141 34.9715H17.1364V0Z" fill="url(#paint1_linear_260_1024)"/>
<path fill-rule="evenodd" clip-rule="evenodd" d="M20.9207 12.4337C21.1026 11.9205 21.0223 12.1575 21.1879 11.5924C22.0932 8.50098 22.4192 11.3674 22.7196 12.4926C23.2955 14.6483 24.6128 14.8005 25.9863 15.3638C23.1291 16.1092 23.4246 16.5327 22.6956 19.2628C22.395 20.3881 22.123 22.3273 21.2172 19.2358C21.0375 18.6222 21.0745 18.703 20.8736 18.1651C20.2671 16.5435 19.755 17.0314 19.3258 18.3705C18.8454 19.8682 18.3649 22.3574 18.0101 24.0181C17.7386 25.2906 17.4277 25.7979 17.1364 25.7729C16.8451 25.7979 16.5343 25.2906 16.2627 24.0181C15.8938 22.2918 15.3891 19.6707 14.89 18.198C14.4425 16.8765 13.941 16.7327 13.4099 18.1366C13.2045 18.6791 13.1419 19.6934 13.0163 20.3314C12.3501 23.7153 11.3679 22.5309 11.1294 20.6182C10.8753 18.5796 10.8861 15.7429 8.28641 15.3638C10.7039 15.271 10.5966 12.6936 11.0556 10.7941C12.2822 5.71878 12.9816 10.5876 13.2713 12.1964C13.6594 14.3539 14.5113 13.8394 15.0406 12.0531C15.4893 10.5395 15.931 8.26219 16.2627 6.70953C16.5342 5.43702 16.8451 4.92969 17.1364 4.95474C17.4277 4.92969 17.7466 5.43537 18.0101 6.70953C18.3368 8.28724 18.7456 10.592 19.2375 12.135C19.704 13.5989 20.2403 14.3511 20.9207 12.4337H20.9207Z" fill="white"/>
<path d="M197.96 28.855C193.67 28.855 191 25.705 191 21.115C191 16.495 193.7 13.195 198.17 13.195C200.24 13.195 202.07 14.065 203 15.535V6.14502H206.63V28.465H203.27L203.03 26.155C202.13 27.865 200.21 28.855 197.96 28.855ZM198.77 25.495C201.32 25.495 202.97 23.665 202.97 20.995C202.97 18.325 201.32 16.465 198.77 16.465C196.22 16.465 194.66 18.355 194.66 20.995C194.66 23.635 196.22 25.495 198.77 25.495Z" fill="black"/>
<path d="M188.03 28.465H184.4V6.14502H188.03V28.465Z" fill="black"/>
<path d="M174.271 28.8551C169.861 28.8551 166.771 25.6451 166.771 21.0551C166.771 16.4051 169.801 13.1951 174.151 13.1951C178.591 13.1951 181.411 16.1651 181.411 20.7851V21.8951L170.251 21.9251C170.521 24.5351 171.901 25.8551 174.331 25.8551C176.341 25.8551 177.661 25.0751 178.081 23.6651H181.471C180.841 26.9051 178.141 28.8551 174.271 28.8551ZM174.181 16.1951C172.021 16.1951 170.701 17.3651 170.341 19.5851H177.781C177.781 17.5451 176.371 16.1951 174.181 16.1951Z" fill="black"/>
<path d="M162.03 10.6751C160.77 10.6751 159.78 9.68514 159.78 8.45514C159.78 7.22514 160.77 6.26514 162.03 6.26514C163.23 6.26514 164.22 7.22514 164.22 8.45514C164.22 9.68514 163.23 10.6751 162.03 10.6751ZM160.2 28.4651V13.6451H163.86V28.4651H160.2Z" fill="black"/>
<path d="M146.194 28.465H142.534V6.14502H146.224V15.565C147.154 14.125 148.894 13.195 151.024 13.195C154.684 13.195 156.604 15.505 156.604 19.345V28.465H152.944V20.215C152.944 17.725 151.714 16.525 149.854 16.525C147.544 16.525 146.194 18.145 146.194 20.365V28.465Z" fill="black"/>
<path d="M124.06 12.655C124.06 8.81502 127.24 6.14502 131.86 6.14502C136.3 6.14502 139.12 8.60502 139.24 12.565H135.4C135.31 10.675 133.96 9.56502 131.8 9.56502C129.43 9.56502 127.9 10.705 127.9 12.535C127.9 14.095 128.74 14.965 130.57 15.385L134.02 16.135C137.77 16.945 139.6 18.865 139.6 22.135C139.6 26.215 136.42 28.855 131.59 28.855C126.91 28.855 123.85 26.365 123.76 22.435H127.6C127.63 24.295 129.13 25.405 131.59 25.405C134.14 25.405 135.76 24.295 135.76 22.465C135.76 20.995 135.01 20.125 133.21 19.735L129.73 18.955C126.01 18.145 124.06 16.015 124.06 12.655Z" fill="black"/>
<path d="M106.039 21.0251C106.039 16.4051 109.369 13.2251 113.959 13.2251C118.549 13.2251 121.879 16.4051 121.879 21.0251C121.879 25.6451 118.549 28.8251 113.959 28.8251C109.369 28.8251 106.039 25.6451 106.039 21.0251ZM109.699 21.0251C109.699 23.7251 111.439 25.5551 113.959 25.5551C116.479 25.5551 118.219 23.7251 118.219 21.0251C118.219 18.3251 116.479 16.4951 113.959 16.4951C111.439 16.4951 109.699 18.3251 109.699 21.0251Z" fill="black"/>
<path d="M101.297 10.6751C100.037 10.6751 99.0473 9.68514 99.0473 8.45514C99.0473 7.22514 100.037 6.26514 101.297 6.26514C102.497 6.26514 103.487 7.22514 103.487 8.45514C103.487 9.68514 102.497 10.6751 101.297 10.6751ZM99.4673 28.4651V13.6451H103.127V28.4651H99.4673Z" fill="black"/>
<path d="M86.9831 28.855C82.6931 28.855 80.0231 25.705 80.0231 21.115C80.0231 16.495 82.7231 13.195 87.1931 13.195C89.2631 13.195 91.0931 14.065 92.0231 15.535V6.14502H95.6531V28.465H92.2931L92.0531 26.155C91.1531 27.865 89.2331 28.855 86.9831 28.855ZM87.7931 25.495C90.3431 25.495 91.9931 23.665 91.9931 20.995C91.9931 18.325 90.3431 16.465 87.7931 16.465C85.2431 16.465 83.6831 18.355 83.6831 20.995C83.6831 23.635 85.2431 25.495 87.7931 25.495Z" fill="black"/>
<path d="M73.7458 13.645H77.4058V28.465H74.0158L73.7458 26.485C72.8458 27.895 70.9258 28.855 68.9458 28.855C65.5258 28.855 63.5158 26.545 63.5158 22.915V13.645H67.1758V21.625C67.1758 24.445 68.2858 25.585 70.3258 25.585C72.6358 25.585 73.7458 24.235 73.7458 21.415V13.645Z" fill="black"/>
<path d="M46.2626 28.4649H42.2726L50.1926 6.53491H54.1226L62.0426 28.4649H57.9926L56.2226 23.3949H48.0326L46.2626 28.4649ZM51.6626 13.0749L49.1726 20.1549H55.1126L52.5926 13.0749C52.4126 12.5049 52.2026 11.8449 52.1426 11.3949C52.0526 11.8149 51.8726 12.4749 51.6626 13.0749Z" fill="black"/>
<defs>
<linearGradient id="paint0_linear_260_1024" x1="28.2352" y1="4.16171" x2="6.03732" y2="30.8383" gradientUnits="userSpaceOnUse">
<stop stop-color="#54ABF2"/>
<stop offset="1" stop-color="#3633E8"/>
</linearGradient>
<linearGradient id="paint1_linear_260_1024" x1="28.2353" y1="4.16169" x2="6.03739" y2="30.8383" gradientUnits="userSpaceOnUse">
<stop stop-color="#65B3F3"/>
<stop offset="1" stop-color="#4A47EA"/>
</linearGradient>
</defs>
</svg>
