<svg width="179" height="53" viewBox="0 0 179 53" fill="none" xmlns="http://www.w3.org/2000/svg">
<rect x="0.5" y="0.5" width="177.5" height="51.98" rx="6.5" fill="#090909" stroke="#A6A6A6"/>
<path d="M62.6995 13.5678C62.6995 14.6774 62.3714 15.561 61.7144 16.2201C60.968 17.0039 59.9954 17.3961 58.7997 17.3961C57.6546 17.3961 56.681 16.9988 55.8804 16.203C55.0784 15.4079 54.6781 14.4219 54.6781 13.2454C54.6781 12.0685 55.0784 11.083 55.8804 10.2872C56.681 9.49214 57.6546 9.09424 58.7997 9.09424C59.3679 9.09424 59.9118 9.20554 60.4283 9.4275C60.9448 9.64999 61.359 9.94533 61.669 10.3152L60.9716 11.0141C60.4464 10.3856 59.7233 10.0715 58.7997 10.0715C57.9646 10.0715 57.2425 10.3654 56.633 10.9536C56.0235 11.5424 55.7188 12.3059 55.7188 13.2454C55.7188 14.185 56.0235 14.9485 56.633 15.5373C57.2425 16.1255 57.9645 16.4193 58.7997 16.4193C59.6856 16.4193 60.4242 16.1239 61.0155 15.5321C61.3994 15.1466 61.6214 14.6107 61.6808 13.9226H58.7996V12.9681H62.6441C62.6812 13.1757 62.6993 13.3748 62.6993 13.5678" fill="white"/>
<path d="M62.6989 13.5678H62.5666C62.5655 14.6521 62.2493 15.4943 61.6202 16.1265L61.6188 16.1276L61.6182 16.1286C60.8956 16.8854 59.9668 17.262 58.799 17.2636C57.6845 17.262 56.7517 16.8813 55.9727 16.1094C55.1955 15.336 54.8111 14.3918 54.8097 13.2454C54.8111 12.0985 55.1955 11.1549 55.9727 10.382C56.7517 9.60956 57.6845 9.22827 58.799 9.22666C59.3502 9.22666 59.875 9.3344 60.3754 9.54903C60.8764 9.76533 61.2722 10.0488 61.5671 10.4007L61.6683 10.3152L61.5748 10.2216L60.8775 10.9209L60.9709 11.0141L61.0728 10.9293C60.5231 10.2697 59.7516 9.93711 58.7991 9.93907C57.933 9.938 57.1711 10.248 56.5409 10.8585C55.9046 11.471 55.5849 12.2775 55.586 13.2454C55.5849 14.2134 55.9046 15.0199 56.5409 15.6324C57.1711 16.2429 57.933 16.5528 58.799 16.5518C59.7143 16.5534 60.4943 16.2424 61.1084 15.6257C61.5185 15.2139 61.751 14.6433 61.8119 13.934L61.8242 13.7902H58.9313V13.1005H62.6435V12.9681L62.5133 12.9914C62.5494 13.1922 62.5665 13.383 62.5665 13.5678H62.831C62.831 13.3665 62.8124 13.1596 62.7736 12.9444L62.754 12.8357H58.6669V14.055H61.6801V13.9226L61.5485 13.9112C61.4901 14.5776 61.2783 15.0795 60.9214 15.4385C60.3533 16.0055 59.656 16.2853 58.7991 16.2869C57.9949 16.2858 57.3126 16.0085 56.7243 15.4421C56.1417 14.8776 55.8519 14.157 55.8504 13.2454C55.8519 12.3339 56.1417 11.6132 56.7243 11.0488C57.3126 10.4823 57.9949 10.205 58.7991 10.2039C59.6932 10.2061 60.3684 10.502 60.8699 11.0995L60.9629 11.2102L61.7619 10.4089L61.8476 10.323L61.7695 10.2303C61.4447 9.84241 61.0118 9.53451 60.4798 9.30595C59.9468 9.07667 59.3843 8.96179 58.7991 8.96179C57.6236 8.96078 56.6092 9.37463 55.7863 10.1936C54.9605 11.0111 54.5442 12.0385 54.5453 13.2454C54.5442 14.4518 54.9605 15.4799 55.7869 16.2977C56.6092 17.1162 57.6236 17.5296 58.7991 17.5285C60.0232 17.5296 61.0387 17.1223 61.8094 16.3117L61.7137 16.2201L61.8072 16.3138C62.4921 15.6283 62.8319 14.7023 62.831 13.5678H62.6988M68.7935 10.2485H65.1805V12.768H68.4387V13.7228H65.1805V16.2424H68.7935V17.2186H64.162V9.27226H68.7935V10.2485Z" fill="white"/>
<path d="M68.7938 10.2483V10.1159H65.0486V12.9003H68.3068V13.5899L65.0486 13.5902V16.3746H68.6615V17.086H64.2945V9.40452H68.6615V10.2483H68.7938V10.1159V10.2483H68.926V9.13965H64.0301V17.3509H68.926V16.1098H65.313V13.8551H68.5712V12.6354H65.313V10.3807H68.926V10.2483H68.7938ZM73.0926 17.2185H72.0725V10.2482H69.8567V9.27202H75.3085V10.2482H73.0926V17.2184" fill="white"/>
<path d="M73.0929 17.2185V17.086H72.205V10.1159H69.9892V9.40458H75.1765V10.1159H72.9607V17.2184H73.0929V17.086V17.2184H73.2252V10.3807H75.441V9.13965H69.7248V10.3807H71.9406V17.3508H73.2252V17.2184H73.0929M79.2533 17.2185V9.27202H80.2724V17.2184H79.2533" fill="white"/>
<path d="M79.253 17.2185H79.3852V9.40452H80.1398V17.086H79.253V17.2184H79.3852H79.253V17.3509H80.4042V9.13965H79.1208V17.3509H79.253V17.2184M84.794 17.2185H83.7739V10.2482H81.5582V9.27202H87.0098V10.2482H84.794V17.2184" fill="white"/>
<path d="M84.7943 17.2187V17.0862H83.9064V10.116H81.6908V9.40476H86.8779V10.116H84.6621V17.2186H84.7943V17.0862V17.2186H84.9266V10.3809H87.1424V9.13983H81.4263V10.3809H83.642V17.351H84.9266V17.2185H84.7943M92.2661 15.5265C92.8533 16.1219 93.5719 16.4193 94.4215 16.4193C95.2712 16.4193 95.9901 16.1219 96.5764 15.5265C97.1642 14.931 97.4586 14.1699 97.4586 13.2454C97.4586 12.3211 97.1642 11.5599 96.5764 10.9645C95.9901 10.369 95.2712 10.0715 94.4215 10.0715C93.5719 10.0715 92.8533 10.369 92.2661 10.9645C91.6799 11.5599 91.3855 12.321 91.3855 13.2454C91.3855 14.1699 91.6799 14.931 92.2661 15.5265ZM97.3305 16.1917C96.5505 16.995 95.5805 17.3961 94.4215 17.3961C93.2614 17.3961 92.2919 16.995 91.5136 16.1917C90.7331 15.3892 90.3447 14.4069 90.3447 13.2454C90.3447 12.0839 90.7331 11.1015 91.5136 10.2992C92.2919 9.49565 93.2614 9.09424 94.4215 9.09424C95.5744 9.09424 96.5417 9.49779 97.3253 10.3044C98.1078 11.1109 98.4993 12.0912 98.4993 13.2454C98.4993 14.4069 98.1088 15.3892 97.3305 16.1917Z" fill="white"/>
<path d="M92.2658 15.5265L92.1718 15.6196C92.7808 16.2388 93.5406 16.5534 94.4212 16.5518C95.3013 16.5534 96.0621 16.2388 96.6701 15.6196C97.2831 14.9997 97.5914 14.1978 97.5905 13.2454C97.5914 12.2931 97.2831 11.4912 96.6701 10.8713C96.0621 10.252 95.3013 9.93753 94.4212 9.93908C93.5406 9.93753 92.7808 10.252 92.1718 10.8713C91.5603 11.4912 91.2513 12.2931 91.2529 13.2454C91.2513 14.1978 91.5603 14.9997 92.1718 15.6196L92.2658 15.5265L92.3599 15.4333C91.7989 14.8616 91.5185 14.1425 91.5174 13.2454C91.5185 12.3484 91.7989 11.6293 92.3598 11.0575C92.9259 10.486 93.602 10.2056 94.4212 10.204C95.2398 10.2056 95.9175 10.486 96.4821 11.0575C97.044 11.6293 97.3245 12.3484 97.3255 13.2454C97.3245 14.1424 97.044 14.8616 96.4821 15.4333C95.9175 16.005 95.2399 16.2853 94.4212 16.2868C93.602 16.2853 92.9259 16.005 92.3598 15.4333L92.2658 15.5265ZM97.3301 16.1917L97.2356 16.0996C96.4774 16.8777 95.5503 17.2621 94.4212 17.2636C93.2916 17.262 92.3644 16.8777 91.6077 16.0996L91.6041 16.0955L91.6077 16.0996C90.8511 15.3189 90.4777 14.3774 90.4767 13.2454C90.4777 12.1134 90.8511 11.1719 91.6077 10.3913C92.3644 9.61314 93.2916 9.22827 94.4212 9.22673C95.543 9.22827 96.468 9.61474 97.2304 10.3969C97.9897 11.1812 98.3652 12.1212 98.3668 13.2454C98.3652 14.3774 97.9908 15.3189 97.2356 16.0996L97.3301 16.1917L97.4252 16.2837C98.2268 15.4591 98.6322 14.4363 98.6313 13.2454C98.6322 12.0613 98.2252 11.0406 97.4199 10.2123C96.6143 9.38083 95.605 8.96037 94.4212 8.9618C93.2312 8.96037 92.2189 9.37886 91.4182 10.2072V10.2066C90.6151 11.0317 90.2111 12.0545 90.2122 13.2454C90.2111 14.4363 90.6151 15.4591 91.4182 16.2842L91.4218 16.288L91.4182 16.2837C92.2189 17.112 93.2312 17.5296 94.4212 17.5285C95.6107 17.5296 96.623 17.112 97.4252 16.2837L97.3301 16.1917ZM99.9297 17.2186V9.2722H101.17L105.026 15.4539H105.07L105.026 13.9225V9.2722H106.046V17.2185H104.982L100.948 10.7373H100.904L100.948 12.2692V17.2185H99.9297" fill="white"/>
<path d="M99.9297 17.2185H100.062V9.40452H101.097L104.953 15.5862H105.206L105.158 13.9205V9.40458H105.914V17.086H105.056L101.022 10.6047H100.769L100.816 12.2712V17.086H99.9297V17.2184H100.062H99.9297V17.3508H101.08V12.267L101.037 10.7336L100.904 10.7371V10.8696H100.948V10.7371L100.836 10.8076L104.909 17.3508H106.178V9.13965H104.894V13.924L104.938 15.4574L105.07 15.4538V15.3213H105.026V15.4538L105.138 15.3835L101.244 9.13965H99.7975V17.3508H99.9298V17.2184M141.396 39.733H143.864V23.1766H141.396L141.396 39.733ZM163.619 29.1406L160.791 36.3187H160.707L157.771 29.1406H155.113L159.515 39.1732L157.006 44.7538H159.58L166.363 29.1406L163.619 29.1406ZM149.627 37.8526C148.818 37.8526 147.692 37.448 147.692 36.4465C147.692 35.1685 149.096 34.6787 150.307 34.6787C151.393 34.6787 151.902 34.913 152.561 35.2328C152.37 36.7661 151.051 37.8526 149.627 37.8526ZM149.925 28.7784C148.138 28.7784 146.289 29.5668 145.523 31.3134L147.713 32.2291C148.181 31.3134 149.052 31.0148 149.967 31.0148C151.243 31.0148 152.54 31.7821 152.561 33.1453V33.3155C152.115 33.0599 151.159 32.6766 149.988 32.6766C147.628 32.6766 145.224 33.9756 145.224 36.404C145.224 38.6193 147.16 40.0465 149.329 40.0465C150.988 40.0465 151.902 39.301 152.477 38.4279H152.561V39.7057H154.943V33.3578C154.943 30.4189 152.753 28.7784 149.925 28.7784ZM134.677 31.156H131.167V25.4809H134.677C136.521 25.4809 137.568 27.0106 137.568 28.3184C137.568 29.6015 136.521 31.156 134.677 31.156ZM134.613 23.1766H128.701V39.733H131.167V33.4603H134.613C137.348 33.4603 140.036 31.4773 140.036 28.3184C140.036 25.1596 137.348 23.1766 134.613 23.1766ZM102.375 37.8556C100.671 37.8556 99.2437 36.4262 99.2437 34.4629C99.2437 32.479 100.671 31.0278 102.375 31.0278C104.058 31.0278 105.379 32.479 105.379 34.4629C105.379 36.4262 104.058 37.8556 102.375 37.8556H102.375ZM105.208 30.0677H105.123C104.569 29.4064 103.504 28.809 102.162 28.809C99.3502 28.809 96.7728 31.2839 96.7728 34.4629C96.7728 37.6208 99.3501 40.0745 102.162 40.0745C103.504 40.0745 104.569 39.4769 105.123 38.7946H105.208V39.6053C105.208 41.7606 104.058 42.9127 102.205 42.9127C100.692 42.9127 99.7552 41.8242 99.3713 40.9069L97.2202 41.803C97.8379 43.2965 99.4783 45.1316 102.205 45.1316C105.102 45.1316 107.552 43.4243 107.552 39.2638V29.1504H105.208V30.0677ZM109.256 39.733H111.727V23.176H109.256V39.733ZM115.37 34.271C115.306 32.0945 117.052 30.9853 118.309 30.9853C119.29 30.9853 120.12 31.4758 120.396 32.1805L115.37 34.271ZM123.038 32.3935C122.57 31.1343 121.142 28.809 118.224 28.809C115.327 28.809 112.92 31.0919 112.92 34.4417C112.92 37.5996 115.306 40.0745 118.501 40.0745C121.079 40.0745 122.57 38.4955 123.188 37.5783L121.27 36.2978C120.632 37.2368 119.758 37.8556 118.501 37.8556C117.244 37.8556 116.349 37.2793 115.774 36.1489L123.293 33.0335L123.038 32.3935ZM63.1293 30.5373V32.9269H68.8381C68.6677 34.271 68.2203 35.2524 67.5386 35.9352C66.7081 36.7676 65.4086 37.6849 63.1292 37.6849C59.6143 37.6849 56.8666 34.8472 56.8666 31.3267C56.8666 27.8063 59.6143 24.9683 63.1293 24.9683C65.0253 24.9683 66.4095 25.7152 67.4322 26.6753L69.115 24.9899C67.6879 23.6241 65.7918 22.5787 63.1293 22.5787C58.3149 22.5787 54.2675 26.5047 54.2675 31.3267C54.2675 36.1489 58.3149 40.0745 63.1293 40.0745C65.7283 40.0745 67.6879 39.2215 69.2214 37.6208C70.7978 36.0418 71.288 33.823 71.288 32.0309C71.288 31.4758 71.2456 30.9641 71.1598 30.5373H63.1293ZM77.7784 37.8556C76.0739 37.8556 74.6039 36.4474 74.6039 34.4417C74.6039 32.4147 76.0739 31.0278 77.7784 31.0278C79.4822 31.0278 80.9522 32.4147 80.9522 34.4417C80.9522 36.4474 79.4822 37.8556 77.7784 37.8556ZM77.7784 28.809C74.6679 28.809 72.1329 31.1772 72.1329 34.4417C72.1329 37.6849 74.6679 40.0745 77.7784 40.0745C80.8882 40.0745 83.4232 37.6849 83.4232 34.4417C83.4232 31.1772 80.8882 28.809 77.7784 28.809ZM90.0928 37.8556C88.389 37.8556 86.9188 36.4474 86.9188 34.4417C86.9188 32.4147 88.389 31.0278 90.0928 31.0278C91.7968 31.0278 93.2667 32.4147 93.2667 34.4417C93.2667 36.4474 91.7968 37.8556 90.0928 37.8556H90.0928ZM90.0928 28.809C86.9825 28.809 84.448 31.1772 84.448 34.4417C84.448 37.6849 86.9825 40.0745 90.0928 40.0745C93.2027 40.0745 95.7378 37.6849 95.7378 34.4417C95.7378 31.1772 93.2027 28.809 90.0928 28.809H90.0928Z" fill="white"/>
<path d="M13.8947 10.079C13.451 10.48 13.1861 11.1488 13.1861 12.0366V11.8359V41.1329V40.9399C13.1861 41.7598 13.4133 42.393 13.7981 42.8008L13.8963 42.8949V42.8954C14.2077 43.1768 14.607 43.3263 15.0647 43.3258C15.5119 43.3258 16.015 43.183 16.546 42.8815L35.7388 31.9589L42.3313 28.2066C43.1686 27.7302 43.6387 27.1156 43.7172 26.4895V26.487C43.6387 25.8595 43.1686 25.2453 42.3314 24.7689L35.7382 21.0171L16.546 10.0944C16.0139 9.79238 15.5104 9.64905 15.0621 9.64905C14.6049 9.64905 14.2061 9.79803 13.8948 10.079H13.8947Z" fill="#00C1FF"/>
<path d="M13.8963 42.8953L13.7981 42.8011C13.4133 42.3934 13.1861 41.7601 13.1861 40.9402V41.1332V11.8435V12.0369C13.1861 11.1491 13.451 10.4803 13.8947 10.0793L30.2772 26.4878L13.8963 42.8953Z" fill="url(#paint0_linear_260_998)"/>
<path d="M35.739 31.9591L30.2774 26.4878L35.7385 21.0174L42.3316 24.7691C43.1689 25.2456 43.6389 25.8597 43.7175 26.4873V26.4898C43.6389 27.1158 43.1689 27.7305 42.3316 28.2068L35.739 31.959" fill="url(#paint1_linear_260_998)"/>
<path d="M15.0654 43.3263C14.6078 43.3267 14.2085 43.1772 13.8971 42.8958V42.8954L30.278 26.4879L35.7395 31.9592L16.5467 42.8819C16.0157 43.1835 15.5126 43.3263 15.0654 43.3263Z" fill="url(#paint2_linear_260_998)"/>
<path d="M30.2772 26.4894L13.8947 10.0808C14.2061 9.79989 14.6049 9.65091 15.0619 9.65091C15.5103 9.65091 16.0138 9.79418 16.5459 10.0963L35.7382 21.019L30.2771 26.4894" fill="url(#paint3_linear_260_998)"/>
<path d="M15.0652 43.5227C14.6076 43.5227 14.2077 43.3732 13.8963 43.0918L13.8958 43.0922C13.8945 43.091 13.8931 43.0898 13.8917 43.0887L13.8065 43.0053C13.8038 43.0027 13.8013 42.9997 13.7982 42.9967L13.8964 42.8983C14.2078 43.1797 14.6071 43.3292 15.0648 43.3287C15.5119 43.3287 16.015 43.1859 16.546 42.8843L35.7388 31.9617L35.8617 32.0849L35.7372 32.1557L16.546 43.0778C16.062 43.3525 15.6018 43.4958 15.186 43.5197C15.1458 43.5216 15.1055 43.5226 15.0652 43.5226" fill="url(#paint4_linear_260_998)"/>
<path d="M13.7981 42.9966C13.4133 42.5889 13.1861 41.9561 13.1861 41.1357V40.9427C13.1861 41.7626 13.4133 42.3958 13.7981 42.8036L13.8963 42.8978L13.7981 42.9966Z" fill="url(#paint5_linear_260_998)"/>
<path d="M35.8617 32.0827L35.7387 31.9595L42.3313 28.2073C43.1686 27.7309 43.6386 27.1162 43.7172 26.4902C43.7172 26.72 43.666 26.9496 43.5643 27.1732C43.3592 27.6238 42.9482 28.0495 42.3313 28.4008L35.8617 32.0828" fill="url(#paint6_linear_260_998)"/>
<path d="M43.7173 26.4893C43.6387 25.8617 43.1687 25.2476 42.3315 24.7711L35.7383 21.0194L35.8613 20.8962H35.8618L42.3315 24.5781C43.2545 25.1038 43.7168 25.7964 43.7173 26.4893Z" fill="url(#paint7_linear_260_998)"/>
<path d="M13.1861 12.037V11.8346C13.1861 11.7616 13.1881 11.6903 13.1918 11.621V11.6178C13.1918 11.6169 13.1918 11.6159 13.1922 11.6148V11.607C13.232 10.9008 13.451 10.3499 13.7981 9.98207L13.8947 10.0793C13.451 10.4803 13.1861 11.1492 13.1861 12.037Z" fill="url(#paint8_linear_260_998)"/>
<path d="M35.7381 21.0172L16.5459 10.0945C16.0138 9.79238 15.5103 9.64912 15.062 9.64912C14.6048 9.64912 14.2061 9.7981 13.8947 10.079L13.798 9.98178C13.8282 9.94977 13.8596 9.9189 13.8921 9.88923C13.8931 9.88815 13.8947 9.88708 13.8957 9.88607C14.2046 9.60727 14.5992 9.45829 15.0522 9.45561H15.062C15.5103 9.45561 16.0138 9.59894 16.5459 9.90113L35.8616 20.8936L35.8611 20.894L35.7381 21.0172Z" fill="url(#paint9_linear_260_998)"/>
<defs>
<linearGradient id="paint0_linear_260_998" x1="23.6555" y1="11.5339" x2="9.53751" y2="25.6747" gradientUnits="userSpaceOnUse">
<stop stop-color="#00A0FF"/>
<stop offset="0.00657" stop-color="#00A1FF"/>
<stop offset="0.2601" stop-color="#00BEFF"/>
<stop offset="0.5122" stop-color="#00D2FF"/>
<stop offset="0.7604" stop-color="#00DFFF"/>
<stop offset="1" stop-color="#00E3FF"/>
</linearGradient>
<linearGradient id="paint1_linear_260_998" x1="44.7376" y1="26.3932" x2="12.743" y2="26.3932" gradientUnits="userSpaceOnUse">
<stop stop-color="#FFE000"/>
<stop offset="0.4087" stop-color="#FFBD00"/>
<stop offset="0.7754" stop-color="#FFA500"/>
<stop offset="1" stop-color="#FF9C00"/>
</linearGradient>
<linearGradient id="paint2_linear_260_998" x1="32.8399" y1="31.6898" x2="8.91589" y2="55.4774" gradientUnits="userSpaceOnUse">
<stop stop-color="#FF3A44"/>
<stop offset="1" stop-color="#C31162"/>
</linearGradient>
<linearGradient id="paint3_linear_260_998" x1="9.67242" y1="7.64819" x2="20.3348" y2="18.2661" gradientUnits="userSpaceOnUse">
<stop stop-color="#32A071"/>
<stop offset="0.0685" stop-color="#2DA771"/>
<stop offset="0.4762" stop-color="#15CF74"/>
<stop offset="0.8009" stop-color="#06E775"/>
<stop offset="1" stop-color="#00F076"/>
</linearGradient>
<linearGradient id="paint4_linear_260_998" x1="32.8273" y1="35.4875" x2="13.6677" y2="54.678" gradientUnits="userSpaceOnUse">
<stop stop-color="#CC2E36"/>
<stop offset="1" stop-color="#9C0E4E"/>
</linearGradient>
<linearGradient id="paint5_linear_260_998" x1="15.3685" y1="11.5364" x2="2.93075" y2="23.9944" gradientUnits="userSpaceOnUse">
<stop stop-color="#008DE0"/>
<stop offset="0.00657" stop-color="#008DE0"/>
<stop offset="0.2601" stop-color="#00A7E0"/>
<stop offset="0.5122" stop-color="#00B8E0"/>
<stop offset="0.7604" stop-color="#00C4E0"/>
<stop offset="1" stop-color="#00C7E0"/>
</linearGradient>
<linearGradient id="paint6_linear_260_998" x1="44.7373" y1="26.489" x2="12.7427" y2="26.489" gradientUnits="userSpaceOnUse">
<stop stop-color="#E0C500"/>
<stop offset="0.4087" stop-color="#E0A600"/>
<stop offset="0.7754" stop-color="#E09100"/>
<stop offset="1" stop-color="#E08900"/>
</linearGradient>
<linearGradient id="paint7_linear_260_998" x1="44.7374" y1="26.4906" x2="12.7429" y2="26.4906" gradientUnits="userSpaceOnUse">
<stop stop-color="#FFE840"/>
<stop offset="0.4087" stop-color="#FFCE40"/>
<stop offset="0.7754" stop-color="#FFBC40"/>
<stop offset="1" stop-color="#FFB540"/>
</linearGradient>
<linearGradient id="paint8_linear_260_998" x1="15.355" y1="11.5565" x2="3.37526" y2="23.0358" gradientUnits="userSpaceOnUse">
<stop stop-color="#40B8FF"/>
<stop offset="0.00657" stop-color="#40B9FF"/>
<stop offset="0.2601" stop-color="#40CEFF"/>
<stop offset="0.5122" stop-color="#40DDFF"/>
<stop offset="0.7604" stop-color="#40E7FF"/>
<stop offset="1" stop-color="#40EAFF"/>
</linearGradient>
<linearGradient id="paint9_linear_260_998" x1="9.64853" y1="11.1165" x2="18.2041" y2="19.686" gradientUnits="userSpaceOnUse">
<stop stop-color="#65B895"/>
<stop offset="0.0685" stop-color="#62BD95"/>
<stop offset="0.4762" stop-color="#50DB97"/>
<stop offset="0.8009" stop-color="#44ED98"/>
<stop offset="1" stop-color="#40F498"/>
</linearGradient>
</defs>
</svg>
