<svg width="162" height="182" viewBox="0 0 162 182" fill="none" xmlns="http://www.w3.org/2000/svg">
<path opacity="0.3" d="M101.925 14.534C95.3249 13.1504 90.1659 7.99131 88.7824 1.39071C88.6125 0.580447 87.8978 0 87.0697 0C86.2415 0 85.5269 0.580447 85.357 1.39082C83.9735 7.99131 78.8144 13.1503 72.2139 14.5337C71.4036 14.7036 70.823 15.4183 70.823 16.2464C70.823 17.0744 71.4034 17.7892 72.2139 17.959C78.8143 19.3427 83.9731 24.5016 85.3567 31.1021C85.5266 31.9125 86.2412 32.493 87.0694 32.493C87.8974 32.493 88.6121 31.9126 88.782 31.1021C90.1657 24.5016 95.3248 19.3427 101.925 17.9593C102.736 17.7895 103.316 17.0748 103.316 16.2467C103.316 15.4187 102.736 14.7039 101.925 14.534Z" fill="#6289CD"/>
<path opacity="0.3" d="M43.9453 87.9626C40.8354 87.3108 38.4047 84.8801 37.7527 81.7701C37.5829 80.9597 36.8682 80.3792 36.0401 80.3792C35.2121 80.3792 34.4973 80.9595 34.3275 81.77C33.6754 84.8799 31.2446 87.3106 28.1348 87.9625C27.3245 88.1323 26.7439 88.8471 26.7439 89.6751C26.7439 90.5032 27.3243 91.2179 28.1348 91.3878C31.2445 92.0397 33.6753 94.4705 34.3273 97.5804C34.4971 98.3908 35.2117 98.9713 36.0399 98.9713C36.8679 98.9713 37.5827 98.391 37.7525 97.5804C38.4045 94.4705 40.8353 92.0398 43.9453 91.3879C44.7556 91.218 45.3362 90.5033 45.3362 89.6752C45.3362 88.8472 44.7557 88.1326 43.9453 87.9626Z" fill="#6289CD"/>
<path opacity="0.3" d="M159.794 103.105C155.59 102.223 152.305 98.9378 151.424 94.7344C151.254 93.9241 150.539 93.3435 149.711 93.3435C148.883 93.3435 148.168 93.9238 147.999 94.7343C147.117 98.9378 143.832 102.223 139.628 103.104C138.818 103.274 138.238 103.989 138.238 104.817C138.238 105.645 138.818 106.36 139.628 106.53C143.832 107.411 147.117 110.696 147.998 114.9C148.168 115.71 148.883 116.291 149.711 116.291C150.539 116.291 151.254 115.71 151.424 114.9C152.305 110.696 155.59 107.411 159.794 106.53C160.604 106.36 161.185 105.645 161.185 104.817C161.185 103.989 160.604 103.274 159.794 103.105Z" fill="#6289CD"/>
<path d="M0.875963 172.438C0.875963 177.737 5.20087 182 10.4993 182H91.682C95.7014 182 99.5385 180.416 102.34 177.676L137.237 145.885C139.673 143.509 140.831 140.342 140.831 137.175C140.831 134.009 139.673 130.842 137.237 128.405C132.669 123.899 125.482 123.533 120.55 127.736L91.0111 152.645C89.7934 153.68 88.2102 154.289 86.5659 154.289H62.5093C58.8545 154.289 55.9319 151.366 55.9319 147.712C55.9319 144.058 58.8545 141.135 62.5093 141.135H72.5578C79.5013 141.135 85.1651 135.47 85.1651 128.528C85.1651 121.584 79.5013 115.92 72.5578 115.92H40.1584C37.4785 115.92 34.8599 117.017 33.0326 119.026L22.3745 130.72C21.7058 131.451 20.7301 131.878 19.7559 131.878H10.4381C7.81946 131.878 5.44301 132.912 3.61704 134.74C1.79037 136.506 0.81543 138.941 0.81543 141.561L0.875963 172.438Z" fill="#F0F0F0"/>
<path opacity="0.3" d="M70.7064 83.7615C68.9459 83.7615 67.3735 83.3837 65.9898 82.5661C64.9835 82.0003 63.7885 82.0003 62.8456 82.5661C61.8386 83.132 61.2732 84.1382 61.2732 85.2705V101.433C61.2732 103.193 62.6576 104.577 64.4181 104.577H116.929C118.627 104.577 120.073 103.193 120.073 101.433V89.7354C121.08 89.9245 122.15 90.0502 123.218 90.0502C131.834 90.0502 138.939 83.0059 138.939 74.3283C138.939 65.6489 131.834 58.6061 123.218 58.6061C122.15 58.6061 121.08 58.7314 120.073 58.9201V47.223C120.073 45.4622 118.627 44.0789 116.929 44.0789H64.4181C62.6576 44.0789 61.2732 45.4622 61.2732 47.223V63.511C61.2732 66.0061 63.8716 67.5147 66.0532 66.1524C67.4362 65.3349 69.0086 64.8951 70.7064 64.8951C75.8624 64.8951 80.1396 69.1079 80.1396 74.3283C80.1396 79.5477 75.8624 83.7615 70.7064 83.7615Z" fill="#6289CD"/>
</svg>
