<svg width="181" height="25" viewBox="0 0 181 25" fill="none" xmlns="http://www.w3.org/2000/svg">
<path d="M10.7966 3.23906V7.55771C10.7966 8.41674 10.4554 9.24059 9.84794 9.84802C9.24051 10.4554 8.41666 10.7967 7.55763 10.7967H3.23898C2.37995 10.7967 1.5561 10.4554 0.948676 9.84802C0.341249 9.24059 0 8.41674 0 7.55771V3.23906C0 2.38003 0.341249 1.55619 0.948676 0.948758C1.5561 0.341331 2.37995 8.19793e-05 3.23898 8.19793e-05H7.55763C8.41666 8.19793e-05 9.24051 0.341331 9.84794 0.948758C10.4554 1.55619 10.7966 2.38003 10.7966 3.23906ZM20.9813 0H16.6627C15.8037 0 14.9798 0.341249 14.3724 0.948676C13.765 1.5561 13.4237 2.37995 13.4237 3.23898V7.55763C13.4237 8.41666 13.765 9.24051 14.3724 9.84793C14.9798 10.4554 15.8037 10.7966 16.6627 10.7966H20.9813C21.8404 10.7966 22.6642 10.4554 23.2716 9.84793C23.8791 9.24051 24.2203 8.41666 24.2203 7.55763V3.23898C24.2203 2.37995 23.8791 1.5561 23.2716 0.948676C22.6642 0.341249 21.8404 0 20.9813 0ZM7.55799 13.4233H3.23934C2.38031 13.4233 1.55646 13.7645 0.949034 14.3719C0.341607 14.9794 0.00035812 15.8032 0.00035812 16.6623V20.9809C0.00035812 21.8399 0.341607 22.6638 0.949034 23.2712C1.55646 23.8786 2.38031 24.2199 3.23934 24.2199H7.55799C8.41702 24.2199 9.24087 23.8786 9.84829 23.2712C10.4557 22.6638 10.797 21.8399 10.797 20.9809V16.6623C10.797 15.8032 10.4557 14.9794 9.84829 14.3719C9.24087 13.7645 8.41702 13.4233 7.55799 13.4233ZM20.9813 13.4235H16.6627C15.8037 13.4235 14.9798 13.7647 14.3724 14.3721C13.765 14.9796 13.4237 15.8034 13.4237 16.6625V20.9811C13.4237 21.8401 13.765 22.664 14.3724 23.2714C14.9798 23.8788 15.8037 24.2201 16.6627 24.2201H20.9813C21.8404 24.2201 22.6642 23.8788 23.2716 23.2714C23.8791 22.664 24.2203 21.8401 24.2203 20.9811V16.6625C24.2203 15.8034 23.8791 14.9796 23.2716 14.3721C22.6642 13.7647 21.8404 13.4235 20.9813 13.4235Z" fill="#6289CD"/>
<path d="M172.126 23.4651C167.836 23.4651 165.166 20.3151 165.166 15.7251C165.166 11.1051 167.866 7.80513 172.336 7.80513C174.406 7.80513 176.236 8.67513 177.166 10.1451V0.755127H180.796V23.0751H177.436L177.196 20.7651C176.296 22.4751 174.376 23.4651 172.126 23.4651ZM172.936 20.1051C175.486 20.1051 177.136 18.2751 177.136 15.6051C177.136 12.9351 175.486 11.0751 172.936 11.0751C170.386 11.0751 168.826 12.9651 168.826 15.6051C168.826 18.2451 170.386 20.1051 172.936 20.1051Z" fill="#1E232C"/>
<path d="M164.056 8.19511V11.5851H162.706C160.066 11.5851 158.416 12.9951 158.416 15.8751V23.0751H154.756V8.28511H158.206L158.416 10.4451C159.046 8.97511 160.456 7.98511 162.436 7.98511C162.946 7.98511 163.456 8.04511 164.056 8.19511Z" fill="#1E232C"/>
<path d="M142.731 23.4652C139.581 23.4652 137.661 21.6352 137.661 18.8452C137.661 16.1152 139.641 14.4052 143.151 14.1352L147.591 13.8052V13.4752C147.591 11.4652 146.391 10.6552 144.531 10.6552C142.371 10.6552 141.171 11.5552 141.171 13.1152H138.051C138.051 9.90518 140.691 7.80518 144.711 7.80518C148.701 7.80518 151.161 9.96518 151.161 14.0752V23.0752H147.951L147.681 20.8852C147.051 22.4152 145.041 23.4652 142.731 23.4652ZM143.931 20.7052C146.181 20.7052 147.621 19.3552 147.621 17.0752V16.2952L144.531 16.5352C142.251 16.7452 141.381 17.4952 141.381 18.6952C141.381 20.0452 142.281 20.7052 143.931 20.7052Z" fill="#1E232C"/>
<path d="M119.58 15.6352C119.58 11.0152 122.91 7.83521 127.5 7.83521C132.09 7.83521 135.42 11.0152 135.42 15.6352C135.42 20.2552 132.09 23.4352 127.5 23.4352C122.91 23.4352 119.58 20.2552 119.58 15.6352ZM123.24 15.6352C123.24 18.3352 124.98 20.1652 127.5 20.1652C130.02 20.1652 131.76 18.3352 131.76 15.6352C131.76 12.9352 130.02 11.1052 127.5 11.1052C124.98 11.1052 123.24 12.9352 123.24 15.6352Z" fill="#1E232C"/>
<path d="M105.266 23.0751H101.876V0.755127H105.536V10.4151C106.496 8.76513 108.476 7.77513 110.726 7.77513C114.956 7.77513 117.536 11.0751 117.536 15.7551C117.536 20.3151 114.746 23.4651 110.486 23.4651C108.266 23.4651 106.376 22.4751 105.506 20.7651L105.266 23.0751ZM105.566 15.6051C105.566 18.2751 107.216 20.1051 109.736 20.1051C112.316 20.1051 113.846 18.2451 113.846 15.6051C113.846 12.9651 112.316 11.0751 109.736 11.0751C107.216 11.0751 105.566 12.9351 105.566 15.6051Z" fill="#1E232C"/>
<path d="M87.8696 23.0751H84.2096V0.755127H87.8996V10.1751C88.8296 8.73513 90.5696 7.80513 92.6996 7.80513C96.3596 7.80513 98.2796 10.1151 98.2796 13.9551V23.0751H94.6196V14.8251C94.6196 12.3351 93.3896 11.1351 91.5296 11.1351C89.2196 11.1351 87.8696 12.7551 87.8696 14.9751V23.0751Z" fill="#1E232C"/>
<path d="M69.1829 18.5752H72.6629C72.6929 19.8652 73.6529 20.6752 75.3329 20.6752C77.0429 20.6752 77.9729 19.9852 77.9729 18.9052C77.9729 18.1552 77.5829 17.6152 76.2629 17.3152L73.5929 16.6852C70.9229 16.0852 69.6329 14.8252 69.6329 12.4552C69.6329 9.54517 72.0929 7.80518 75.5129 7.80518C78.8429 7.80518 81.0929 9.72518 81.1229 12.6052H77.6429C77.6129 11.3452 76.7729 10.5352 75.3629 10.5352C73.9229 10.5352 73.0829 11.1952 73.0829 12.3052C73.0829 13.1452 73.7429 13.6852 75.0029 13.9852L77.6729 14.6152C80.1629 15.1852 81.4229 16.3252 81.4229 18.6052C81.4229 21.6052 78.8729 23.4652 75.2129 23.4652C71.5229 23.4652 69.1829 21.4852 69.1829 18.5752Z" fill="#1E232C"/>
<path d="M58.2974 23.4652C55.1474 23.4652 53.2274 21.6352 53.2274 18.8452C53.2274 16.1152 55.2074 14.4052 58.7174 14.1352L63.1574 13.8052V13.4752C63.1574 11.4652 61.9574 10.6552 60.0974 10.6552C57.9374 10.6552 56.7374 11.5552 56.7374 13.1152H53.6174C53.6174 9.90518 56.2574 7.80518 60.2774 7.80518C64.2674 7.80518 66.7274 9.96518 66.7274 14.0752V23.0752H63.5174L63.2474 20.8852C62.6174 22.4152 60.6074 23.4652 58.2974 23.4652ZM59.4974 20.7052C61.7474 20.7052 63.1874 19.3552 63.1874 17.0752V16.2952L60.0974 16.5352C57.8174 16.7452 56.9474 17.4952 56.9474 18.6952C56.9474 20.0452 57.8474 20.7052 59.4974 20.7052Z" fill="#1E232C"/>
<path d="M40.1103 23.075H32.2203V1.14502H39.9003C46.3803 1.14502 50.8503 5.61502 50.8503 12.155C50.8503 18.605 46.4703 23.075 40.1103 23.075ZM39.5403 4.68502H36.0603V19.535H39.7503C44.1303 19.535 46.8003 16.715 46.8003 12.155C46.8003 7.50502 44.0703 4.68502 39.5403 4.68502Z" fill="#1E232C"/>
</svg>
