<svg width="14" height="12" viewBox="0 0 14 12" fill="none" xmlns="http://www.w3.org/2000/svg">
<path d="M13.7773 1.57212C13.8183 1.5151 13.7578 1.44149 13.6923 1.46685C13.2266 1.64708 12.7398 1.76868 12.2433 1.8286C12.7961 1.49888 13.2228 0.996955 13.4593 0.402713C13.4834 0.342179 13.4172 0.288124 13.3601 0.319612C12.8463 0.602902 12.2921 0.806888 11.7165 0.924371C11.6924 0.929291 11.6676 0.921103 11.6507 0.90328C11.2187 0.448234 10.65 0.145251 10.0302 0.040551C9.39728 -0.0663443 8.74675 0.0394993 8.18064 0.341487C7.61446 0.643475 7.16472 1.12452 6.90192 1.70919C6.65206 2.2651 6.58468 2.88478 6.70792 3.47991C6.71746 3.52608 6.68126 3.56968 6.6341 3.56675C5.51418 3.49731 4.4199 3.19991 3.41875 2.69247C2.42015 2.18632 1.53586 1.48218 0.819738 0.623485C0.787958 0.585375 0.72772 0.590302 0.704558 0.634178C0.481733 1.05632 0.365061 1.52685 0.365379 2.00506C0.364474 2.48108 0.481479 2.94994 0.705986 3.36988C0.930493 3.78983 1.25553 4.14785 1.65216 4.41204C1.23153 4.40061 0.819109 4.29678 0.444035 4.10857C0.395696 4.08432 0.337713 4.11886 0.34023 4.1728C0.36948 4.80048 0.600286 5.4306 0.999795 5.91411C1.42494 6.42854 2.01503 6.78062 2.67026 6.91078C2.41804 6.98744 2.15617 7.02781 1.89254 7.03078C1.74906 7.02908 1.60585 7.01857 1.46376 6.99916C1.41107 6.99196 1.36805 7.04193 1.38649 7.09169C1.58193 7.61932 1.92718 8.07976 2.38114 8.41582C2.86648 8.7751 3.45193 8.97443 4.05602 8.98601C3.03594 9.78737 1.77651 10.2247 0.478502 10.2283C0.345123 10.2287 0.211807 10.2244 0.0788094 10.2154C0.00385824 10.2103 -0.030609 10.31 0.0339914 10.3482C1.29869 11.0976 2.74421 11.4936 4.21864 11.4918C5.30723 11.5031 6.38714 11.2977 7.39535 10.8877C8.40356 10.4776 9.31979 9.87109 10.0906 9.10353C10.8614 8.33598 11.4713 7.42281 11.8846 6.41732C12.2978 5.41182 12.5063 4.33419 12.4978 3.24737V2.90868C12.4978 2.8864 12.5084 2.86544 12.5262 2.85201C13.0058 2.49051 13.4275 2.05893 13.7773 1.57212Z" fill="#ffffff"/>
</svg>
