<svg xmlns="http://www.w3.org/2000/svg" fill="none" viewBox="42 21 144 43">
<g filter="url(#filter0_d_2697_848)">
<rect x="43" y="22" width="142" height="41" rx="11" stroke="#39AE56" stroke-width="2" shape-rendering="crispEdges"/>
</g>
<path d="M65.3937 36.4249V39.3824C65.3937 39.9707 65.16 40.5349 64.744 40.9509C64.328 41.3668 63.7638 41.6005 63.1756 41.6005H60.2181C59.6298 41.6005 59.0656 41.3668 58.6497 40.9509C58.2337 40.5349 58 39.9707 58 39.3824V36.4249C58 35.8367 58.2337 35.2725 58.6497 34.8565C59.0656 34.4405 59.6298 34.2068 60.2181 34.2068H63.1756C63.7638 34.2068 64.328 34.4405 64.744 34.8565C65.16 35.2725 65.3937 35.8367 65.3937 36.4249ZM72.3683 34.2068H69.4109C68.8226 34.2068 68.2584 34.4405 67.8424 34.8565C67.4264 35.2724 67.1928 35.8366 67.1928 36.4249V39.3824C67.1928 39.9706 67.4264 40.5348 67.8424 40.9508C68.2584 41.3668 68.8226 41.6005 69.4109 41.6005H72.3683C72.9566 41.6005 73.5208 41.3668 73.9368 40.9508C74.3527 40.5348 74.5864 39.9706 74.5864 39.3824V36.4249C74.5864 35.8366 74.3527 35.2724 73.9368 34.8565C73.5208 34.4405 72.9566 34.2068 72.3683 34.2068ZM63.1758 43.3992H60.2183C59.6301 43.3992 59.0659 43.6329 58.6499 44.0489C58.2339 44.4649 58.0002 45.0291 58.0002 45.6173V48.5748C58.0002 49.1631 58.2339 49.7273 58.6499 50.1432C59.0659 50.5592 59.6301 50.7929 60.2183 50.7929H63.1758C63.7641 50.7929 64.3283 50.5592 64.7443 50.1432C65.1602 49.7273 65.3939 49.1631 65.3939 48.5748V45.6173C65.3939 45.0291 65.1602 44.4649 64.7443 44.0489C64.3283 43.6329 63.7641 43.3992 63.1758 43.3992ZM72.3683 43.3994H69.4109C68.8226 43.3994 68.2584 43.6331 67.8424 44.049C67.4264 44.465 67.1928 45.0292 67.1928 45.6175V48.5749C67.1928 49.1632 67.4264 49.7274 67.8424 50.1434C68.2584 50.5594 68.8226 50.793 69.4109 50.793H72.3683C72.9566 50.793 73.5208 50.5594 73.9368 50.1434C74.3527 49.7274 74.5864 49.1632 74.5864 48.5749V45.6175C74.5864 45.0292 74.3527 44.465 73.9368 44.049C73.5208 43.6331 72.9566 43.3994 72.3683 43.3994Z" fill="#39AE56"/>
<path d="M88.4004 49C92.2524 49 94.8444 46.372 94.8444 42.502C94.8444 38.614 92.2164 35.986 88.3284 35.986H84.0984V49H88.4004ZM88.2024 37.606C91.1724 37.606 93.0084 39.478 93.0084 42.502C93.0084 45.49 91.1724 47.362 88.2744 47.362H85.8624V37.606H88.2024ZM99.0747 49.216C100.497 49.216 101.703 48.586 102.153 47.578L102.333 49H103.773V43.474C103.773 41.098 102.297 39.946 100.119 39.946C97.8507 39.946 96.3387 41.152 96.3387 42.988H97.8147C97.8147 41.926 98.6247 41.296 100.047 41.296C101.235 41.296 102.117 41.818 102.117 43.294V43.546L99.3447 43.762C97.2747 43.924 96.0687 44.932 96.0687 46.552C96.0687 48.154 97.1847 49.216 99.0747 49.216ZM99.5607 47.902C98.4627 47.902 97.7787 47.434 97.7787 46.498C97.7787 45.634 98.3907 45.058 99.8847 44.914L102.135 44.734V45.202C102.135 46.858 101.163 47.902 99.5607 47.902ZM105.096 46.444C105.096 48.118 106.41 49.216 108.48 49.216C110.568 49.216 112.008 48.154 112.008 46.48C112.008 45.166 111.27 44.482 109.776 44.122L108.228 43.744C107.364 43.528 106.932 43.132 106.932 42.538C106.932 41.728 107.526 41.26 108.588 41.26C109.614 41.26 110.208 41.818 110.244 42.7H111.864C111.828 41.026 110.568 39.946 108.642 39.946C106.698 39.946 105.33 40.972 105.33 42.592C105.33 43.888 106.068 44.662 107.634 45.04L109.182 45.4C110.1 45.634 110.388 45.994 110.388 46.588C110.388 47.398 109.704 47.884 108.516 47.884C107.4 47.884 106.716 47.344 106.716 46.444H105.096ZM115.276 48.982V44.194C115.276 42.682 116.158 41.494 117.796 41.494C119.056 41.494 119.902 42.214 119.902 43.996V49H121.594V43.618C121.594 41.368 120.514 39.946 118.264 39.946C116.896 39.946 115.834 40.594 115.276 41.548V35.752H113.584V48.982H115.276ZM125.168 49L125.294 47.398C125.87 48.604 127.04 49.216 128.426 49.216C130.982 49.216 132.566 47.308 132.566 44.644C132.566 41.926 131.054 39.946 128.534 39.946C127.094 39.946 125.906 40.558 125.33 41.71V35.752H123.638V49H125.168ZM125.348 44.572C125.348 42.772 126.392 41.476 128.12 41.476C129.848 41.476 130.874 42.772 130.874 44.572C130.874 46.39 129.848 47.686 128.12 47.686C126.392 47.686 125.348 46.408 125.348 44.572ZM133.555 44.59C133.555 47.308 135.499 49.216 138.145 49.216C140.773 49.216 142.717 47.308 142.717 44.59C142.717 41.872 140.773 39.964 138.145 39.964C135.499 39.964 133.555 41.872 133.555 44.59ZM135.265 44.59C135.265 42.754 136.435 41.476 138.145 41.476C139.837 41.476 141.025 42.754 141.025 44.59C141.025 46.426 139.837 47.704 138.145 47.704C136.435 47.704 135.265 46.426 135.265 44.59ZM146.864 49.216C148.286 49.216 149.492 48.586 149.942 47.578L150.122 49H151.562V43.474C151.562 41.098 150.086 39.946 147.908 39.946C145.64 39.946 144.128 41.152 144.128 42.988H145.604C145.604 41.926 146.414 41.296 147.836 41.296C149.024 41.296 149.906 41.818 149.906 43.294V43.546L147.134 43.762C145.064 43.924 143.858 44.932 143.858 46.552C143.858 48.154 144.974 49.216 146.864 49.216ZM147.35 47.902C146.252 47.902 145.568 47.434 145.568 46.498C145.568 45.634 146.18 45.058 147.674 44.914L149.924 44.734V45.202C149.924 46.858 148.952 47.902 147.35 47.902ZM158.645 40.126C158.303 40.054 158.051 40.018 157.745 40.018C156.539 40.018 155.657 40.63 155.297 41.548L155.189 40.216H153.605V49H155.297V44.338C155.297 42.646 156.287 41.674 157.889 41.674H158.645V40.126ZM163.144 49.216C164.548 49.216 165.736 48.604 166.312 47.398L166.456 49H167.968V35.752H166.294V41.62C165.7 40.54 164.566 39.946 163.216 39.946C160.606 39.946 159.04 41.926 159.04 44.626C159.04 47.308 160.588 49.216 163.144 49.216ZM163.486 47.686C161.758 47.686 160.75 46.39 160.75 44.572C160.75 42.772 161.758 41.476 163.486 41.476C165.214 41.476 166.276 42.772 166.276 44.572C166.276 46.408 165.214 47.686 163.486 47.686Z" fill="#39AE56"/>
<defs>
<filter id="filter0_d_2697_848" x="0" y="-19" width="228" height="127" filterUnits="userSpaceOnUse" color-interpolation-filters="sRGB">
<feFlood flood-opacity="0" result="BackgroundImageFix"/>
<feColorMatrix in="SourceAlpha" type="matrix" values="0 0 0 0 0 0 0 0 0 0 0 0 0 0 0 0 0 0 127 0" result="hardAlpha"/>
<feOffset dy="2"/>
<feGaussianBlur stdDeviation="21"/>
<feComposite in2="hardAlpha" operator="out"/>
<feColorMatrix type="matrix" values="0 0 0 0 0.733333 0 0 0 0 0.415686 0 0 0 0 0.215686 0 0 0 0.08 0"/>
<feBlend mode="normal" in2="BackgroundImageFix" result="effect1_dropShadow_2697_848"/>
<feBlend mode="normal" in="SourceGraphic" in2="effect1_dropShadow_2697_848" result="shape"/>
</filter>
</defs>
</svg>