<svg width="179" height="53" viewBox="0 0 179 53" fill="none" xmlns="http://www.w3.org/2000/svg">
<rect x="0.5" y="0.5" width="177.5" height="51.98" rx="6.5" fill="#090909" stroke="#A6A6A6"/>
<path d="M62.6995 13.5678C62.6995 14.6774 62.3714 15.561 61.7144 16.2201C60.9681 17.0039 59.9954 17.3961 58.7997 17.3961C57.6546 17.3961 56.6811 16.9988 55.8804 16.203C55.0784 15.4079 54.6781 14.4219 54.6781 13.2454C54.6781 12.0685 55.0784 11.083 55.8804 10.2872C56.6811 9.49214 57.6546 9.09424 58.7997 9.09424C59.3679 9.09424 59.9119 9.20554 60.4283 9.4275C60.9448 9.64999 61.3591 9.94533 61.669 10.3152L60.9716 11.0141C60.4464 10.3856 59.7233 10.0715 58.7997 10.0715C57.9646 10.0715 57.2425 10.3654 56.6331 10.9536C56.0235 11.5424 55.7188 12.3059 55.7188 13.2454C55.7188 14.185 56.0235 14.9485 56.6331 15.5373C57.2425 16.1255 57.9646 16.4193 58.7997 16.4193C59.6856 16.4193 60.4242 16.1239 61.0156 15.5321C61.3994 15.1466 61.6214 14.6107 61.6808 13.9226H58.7997V12.9681H62.6441C62.6813 13.1757 62.6994 13.3748 62.6994 13.5678" fill="white"/>
<path d="M62.6988 13.5679H62.5666C62.5655 14.6522 62.2493 15.4944 61.6202 16.1266L61.6188 16.1277L61.6182 16.1288C60.8956 16.8855 59.9668 17.2622 58.799 17.2638C57.6845 17.2622 56.7516 16.8814 55.9727 16.1095C55.1954 15.3361 54.8111 14.3919 54.8096 13.2455C54.8111 12.0986 55.1954 11.155 55.9727 10.3821C56.7516 9.60969 57.6845 9.22839 58.799 9.22679C59.3501 9.22679 59.8749 9.33452 60.3754 9.54915C60.8764 9.76545 61.2722 10.0489 61.567 10.4008L61.6683 10.3153L61.5748 10.2217L60.8775 10.9211L60.9709 11.0142L61.0728 10.9295C60.5231 10.2698 59.7516 9.93723 58.799 9.9392C57.9329 9.93812 57.1711 10.2481 56.5409 10.8586C55.9046 11.4711 55.5849 12.2776 55.586 13.2455C55.5849 14.2135 55.9046 15.02 56.5409 15.6325C57.1711 16.243 57.9329 16.553 58.799 16.5519C59.7142 16.5535 60.4943 16.2425 61.1083 15.6259C61.5184 15.214 61.7509 14.6435 61.8119 13.9341L61.8242 13.7903H58.9312V13.1007H62.6435V12.9682L62.5132 12.9915C62.5494 13.1923 62.5665 13.3832 62.5665 13.5679H62.831C62.831 13.3666 62.8123 13.1597 62.7736 12.9445L62.754 12.8358H58.6668V14.0552H61.6801V13.9227L61.5484 13.9113C61.4901 14.5777 61.2783 15.0796 60.9214 15.4387C60.3533 16.0056 59.656 16.2854 58.799 16.287C57.9949 16.286 57.3126 16.0086 56.7243 15.4422C56.1417 14.8777 55.8519 14.1571 55.8504 13.2455C55.8519 12.334 56.1417 11.6134 56.7243 11.0489C57.3126 10.4824 57.9948 10.2051 58.799 10.2041C59.6932 10.2062 60.3683 10.5021 60.8698 11.0996L60.9628 11.2103L61.7618 10.409L61.8475 10.3232L61.7695 10.2304C61.4446 9.84253 61.0118 9.53463 60.4798 9.30607C59.9468 9.07679 59.3843 8.96192 58.799 8.96192C57.6236 8.9609 56.6091 9.37476 55.7863 10.1938C54.9605 11.0112 54.5442 12.0386 54.5453 13.2455C54.5442 14.4519 54.9604 15.48 55.7868 16.2979C56.6091 17.1163 57.6236 17.5297 58.799 17.5286C60.0232 17.5297 61.0387 17.1225 61.8093 16.3118L61.7137 16.2202L61.8072 16.3139C62.4921 15.6284 62.8319 14.7024 62.831 13.5679H62.6988M68.7935 10.2486H65.1805V12.7681H68.4387V13.723H65.1805V16.2425H68.7935V17.2187H64.162V9.27238H68.7935V10.2486Z" fill="white"/>
<path d="M68.7937 10.2483V10.1159H65.0486V12.9003H68.3067V13.5899L65.0485 13.5902V16.3746H68.6614V17.086H64.2945V9.40452H68.6614V10.2483H68.7937V10.1159V10.2483H68.9259V9.13965H64.03V17.3509H68.9259V16.1098H65.313V13.8551H68.5712V12.6354H65.313V10.3807H68.9259V10.2483H68.7937ZM73.0926 17.2185H72.0725V10.2482H69.8566V9.27202H75.3084V10.2482H73.0926V17.2184" fill="white"/>
<path d="M73.093 17.2185V17.086H72.2051V10.1159H69.9893V9.40458H75.1766V10.1159H72.9608V17.2184H73.093V17.086V17.2184H73.2252V10.3807H75.441V9.13965H69.7249V10.3807H71.9406V17.3508H73.2252V17.2184H73.093M79.2534 17.2185V9.27202H80.2724V17.2184H79.2534" fill="white"/>
<path d="M79.2529 17.2185H79.3852V9.40452H80.1397V17.086H79.2529V17.2184H79.3852H79.2529V17.3509H80.4042V9.13965H79.1207V17.3509H79.2529V17.2184M84.7939 17.2185H83.7739V10.2482H81.5581V9.27202H87.0098V10.2482H84.7939V17.2184" fill="white"/>
<path d="M84.7943 17.2187V17.0862H83.9064V10.116H81.6907V9.40476H86.8779V10.116H84.6621V17.2186H84.7943V17.0862V17.2186H84.9265V10.3809H87.1423V9.13983H81.4263V10.3809H83.6419V17.351H84.9265V17.2185H84.7943M92.2661 15.5265C92.8533 16.1219 93.5718 16.4193 94.4215 16.4193C95.2712 16.4193 95.9901 16.1219 96.5764 15.5265C97.1641 14.931 97.4586 14.1699 97.4586 13.2454C97.4586 12.3211 97.1641 11.5599 96.5764 10.9645C95.9901 10.369 95.2712 10.0715 94.4215 10.0715C93.5718 10.0715 92.8533 10.369 92.2661 10.9645C91.6798 11.5599 91.3855 12.321 91.3855 13.2454C91.3855 14.1699 91.6798 14.931 92.2661 15.5265ZM97.3304 16.1917C96.5505 16.995 95.5805 17.3961 94.4215 17.3961C93.2614 17.3961 92.2918 16.995 91.5136 16.1917C90.7331 15.3892 90.3447 14.4069 90.3447 13.2454C90.3447 12.0839 90.7331 11.1015 91.5136 10.2992C92.2919 9.49565 93.2614 9.09424 94.4215 9.09424C95.5744 9.09424 96.5417 9.49779 97.3253 10.3044C98.1078 11.1109 98.4993 12.0912 98.4993 13.2454C98.4993 14.4069 98.1087 15.3892 97.3304 16.1917Z" fill="white"/>
<path d="M92.2658 15.5266L92.1717 15.6197C92.7807 16.2389 93.5405 16.5535 94.4211 16.5519C95.3012 16.5535 96.062 16.2389 96.67 15.6197C97.283 14.9998 97.5914 14.1979 97.5904 13.2455C97.5913 12.2932 97.283 11.4913 96.67 10.8714C96.062 10.2522 95.3012 9.93765 94.4211 9.9392C93.5405 9.93765 92.7807 10.2522 92.1717 10.8714C91.5602 11.4913 91.2513 12.2932 91.2529 13.2455C91.2513 14.1979 91.5602 14.9998 92.1717 15.6197L92.2658 15.5266L92.3598 15.4334C91.7989 14.8617 91.5184 14.1426 91.5173 13.2455C91.5184 12.3486 91.7989 11.6294 92.3598 11.0577C92.9258 10.4861 93.6019 10.2057 94.4211 10.2041C95.2397 10.2057 95.9174 10.4861 96.482 11.0577C97.044 11.6294 97.3244 12.3486 97.3254 13.2455C97.3244 14.1425 97.044 14.8617 96.482 15.4334C95.9174 16.0051 95.2398 16.2854 94.4211 16.287C93.6019 16.2854 92.9258 16.0051 92.3598 15.4334L92.2658 15.5266ZM97.3301 16.1918L97.2356 16.0998C96.4774 16.8778 95.5502 17.2622 94.4211 17.2638C93.2916 17.2622 92.3644 16.8778 91.6076 16.0998L91.6041 16.0956L91.6076 16.0998C90.8511 15.319 90.4777 14.3775 90.4766 13.2455C90.4777 12.1136 90.8511 11.1721 91.6076 10.3914C92.3644 9.61326 93.2915 9.22839 94.4211 9.22685C95.5429 9.22839 96.468 9.61487 97.2304 10.397C97.9896 11.1813 98.3651 12.1214 98.3668 13.2455C98.3651 14.3775 97.9907 15.319 97.2356 16.0998L97.3301 16.1918L97.4252 16.2838C98.2267 15.4593 98.6321 14.4364 98.6312 13.2455C98.6322 12.0614 98.2251 11.0407 97.4199 10.2125C96.6142 9.38095 95.605 8.96049 94.4211 8.96192C93.2311 8.96049 92.2188 9.37898 91.4182 10.2073V10.2067C90.6151 11.0318 90.2111 12.0546 90.2122 13.2455C90.2111 14.4364 90.6151 15.4593 91.4182 16.2843L91.4218 16.2881L91.4182 16.2838C92.2188 17.1121 93.2311 17.5297 94.4211 17.5286C95.6106 17.5297 96.623 17.1121 97.4252 16.2838L97.3301 16.1918ZM99.9296 17.2188V9.27232H101.17L105.026 15.454H105.07L105.026 13.9227V9.27232H106.046V17.2187H104.982L100.948 10.7374H100.904L100.948 12.2693V17.2187H99.9297" fill="white"/>
<path d="M99.9297 17.2185H100.062V9.40452H101.097L104.953 15.5862H105.206L105.158 13.9205V9.40458H105.914V17.086H105.056L101.022 10.6047H100.769L100.816 12.2712V17.086H99.9298V17.2184H100.062H99.9298V17.3508H101.081V12.267L101.037 10.7336L100.904 10.7371V10.8696H100.948V10.7371L100.836 10.8076L104.909 17.3508H106.178V9.13965H104.894V13.924L104.938 15.4574L105.07 15.4538V15.3213H105.026V15.4538L105.138 15.3835L101.244 9.13965H99.7976V17.3508H99.9298V17.2184M141.396 39.733H143.864V23.1766H141.396L141.396 39.733ZM163.62 29.1406L160.791 36.3187H160.707L157.771 29.1406H155.113L159.515 39.1732L157.006 44.7538H159.58L166.363 29.1406L163.62 29.1406ZM149.627 37.8526C148.818 37.8526 147.692 37.448 147.692 36.4465C147.692 35.1685 149.096 34.6787 150.307 34.6787C151.393 34.6787 151.902 34.913 152.562 35.2328C152.37 36.7661 151.051 37.8526 149.627 37.8526ZM149.925 28.7784C148.139 28.7784 146.289 29.5668 145.523 31.3134L147.713 32.2291C148.181 31.3134 149.052 31.0148 149.967 31.0148C151.243 31.0148 152.54 31.7821 152.562 33.1453V33.3155C152.115 33.0599 151.159 32.6766 149.988 32.6766C147.628 32.6766 145.224 33.9756 145.224 36.404C145.224 38.6193 147.16 40.0465 149.329 40.0465C150.988 40.0465 151.902 39.301 152.477 38.4279H152.562V39.7057H154.943V33.3578C154.943 30.4189 152.753 28.7784 149.925 28.7784ZM134.677 31.156H131.167V25.4809H134.677C136.521 25.4809 137.569 27.0106 137.569 28.3184C137.569 29.6015 136.521 31.156 134.677 31.156ZM134.613 23.1766H128.701V39.733H131.167V33.4603H134.613C137.348 33.4603 140.036 31.4773 140.036 28.3184C140.036 25.1596 137.348 23.1766 134.613 23.1766ZM102.375 37.8556C100.671 37.8556 99.2438 36.4262 99.2438 34.4629C99.2438 32.479 100.671 31.0278 102.375 31.0278C104.058 31.0278 105.379 32.479 105.379 34.4629C105.379 36.4262 104.058 37.8556 102.375 37.8556H102.375ZM105.208 30.0677H105.123C104.57 29.4064 103.504 28.809 102.162 28.809C99.3502 28.809 96.7729 31.2839 96.7729 34.4629C96.7729 37.6208 99.3502 40.0745 102.162 40.0745C103.504 40.0745 104.57 39.4769 105.123 38.7946H105.208V39.6053C105.208 41.7606 104.058 42.9127 102.205 42.9127C100.693 42.9127 99.7552 41.8242 99.3714 40.9069L97.2203 41.803C97.838 43.2965 99.4783 45.1316 102.205 45.1316C105.102 45.1316 107.552 43.4243 107.552 39.2638V29.1504H105.208V30.0677ZM109.256 39.733H111.727V23.176H109.256V39.733ZM115.37 34.271C115.306 32.0945 117.052 30.9853 118.309 30.9853C119.29 30.9853 120.12 31.4758 120.396 32.1805L115.37 34.271ZM123.038 32.3935C122.57 31.1343 121.142 28.809 118.224 28.809C115.327 28.809 112.92 31.0919 112.92 34.4417C112.92 37.5996 115.306 40.0745 118.501 40.0745C121.079 40.0745 122.57 38.4955 123.188 37.5783L121.27 36.2978C120.632 37.2368 119.758 37.8556 118.501 37.8556C117.244 37.8556 116.35 37.2793 115.774 36.1489L123.293 33.0335L123.038 32.3935ZM63.1294 30.5373V32.9269H68.8382C68.6678 34.271 68.2204 35.2524 67.5386 35.9352C66.7081 36.7676 65.4087 37.6849 63.1293 37.6849C59.6144 37.6849 56.8666 34.8472 56.8666 31.3267C56.8666 27.8063 59.6144 24.9683 63.1294 24.9683C65.0253 24.9683 66.4096 25.7152 67.4322 26.6753L69.1151 24.9899C67.688 23.6241 65.7919 22.5787 63.1294 22.5787C58.3149 22.5787 54.2676 26.5047 54.2676 31.3267C54.2676 36.1489 58.3149 40.0745 63.1294 40.0745C65.7284 40.0745 67.688 39.2215 69.2215 37.6208C70.7979 36.0418 71.2881 33.823 71.2881 32.0309C71.2881 31.4758 71.2456 30.9641 71.1599 30.5373H63.1294ZM77.7784 37.8556C76.0739 37.8556 74.604 36.4474 74.604 34.4417C74.604 32.4147 76.0739 31.0278 77.7784 31.0278C79.4823 31.0278 80.9522 32.4147 80.9522 34.4417C80.9522 36.4474 79.4823 37.8556 77.7784 37.8556ZM77.7784 28.809C74.668 28.809 72.133 31.1772 72.133 34.4417C72.133 37.6849 74.668 40.0745 77.7784 40.0745C80.8883 40.0745 83.4233 37.6849 83.4233 34.4417C83.4233 31.1772 80.8883 28.809 77.7784 28.809ZM90.0928 37.8556C88.389 37.8556 86.9189 36.4474 86.9189 34.4417C86.9189 32.4147 88.389 31.0278 90.0929 31.0278C91.7969 31.0278 93.2668 32.4147 93.2668 34.4417C93.2668 36.4474 91.7969 37.8556 90.0929 37.8556H90.0928ZM90.0928 28.809C86.9825 28.809 84.448 31.1772 84.448 34.4417C84.448 37.6849 86.9825 40.0745 90.0929 40.0745C93.2028 40.0745 95.7379 37.6849 95.7379 34.4417C95.7379 31.1772 93.2028 28.809 90.0929 28.809H90.0928Z" fill="white"/>
<path d="M13.8948 10.0788C13.451 10.4798 13.1862 11.1487 13.1862 12.0365V11.8358V41.1328V40.9398C13.1862 41.7597 13.4134 42.3929 13.7981 42.8007L13.8963 42.8948V42.8952C14.2077 43.1767 14.6071 43.3262 15.0647 43.3257C15.5119 43.3257 16.015 43.1829 16.546 42.8814L35.7388 31.9587L42.3314 28.2065C43.1687 27.7301 43.6387 27.1154 43.7173 26.4894V26.4868C43.6387 25.8594 43.1687 25.2452 42.3314 24.7688L35.7383 21.0169L16.5461 10.0943C16.014 9.79225 15.5105 9.64893 15.0621 9.64893C14.605 9.64893 14.2062 9.79791 13.8949 10.0788H13.8948Z" fill="#00C1FF"/>
<path d="M13.8964 42.8953L13.7981 42.8011C13.4134 42.3934 13.1862 41.7601 13.1862 40.9402V41.1332V11.8435V12.0369C13.1862 11.1491 13.451 10.4803 13.8948 10.0793L30.2772 26.4878L13.8964 42.8953Z" fill="url(#paint0_linear_2697_1171)"/>
<path d="M35.739 31.959L30.2775 26.4877L35.7385 21.0172L42.3317 24.769C43.1689 25.2455 43.6389 25.8596 43.7175 26.4871V26.4896C43.6389 27.1157 43.1689 27.7304 42.3317 28.2067L35.7391 31.9589" fill="url(#paint1_linear_2697_1171)"/>
<path d="M15.0654 43.3262C14.6078 43.3266 14.2085 43.1771 13.8971 42.8957V42.8952L30.278 26.4878L35.7395 31.9591L16.5467 42.8818C16.0157 43.1834 15.5126 43.3262 15.0654 43.3262Z" fill="url(#paint2_linear_2697_1171)"/>
<path d="M30.2772 26.4893L13.8947 10.0807C14.2061 9.79977 14.6049 9.65079 15.0619 9.65079C15.5103 9.65079 16.0138 9.79406 16.5459 10.0962L35.7382 21.0188L30.2771 26.4893" fill="url(#paint3_linear_2697_1171)"/>
<path d="M15.0651 43.5227C14.6075 43.5227 14.2077 43.3732 13.8962 43.0918L13.8957 43.0922C13.8944 43.091 13.8931 43.0898 13.8916 43.0887L13.8064 43.0053C13.8038 43.0027 13.8013 42.9997 13.7981 42.9967L13.8963 42.8983C14.2077 43.1797 14.607 43.3292 15.0647 43.3287C15.5118 43.3287 16.015 43.1859 16.546 42.8843L35.7387 31.9617L35.8617 32.0849L35.7372 32.1557L16.5459 43.0778C16.062 43.3525 15.6017 43.4958 15.186 43.5197C15.1457 43.5216 15.1054 43.5226 15.0651 43.5226" fill="url(#paint4_linear_2697_1171)"/>
<path d="M13.7981 42.9966C13.4133 42.5889 13.1862 41.9561 13.1862 41.1357V40.9427C13.1862 41.7626 13.4133 42.3958 13.7981 42.8036L13.8963 42.8978L13.7981 42.9966Z" fill="url(#paint5_linear_2697_1171)"/>
<path d="M35.8617 32.0827L35.7388 31.9595L42.3313 28.2073C43.1686 27.7309 43.6387 27.1162 43.7172 26.4902C43.7172 26.72 43.666 26.9496 43.5644 27.1732C43.3593 27.6238 42.9482 28.0495 42.3314 28.4008L35.8617 32.0828" fill="url(#paint6_linear_2697_1171)"/>
<path d="M43.7173 26.4893C43.6387 25.8617 43.1687 25.2476 42.3315 24.7711L35.7383 21.0194L35.8613 20.8962H35.8618L42.3315 24.5781C43.2545 25.1038 43.7168 25.7964 43.7173 26.4893Z" fill="url(#paint7_linear_2697_1171)"/>
<path d="M13.1862 12.0371V11.8347C13.1862 11.7618 13.1881 11.6904 13.1919 11.6211V11.618C13.1919 11.617 13.1919 11.616 13.1922 11.6149V11.6071C13.232 10.9009 13.451 10.35 13.7981 9.9822L13.8948 10.0794C13.451 10.4804 13.1862 11.1493 13.1862 12.0371Z" fill="url(#paint8_linear_2697_1171)"/>
<path d="M35.7382 21.0171L16.546 10.0943C16.0139 9.79226 15.5104 9.649 15.062 9.649C14.6049 9.649 14.2061 9.79798 13.8948 10.0789L13.7981 9.98166C13.8283 9.94965 13.8597 9.91878 13.8921 9.8891C13.8932 9.88803 13.8948 9.88696 13.8958 9.88595C14.2047 9.60715 14.5993 9.45817 15.0523 9.45549H15.062C15.5104 9.45549 16.0139 9.59882 16.546 9.90101L35.8617 20.8935L35.8611 20.8939L35.7382 21.0171Z" fill="url(#paint9_linear_2697_1171)"/>
<defs>
<linearGradient id="paint0_linear_2697_1171" x1="23.6556" y1="11.5339" x2="9.53755" y2="25.6747" gradientUnits="userSpaceOnUse">
<stop stop-color="#00A0FF"/>
<stop offset="0.00657" stop-color="#00A1FF"/>
<stop offset="0.2601" stop-color="#00BEFF"/>
<stop offset="0.5122" stop-color="#00D2FF"/>
<stop offset="0.7604" stop-color="#00DFFF"/>
<stop offset="1" stop-color="#00E3FF"/>
</linearGradient>
<linearGradient id="paint1_linear_2697_1171" x1="44.7376" y1="26.3931" x2="12.7431" y2="26.3931" gradientUnits="userSpaceOnUse">
<stop stop-color="#FFE000"/>
<stop offset="0.4087" stop-color="#FFBD00"/>
<stop offset="0.7754" stop-color="#FFA500"/>
<stop offset="1" stop-color="#FF9C00"/>
</linearGradient>
<linearGradient id="paint2_linear_2697_1171" x1="32.8399" y1="31.6897" x2="8.91589" y2="55.4773" gradientUnits="userSpaceOnUse">
<stop stop-color="#FF3A44"/>
<stop offset="1" stop-color="#C31162"/>
</linearGradient>
<linearGradient id="paint3_linear_2697_1171" x1="9.67242" y1="7.64807" x2="20.3348" y2="18.2659" gradientUnits="userSpaceOnUse">
<stop stop-color="#32A071"/>
<stop offset="0.0685" stop-color="#2DA771"/>
<stop offset="0.4762" stop-color="#15CF74"/>
<stop offset="0.8009" stop-color="#06E775"/>
<stop offset="1" stop-color="#00F076"/>
</linearGradient>
<linearGradient id="paint4_linear_2697_1171" x1="32.8272" y1="35.4875" x2="13.6677" y2="54.678" gradientUnits="userSpaceOnUse">
<stop stop-color="#CC2E36"/>
<stop offset="1" stop-color="#9C0E4E"/>
</linearGradient>
<linearGradient id="paint5_linear_2697_1171" x1="15.3685" y1="11.5364" x2="2.93078" y2="23.9944" gradientUnits="userSpaceOnUse">
<stop stop-color="#008DE0"/>
<stop offset="0.00657" stop-color="#008DE0"/>
<stop offset="0.2601" stop-color="#00A7E0"/>
<stop offset="0.5122" stop-color="#00B8E0"/>
<stop offset="0.7604" stop-color="#00C4E0"/>
<stop offset="1" stop-color="#00C7E0"/>
</linearGradient>
<linearGradient id="paint6_linear_2697_1171" x1="44.7374" y1="26.489" x2="12.7428" y2="26.489" gradientUnits="userSpaceOnUse">
<stop stop-color="#E0C500"/>
<stop offset="0.4087" stop-color="#E0A600"/>
<stop offset="0.7754" stop-color="#E09100"/>
<stop offset="1" stop-color="#E08900"/>
</linearGradient>
<linearGradient id="paint7_linear_2697_1171" x1="44.7374" y1="26.4906" x2="12.7429" y2="26.4906" gradientUnits="userSpaceOnUse">
<stop stop-color="#FFE840"/>
<stop offset="0.4087" stop-color="#FFCE40"/>
<stop offset="0.7754" stop-color="#FFBC40"/>
<stop offset="1" stop-color="#FFB540"/>
</linearGradient>
<linearGradient id="paint8_linear_2697_1171" x1="15.355" y1="11.5566" x2="3.37529" y2="23.0359" gradientUnits="userSpaceOnUse">
<stop stop-color="#40B8FF"/>
<stop offset="0.00657" stop-color="#40B9FF"/>
<stop offset="0.2601" stop-color="#40CEFF"/>
<stop offset="0.5122" stop-color="#40DDFF"/>
<stop offset="0.7604" stop-color="#40E7FF"/>
<stop offset="1" stop-color="#40EAFF"/>
</linearGradient>
<linearGradient id="paint9_linear_2697_1171" x1="9.6486" y1="11.1164" x2="18.2042" y2="19.6859" gradientUnits="userSpaceOnUse">
<stop stop-color="#65B895"/>
<stop offset="0.0685" stop-color="#62BD95"/>
<stop offset="0.4762" stop-color="#50DB97"/>
<stop offset="0.8009" stop-color="#44ED98"/>
<stop offset="1" stop-color="#40F498"/>
</linearGradient>
</defs>
</svg>
