<svg width="13" height="13" viewBox="0 0 13 13" fill="none" xmlns="http://www.w3.org/2000/svg">
<path opacity="0.87" d="M6.58289 3.07962C4.78925 3.07962 3.3425 4.5267 3.3425 6.32074C3.3425 8.11477 4.78925 9.56185 6.58289 9.56185C8.37653 9.56185 9.82328 8.11477 9.82328 6.32074C9.82328 4.5267 8.37653 3.07962 6.58289 3.07962ZM6.58289 8.42789C5.42379 8.42789 4.47621 7.48291 4.47621 6.32074C4.47621 5.15856 5.42097 4.21359 6.58289 4.21359C7.74481 4.21359 8.68957 5.15856 8.68957 6.32074C8.68957 7.48291 7.74198 8.42789 6.58289 8.42789ZM10.7116 2.94704C10.7116 3.36735 10.3732 3.70302 9.95583 3.70302C9.53562 3.70302 9.20002 3.36453 9.20002 2.94704C9.20002 2.52956 9.53844 2.19107 9.95583 2.19107C10.3732 2.19107 10.7116 2.52956 10.7116 2.94704ZM12.8578 3.71431C12.8099 2.70163 12.5786 1.80462 11.8369 1.06556C11.098 0.326509 10.2012 0.0952024 9.18874 0.0444278C8.14527 -0.0148093 5.01769 -0.0148093 3.97422 0.0444278C2.96459 0.0923816 2.06778 0.323688 1.32607 1.06274C0.584358 1.80179 0.355923 2.69881 0.30516 3.71148C0.245936 4.75519 0.245936 7.88347 0.30516 8.92717C0.353103 9.93984 0.584358 10.8369 1.32607 11.5759C2.06778 12.315 2.96177 12.5463 3.97422 12.597C5.01769 12.6563 8.14527 12.6563 9.18874 12.597C10.2012 12.5491 11.098 12.3178 11.8369 11.5759C12.5758 10.8369 12.807 9.93984 12.8578 8.92717C12.917 7.88347 12.917 4.75801 12.8578 3.71431ZM11.5098 10.047C11.2898 10.5999 10.8639 11.0259 10.3084 11.2487C9.4764 11.5787 7.50227 11.5026 6.58289 11.5026C5.66351 11.5026 3.68656 11.5759 2.85743 11.2487C2.30467 11.0287 1.87882 10.6027 1.65603 10.047C1.32607 9.21489 1.40221 7.24032 1.40221 6.32074C1.40221 5.40115 1.32889 3.42376 1.65603 2.59444C1.876 2.04156 2.30185 1.61562 2.85743 1.39278C3.68938 1.06274 5.66351 1.1389 6.58289 1.1389C7.50227 1.1389 9.47922 1.06556 10.3084 1.39278C10.8611 1.6128 11.287 2.03874 11.5098 2.59444C11.8397 3.42658 11.7636 5.40115 11.7636 6.32074C11.7636 7.24032 11.8397 9.21771 11.5098 10.047Z" fill="#39AE56"/>
</svg>
