<svg xmlns="http://www.w3.org/2000/svg" fill="none" viewBox="42.54 40.49 179 52">
<g filter="url(#filter0_d_2697_1200)">
<rect x="42.542" y="40.49" width="179" height="52" rx="6" fill="#060505"/>
<rect x="43.292" y="41.24" width="177.5" height="50.5" rx="5.25" stroke="#989898" stroke-width="1.5"/>
</g>
<path d="M96.702 59.49V55.782C96.702 54.57 96.678 53.682 96.618 53.262L99.138 59.49H100.242L102.774 53.238C102.714 53.85 102.702 54.438 102.702 56.058V59.49H103.854V50.814H102.678L99.69 58.11L96.702 50.814H95.55V59.49H96.702ZM107.098 59.634C108.046 59.634 108.85 59.214 109.15 58.542L109.27 59.49H110.23V55.806C110.23 54.222 109.246 53.454 107.794 53.454C106.282 53.454 105.274 54.258 105.274 55.482H106.258C106.258 54.774 106.798 54.354 107.746 54.354C108.538 54.354 109.126 54.702 109.126 55.686V55.854L107.278 55.998C105.898 56.106 105.094 56.778 105.094 57.858C105.094 58.926 105.838 59.634 107.098 59.634ZM107.422 58.758C106.69 58.758 106.234 58.446 106.234 57.822C106.234 57.246 106.642 56.862 107.638 56.766L109.138 56.646V56.958C109.138 58.062 108.49 58.758 107.422 58.758ZM112.62 59.49V56.382C112.62 55.242 113.232 54.486 114.288 54.486C115.152 54.486 115.704 54.966 115.704 56.154V59.49H116.832V55.902C116.832 54.402 116.124 53.454 114.576 53.454C113.748 53.454 113.004 53.85 112.632 54.522L112.512 53.622H111.492V59.49H112.62ZM119.811 59.634C120.759 59.634 121.563 59.214 121.863 58.542L121.983 59.49H122.943V55.806C122.943 54.222 121.959 53.454 120.507 53.454C118.995 53.454 117.987 54.258 117.987 55.482H118.971C118.971 54.774 119.511 54.354 120.459 54.354C121.251 54.354 121.839 54.702 121.839 55.686V55.854L119.991 55.998C118.611 56.106 117.807 56.778 117.807 57.858C117.807 58.926 118.551 59.634 119.811 59.634ZM120.135 58.758C119.403 58.758 118.947 58.446 118.947 57.822C118.947 57.246 119.355 56.862 120.351 56.766L121.851 56.646V56.958C121.851 58.062 121.203 58.758 120.135 58.758ZM123.833 56.406C123.833 58.05 124.889 59.334 126.557 59.334C127.481 59.334 128.249 58.926 128.633 58.242V59.418C128.633 60.534 127.913 61.254 126.809 61.254C125.825 61.254 125.177 60.75 125.033 59.886H123.905C124.121 61.374 125.213 62.274 126.809 62.274C128.609 62.274 129.749 61.098 129.749 59.25V53.622H128.741L128.657 54.618C128.285 53.886 127.553 53.454 126.605 53.454C124.901 53.454 123.833 54.75 123.833 56.406ZM124.961 56.382C124.961 55.302 125.633 54.438 126.761 54.438C127.913 54.438 128.585 55.254 128.585 56.382C128.585 57.534 127.889 58.35 126.749 58.35C125.645 58.35 124.961 57.486 124.961 56.382ZM133.609 59.634C135.061 59.634 136.045 58.926 136.333 57.666H135.277C135.085 58.338 134.509 58.698 133.633 58.698C132.517 58.698 131.869 58.014 131.785 56.778L136.321 56.766V56.346C136.321 54.606 135.229 53.454 133.561 53.454C131.857 53.454 130.693 54.726 130.693 56.562C130.693 58.386 131.881 59.634 133.609 59.634ZM133.561 54.402C134.557 54.402 135.193 55.05 135.193 56.022H131.809C131.953 54.99 132.577 54.402 133.561 54.402ZM139.878 56.55C139.878 58.362 141.174 59.634 142.938 59.634C144.69 59.634 145.986 58.362 145.986 56.55C145.986 54.738 144.69 53.466 142.938 53.466C141.174 53.466 139.878 54.738 139.878 56.55ZM141.018 56.55C141.018 55.326 141.798 54.474 142.938 54.474C144.066 54.474 144.858 55.326 144.858 56.55C144.858 57.774 144.066 58.626 142.938 58.626C141.798 58.626 141.018 57.774 141.018 56.55ZM148.063 59.49V56.382C148.063 55.242 148.675 54.486 149.731 54.486C150.595 54.486 151.147 54.966 151.147 56.154V59.49H152.275V55.902C152.275 54.402 151.567 53.454 150.019 53.454C149.191 53.454 148.447 53.85 148.075 54.522L147.955 53.622H146.935V59.49H148.063ZM158.174 59.49V54.57H159.326V53.622H158.174V51.786H157.046V53.622H155.894V54.57H157.046V59.49H158.174ZM161.166 59.478V56.286C161.166 55.278 161.754 54.486 162.846 54.486C163.686 54.486 164.25 54.966 164.25 56.154V59.49H165.378V55.902C165.378 54.402 164.658 53.454 163.158 53.454C162.246 53.454 161.538 53.886 161.166 54.522V50.658H160.038V59.478H161.166ZM169.173 59.634C170.625 59.634 171.609 58.926 171.897 57.666H170.841C170.649 58.338 170.073 58.698 169.197 58.698C168.081 58.698 167.433 58.014 167.349 56.778L171.885 56.766V56.346C171.885 54.606 170.793 53.454 169.125 53.454C167.421 53.454 166.257 54.726 166.257 56.562C166.257 58.386 167.445 59.634 169.173 59.634ZM169.125 54.402C170.121 54.402 170.757 55.05 170.757 56.022H167.373C167.517 54.99 168.141 54.402 169.125 54.402Z" fill="white"/>
<path d="M101.11 81.49C105.774 81.49 108.986 78.212 108.986 73.482C108.986 68.686 105.708 65.408 100.956 65.408H95.324V81.49H101.11ZM100.692 68.004C104.014 68.004 106.016 70.072 106.016 73.482C106.016 76.826 104.058 78.894 100.846 78.894H98.14V68.004H100.692ZM114.147 81.776C115.841 81.776 117.315 81.006 117.777 79.884L117.975 81.49H120.329V74.89C120.329 71.876 118.525 70.292 115.599 70.292C112.651 70.292 110.715 71.832 110.715 74.186H113.003C113.003 73.042 113.883 72.382 115.467 72.382C116.831 72.382 117.711 72.976 117.711 74.45V74.692L114.455 74.934C111.881 75.132 110.429 76.386 110.429 78.388C110.429 80.434 111.837 81.776 114.147 81.776ZM115.027 79.752C113.817 79.752 113.157 79.268 113.157 78.278C113.157 77.398 113.795 76.848 115.467 76.694L117.733 76.518V77.09C117.733 78.762 116.677 79.752 115.027 79.752ZM121.83 78.19C121.83 80.324 123.546 81.776 126.252 81.776C128.936 81.776 130.806 80.412 130.806 78.212C130.806 76.54 129.882 75.704 128.056 75.286L126.098 74.824C125.174 74.604 124.69 74.208 124.69 73.592C124.69 72.778 125.306 72.294 126.362 72.294C127.396 72.294 128.012 72.888 128.034 73.812H130.586C130.564 71.7 128.914 70.292 126.472 70.292C123.964 70.292 122.16 71.568 122.16 73.702C122.16 75.44 123.106 76.364 125.064 76.804L127.022 77.266C127.99 77.486 128.276 77.882 128.276 78.432C128.276 79.224 127.594 79.73 126.34 79.73C125.108 79.73 124.404 79.136 124.382 78.19H121.83ZM135.233 81.49V75.55C135.233 73.922 136.223 72.734 137.917 72.734C139.281 72.734 140.183 73.614 140.183 75.44V81.49H142.867V74.802C142.867 71.986 141.459 70.292 138.775 70.292C137.213 70.292 135.937 70.974 135.255 72.03V65.122H132.549V81.49H135.233ZM147.691 81.49L147.867 79.796C148.505 81.05 149.891 81.776 151.519 81.776C154.643 81.776 156.689 79.466 156.689 76.122C156.689 72.69 154.797 70.27 151.695 70.27C150.045 70.27 148.593 70.996 147.889 72.206V65.122H145.205V81.49H147.691ZM147.911 76.012C147.911 74.054 149.121 72.69 150.969 72.69C152.861 72.69 153.983 74.076 153.983 76.012C153.983 77.948 152.861 79.312 150.969 79.312C149.121 79.312 147.911 77.97 147.911 76.012ZM157.888 76.034C157.888 79.422 160.33 81.754 163.696 81.754C167.062 81.754 169.504 79.422 169.504 76.034C169.504 72.646 167.062 70.314 163.696 70.314C160.33 70.314 157.888 72.646 157.888 76.034ZM160.572 76.034C160.572 74.054 161.848 72.712 163.696 72.712C165.544 72.712 166.82 74.054 166.82 76.034C166.82 78.014 165.544 79.356 163.696 79.356C161.848 79.356 160.572 78.014 160.572 76.034ZM174.565 81.776C176.259 81.776 177.733 81.006 178.195 79.884L178.393 81.49H180.747V74.89C180.747 71.876 178.943 70.292 176.017 70.292C173.069 70.292 171.133 71.832 171.133 74.186H173.421C173.421 73.042 174.301 72.382 175.885 72.382C177.249 72.382 178.129 72.976 178.129 74.45V74.692L174.873 74.934C172.299 75.132 170.847 76.386 170.847 78.388C170.847 80.434 172.255 81.776 174.565 81.776ZM175.445 79.752C174.235 79.752 173.575 79.268 173.575 78.278C173.575 77.398 174.213 76.848 175.885 76.694L178.151 76.518V77.09C178.151 78.762 177.095 79.752 175.445 79.752ZM189.904 70.578C189.464 70.468 189.09 70.424 188.716 70.424C187.264 70.424 186.23 71.15 185.768 72.228L185.614 70.644H183.084V81.49H185.768V76.21C185.768 74.098 186.978 73.064 188.914 73.064H189.904V70.578ZM195.521 81.776C197.171 81.776 198.579 81.05 199.239 79.796L199.415 81.49H201.879V65.122H199.217V72.008C198.535 70.93 197.193 70.292 195.675 70.292C192.397 70.292 190.417 72.712 190.417 76.1C190.417 79.466 192.375 81.776 195.521 81.776ZM196.115 79.312C194.245 79.312 193.101 77.948 193.101 76.012C193.101 74.076 194.245 72.69 196.115 72.69C197.985 72.69 199.195 74.054 199.195 76.012C199.195 77.97 197.985 79.312 196.115 79.312Z" fill="white"/>
<path d="M75.3135 82.8343V74.5974L83.0542 70.3301V78.4677L75.3135 82.8343Z" fill="#BB6A37"/>
<path fill-rule="evenodd" clip-rule="evenodd" d="M58.542 56.6352L71.0462 49.49L83.0541 56.6352V67.6508L75.115 72.1166H66.2827V82.8345L58.542 78.4679V56.6352ZM66.2828 61.2004L70.8478 58.521L75.3136 61.2004V67.8495H66.2828V61.2004Z" fill="#BB6A37"/>
<defs>
<filter id="filter0_d_2697_1200" x="0.541992" y="0.48999" width="263" height="136" filterUnits="userSpaceOnUse" color-interpolation-filters="sRGB">
<feFlood flood-opacity="0" result="BackgroundImageFix"/>
<feColorMatrix in="SourceAlpha" type="matrix" values="0 0 0 0 0 0 0 0 0 0 0 0 0 0 0 0 0 0 127 0" result="hardAlpha"/>
<feOffset dy="2"/>
<feGaussianBlur stdDeviation="21"/>
<feComposite in2="hardAlpha" operator="out"/>
<feColorMatrix type="matrix" values="0 0 0 0 0.733333 0 0 0 0 0.415686 0 0 0 0 0.215686 0 0 0 0.08 0"/>
<feBlend mode="normal" in2="BackgroundImageFix" result="effect1_dropShadow_2697_1200"/>
<feBlend mode="normal" in="SourceGraphic" in2="effect1_dropShadow_2697_1200" result="shape"/>
</filter>
</defs>
</svg>