<svg width="65" height="68" viewBox="0 0 65 68" fill="none" xmlns="http://www.w3.org/2000/svg">
<mask id="path-1-inside-1_2023_139" fill="white">
<path d="M-0.000381589 34.1357C-0.000381589 15.6342 14.5504 0.635734 32.4996 0.635734C50.4489 0.635734 64.9996 15.6342 64.9996 34.1357C64.9996 52.6373 50.4489 67.6357 32.4996 67.6357C14.5504 67.6357 -0.000381589 52.6373 -0.000381589 34.1357ZM61.7496 34.1357C61.7496 17.4843 48.654 3.98573 32.4996 3.98573C16.3453 3.98573 3.24962 17.4843 3.24962 34.1357C3.24962 50.7871 16.3453 64.2857 32.4996 64.2857C48.654 64.2857 61.7496 50.7871 61.7496 34.1357Z"/>
</mask>
<path d="M-0.000381589 34.1357C-0.000381589 15.6342 14.5504 0.635734 32.4996 0.635734C50.4489 0.635734 64.9996 15.6342 64.9996 34.1357C64.9996 52.6373 50.4489 67.6357 32.4996 67.6357C14.5504 67.6357 -0.000381589 52.6373 -0.000381589 34.1357ZM61.7496 34.1357C61.7496 17.4843 48.654 3.98573 32.4996 3.98573C16.3453 3.98573 3.24962 17.4843 3.24962 34.1357C3.24962 50.7871 16.3453 64.2857 32.4996 64.2857C48.654 64.2857 61.7496 50.7871 61.7496 34.1357Z" stroke="#39AE56" stroke-width="10" mask="url(#path-1-inside-1_2023_139)"/>
<path opacity="0.963" d="M28.7215 39.0469L42.1916 25.4942C42.589 25.196 43.0168 25.0125 43.4772 24.9397C44.4759 25.1278 45.0772 25.4974 45.3653 25.9989C45.6524 26.4984 45.67 27.2008 45.3342 28.1533C40.2998 33.3303 35.2253 38.4732 30.1107 43.5819C29.6448 43.9605 29.1846 44.1548 28.7279 44.1876C28.276 44.22 27.8022 44.0963 27.3013 43.795L19.8994 36.3477C19.5171 35.7704 19.3722 35.2397 19.4284 34.7476C19.4844 34.2561 19.7453 33.7648 20.2484 33.274C21.0396 32.8205 21.8216 32.819 22.6285 33.2734L25.4857 36.1481L28.3668 39.0469L28.5442 39.2253L28.7215 39.0469Z" fill="#39AE56" stroke="white" stroke-width="0.5"/>
</svg>
