<svg width="177" height="52" viewBox="0 0 177 52" fill="none" xmlns="http://www.w3.org/2000/svg">
<rect x="0.75" y="0.75" width="175.5" height="50.5" rx="5.25" stroke="#A6A6A6" stroke-width="1.5"/>
<path d="M38.3813 25.0352C38.3427 20.7507 41.8903 18.6663 42.0526 18.5693C40.0434 15.6407 36.9292 15.2406 35.8349 15.2087C33.2194 14.9335 30.6824 16.7733 29.35 16.7733C27.9911 16.7733 25.9393 15.2353 23.7281 15.2805C20.8825 15.3243 18.2205 16.9714 16.7605 19.529C13.7474 24.744 15.9946 32.4077 18.8813 36.623C20.3254 38.6888 22.0128 40.9926 24.2214 40.9115C26.3821 40.8237 27.1892 39.5356 29.7968 39.5356C32.3804 39.5356 33.1383 40.9115 35.3908 40.8596C37.7098 40.8237 39.1698 38.7859 40.5633 36.7028C42.2321 34.3379 42.9022 32.0062 42.9288 31.8866C42.8756 31.868 38.4265 30.1691 38.3813 25.0352V25.0352ZM34.1263 12.4357C35.2884 10.9827 36.0836 9.00597 35.8628 7C34.1808 7.07444 32.0772 8.16317 30.8658 9.58424C29.7941 10.8365 28.8367 12.889 29.0841 14.8192C30.9736 14.9601 32.9136 13.866 34.1263 12.4357V12.4357Z" fill="white"/>
<path d="M69.6784 40.6149H66.6586L65.0045 35.4185H59.2549L57.6792 40.6149H54.7393L60.437 22.924H63.9554L69.6784 40.6149V40.6149ZM64.5059 33.2383L63.0099 28.6189C62.8517 28.147 62.5539 27.0356 62.1177 25.2862H62.0645C61.889 26.0386 61.6084 27.15 61.2242 28.6189L59.7535 33.2383H64.5059ZM84.3023 34.0798C84.3023 36.2493 83.7133 37.9642 82.5338 39.223C81.4781 40.3437 80.1656 40.9033 78.6006 40.9033C76.9106 40.9033 75.6952 40.3011 74.9572 39.0941V45.7873H72.1223V32.0512C72.1223 30.6887 72.0864 29.2915 72.0173 27.8585H74.5105L74.6687 29.8804H74.7219C75.6673 28.357 77.102 27.5953 79.0274 27.5953C80.5326 27.5953 81.7892 28.1895 82.7944 29.3793C83.7984 30.5717 84.3023 32.1376 84.3023 34.0798ZM81.4142 34.1835C81.4142 32.9419 81.135 31.9183 80.5739 31.1114C79.9609 30.2726 79.1378 29.8525 78.1059 29.8525C77.4065 29.8525 76.7709 30.0865 76.2032 30.5478C75.634 31.013 75.2617 31.6205 75.0875 32.3729C75.0098 32.6543 74.9656 32.9439 74.9559 33.2357V35.364C74.9559 36.2905 75.2405 37.0735 75.8096 37.7142C76.3787 38.3523 77.118 38.6727 78.0275 38.6727C79.0952 38.6727 79.9263 38.2593 80.5207 37.4391C81.1164 36.6162 81.4142 35.5315 81.4142 34.1835V34.1835ZM98.9781 34.0798C98.9781 36.2493 98.3891 37.9642 97.2097 39.223C96.1525 40.3437 94.8415 40.9033 93.2751 40.9033C91.5851 40.9033 90.3697 40.3011 89.6317 39.0941V45.7873H86.7968V32.0512C86.7968 30.6887 86.7609 29.2915 86.6918 27.8585H89.1849L89.3432 29.8804H89.3964C90.3405 28.357 91.7752 27.5953 93.7019 27.5953C95.2058 27.5953 96.4624 28.1895 97.4703 29.3793C98.4729 30.5717 98.9781 32.1376 98.9781 34.0798V34.0798ZM96.0887 34.1835C96.0887 32.9419 95.8081 31.9183 95.247 31.1114C94.634 30.2726 93.8136 29.8525 92.7818 29.8525C92.0824 29.8525 91.4468 30.0865 90.8763 30.5478C90.3072 31.013 89.9362 31.6205 89.762 32.3729C89.6756 32.7239 89.6291 33.0097 89.6291 33.2357V35.364C89.6291 36.2905 89.9149 37.0735 90.4814 37.7142C91.0505 38.351 91.7898 38.6727 92.702 38.6727C93.7711 38.6727 94.6021 38.2593 95.1952 37.4391C95.7909 36.6162 96.0887 35.5315 96.0887 34.1835V34.1835ZM115.387 35.6524C115.387 37.1586 114.86 38.3829 113.814 39.3281C112.662 40.3596 111.054 40.8767 108.993 40.8767C107.089 40.8767 105.563 40.5098 104.411 39.7747L105.067 37.4125C106.31 38.1489 107.676 38.5158 109.162 38.5158C110.231 38.5158 111.062 38.2739 111.655 37.794C112.25 37.3128 112.55 36.6694 112.55 35.8664C112.55 35.1473 112.302 34.5451 111.814 34.0546C111.323 33.5654 110.512 33.1094 109.372 32.6907C106.274 31.5355 104.724 29.8459 104.724 27.6232C104.724 26.1716 105.272 24.9831 106.365 24.0539C107.458 23.126 108.907 22.6621 110.71 22.6621C112.32 22.6621 113.662 22.9426 114.727 23.5023L114.016 25.8126C113.013 25.2703 111.881 24.9991 110.616 24.9991C109.616 24.9991 108.831 25.245 108.27 25.7342C107.798 26.1716 107.559 26.7046 107.559 27.3374C107.559 28.0353 107.831 28.6149 108.374 29.0695C108.844 29.4883 109.703 29.9442 110.945 30.4334C112.469 31.0476 113.589 31.7628 114.306 32.5843C115.028 33.4058 115.387 34.4308 115.387 35.6524ZM124.783 29.9854H121.659V36.1788C121.659 37.7541 122.209 38.5398 123.313 38.5398C123.819 38.5398 124.24 38.4972 124.572 38.4082L124.651 40.5604C124.092 40.7691 123.357 40.8741 122.446 40.8741C121.326 40.8741 120.451 40.5324 119.82 39.8492C119.191 39.1659 118.874 38.0213 118.874 36.4102V29.9801H117.013V27.8532H118.874V25.5175L121.659 24.6774V27.8532H124.783V29.9854V29.9854ZM138.854 34.1317C138.854 36.0924 138.293 37.7023 137.174 38.9612C136.002 40.2573 134.444 40.9033 132.501 40.9033C130.626 40.9033 129.136 40.2825 128.024 39.0422C126.912 37.7993 126.357 36.2333 126.357 34.3444C126.357 32.3676 126.931 30.7485 128.076 29.4896C129.223 28.2294 130.768 27.5993 132.711 27.5993C134.583 27.5993 136.087 28.2214 137.225 29.463C138.313 30.6674 138.854 32.2227 138.854 34.1317ZM135.916 34.1968C135.916 33.0283 135.663 32.026 135.156 31.1872C134.562 30.1742 133.711 29.6677 132.609 29.6677C131.473 29.6677 130.602 30.1742 130.009 31.1872C129.501 32.026 129.249 33.0456 129.249 34.25C129.249 35.4198 129.501 36.4248 130.009 37.2609C130.622 38.2739 131.477 38.7804 132.585 38.7804C133.668 38.7804 134.518 38.2633 135.132 37.2357C135.654 36.3769 135.916 35.3679 135.916 34.1968ZM148.073 30.351C147.778 30.2978 147.479 30.2715 147.179 30.2726C146.182 30.2726 145.411 30.6475 144.868 31.4025C144.398 32.0672 144.161 32.9073 144.161 33.9216V40.6149H141.326V31.8758C141.329 30.5367 141.301 29.1977 141.244 27.8598H143.713L143.817 30.3005H143.895C144.196 29.4617 144.666 28.7851 145.313 28.2786C145.904 27.836 146.623 27.5963 147.362 27.5953C147.624 27.5953 147.86 27.6139 148.07 27.6471L148.073 30.351V30.351ZM160.752 33.6332C160.759 34.064 160.724 34.4945 160.648 34.9186H152.143C152.175 36.1788 152.587 37.1439 153.377 37.8086C154.094 38.4015 155.021 38.6993 156.159 38.6993C157.418 38.6993 158.567 38.4999 159.6 38.0971L160.044 40.0632C158.837 40.5896 157.411 40.8515 155.767 40.8515C153.788 40.8515 152.235 40.2692 151.105 39.1074C149.977 37.9442 149.412 36.3809 149.412 34.4228C149.412 32.5006 149.937 30.8987 150.989 29.6212C152.09 28.2573 153.578 27.5754 155.45 27.5754C157.289 27.5754 158.681 28.2573 159.627 29.6212C160.375 30.702 160.752 32.0419 160.752 33.6332V33.6332ZM158.048 32.898C158.068 32.0566 157.882 31.3321 157.498 30.7192C157.007 29.9296 156.252 29.5361 155.24 29.5361C154.313 29.5361 153.558 29.9203 152.984 30.6913C152.512 31.3042 152.231 32.0406 152.145 32.8954L158.048 32.898Z" fill="white"/>
<path d="M58.4373 16.6697C57.6488 16.6697 56.9667 16.6312 56.3989 16.5661V8.01308C57.193 7.89044 57.9955 7.82999 58.799 7.83229C62.0501 7.83229 63.5474 9.43148 63.5474 12.0383C63.5474 15.0453 61.7789 16.6697 58.4373 16.6697ZM58.9134 8.92899C58.4746 8.92899 58.1009 8.95558 57.7911 9.01939V15.5212C57.9587 15.5478 58.2804 15.5597 58.7325 15.5597C60.8627 15.5597 62.0754 14.3474 62.0754 12.0769C62.0754 10.0523 60.9784 8.92899 58.9134 8.92899V8.92899ZM68.2132 16.7349C66.3809 16.7349 65.1935 15.367 65.1935 13.5099C65.1935 11.5744 66.4062 10.1945 68.317 10.1945C70.1227 10.1945 71.3367 11.4973 71.3367 13.4075C71.3367 15.367 70.0855 16.7349 68.2132 16.7349ZM68.2664 11.2128C67.2599 11.2128 66.615 12.154 66.615 13.47C66.615 14.7608 67.2731 15.702 68.2531 15.702C69.2331 15.702 69.8913 14.6957 69.8913 13.4434C69.8913 12.1673 69.2464 11.2128 68.2664 11.2128ZM81.7854 10.3235L79.8241 16.5926H78.5463L77.7338 13.8702C77.5318 13.2042 77.3636 12.5285 77.2299 11.8456H77.2033C77.1009 12.5288 76.9068 13.2135 76.7007 13.8702L75.8364 16.5926H74.5452L72.6996 10.3235H74.1317L74.8418 13.3039C75.0093 14.0137 75.1503 14.6837 75.2673 15.3165H75.2939C75.3962 14.7887 75.5638 14.1294 75.8098 13.3171L76.7007 10.3248H77.8362L78.6886 13.2533C78.8947 13.9632 79.0622 14.6598 79.1925 15.3178H79.2297C79.3202 14.6731 79.4624 13.9885 79.6553 13.2533L80.4172 10.3248L81.7854 10.3235V10.3235ZM89.0056 16.5926H87.6121V12.9928C87.6121 11.8841 87.1866 11.3285 86.3476 11.3285C85.5219 11.3285 84.9541 12.0383 84.9541 12.8638V16.5926H83.5606V12.1154C83.5606 11.5611 83.5473 10.9669 83.5087 10.3221H84.7347L84.7998 11.2899H84.8384C85.2134 10.6199 85.9739 10.1945 86.8263 10.1945C88.1427 10.1945 89.007 11.2008 89.007 12.8386L89.0056 16.5926V16.5926ZM92.8485 16.5926H91.4536V7.44678H92.8485V16.5926ZM97.9292 16.7349C96.0982 16.7349 94.9095 15.367 94.9095 13.5099C94.9095 11.5744 96.1222 10.1945 98.0316 10.1945C99.8387 10.1945 101.051 11.4973 101.051 13.4075C101.053 15.367 99.8001 16.7349 97.9292 16.7349ZM97.9811 11.2128C96.9745 11.2128 96.3296 12.154 96.3296 13.47C96.3296 14.7608 96.9891 15.702 97.9665 15.702C98.9478 15.702 99.6046 14.6957 99.6046 13.4434C99.606 12.1673 98.9624 11.2128 97.9811 11.2128V11.2128ZM106.546 16.5926L106.445 15.8708H106.407C105.982 16.4517 105.361 16.7349 104.574 16.7349C103.45 16.7349 102.652 15.9479 102.652 14.8898C102.652 13.3424 103.994 12.5421 106.317 12.5421V12.4265C106.317 11.601 105.879 11.1875 105.015 11.1875C104.397 11.1875 103.854 11.3431 103.377 11.6528L103.094 10.7369C103.673 10.3753 104.397 10.1945 105.247 10.1945C106.885 10.1945 107.712 11.0586 107.712 12.7881V15.0971C107.712 15.7299 107.74 16.2204 107.802 16.594L106.546 16.5926V16.5926ZM106.354 13.47C104.806 13.47 104.03 13.8449 104.03 14.7342C104.03 15.3922 104.43 15.7139 104.986 15.7139C105.695 15.7139 106.354 15.1729 106.354 14.4378V13.47V13.47ZM114.479 16.5926L114.413 15.5863H114.375C113.975 16.3467 113.302 16.7349 112.362 16.7349C110.85 16.7349 109.73 15.4055 109.73 13.5352C109.73 11.5744 110.891 10.1932 112.476 10.1932C113.315 10.1932 113.909 10.4763 114.245 11.0453H114.272V7.44678H115.667V14.903C115.667 15.5092 115.682 16.0769 115.719 16.5926H114.479ZM114.272 12.9037C114.272 12.0264 113.691 11.2779 112.804 11.2779C111.771 11.2779 111.14 12.1939 111.14 13.4833C111.14 14.7475 111.795 15.6129 112.777 15.6129C113.653 15.6129 114.272 14.8512 114.272 13.9486V12.9037ZM124.511 16.7349C122.68 16.7349 121.493 15.367 121.493 13.5099C121.493 11.5744 122.705 10.1945 124.615 10.1945C126.422 10.1945 127.635 11.4973 127.635 13.4075C127.636 15.367 126.385 16.7349 124.511 16.7349ZM124.563 11.2128C123.558 11.2128 122.913 12.154 122.913 13.47C122.913 14.7608 123.571 15.702 124.55 15.702C125.531 15.702 126.188 14.6957 126.188 13.4434C126.191 12.1673 125.546 11.2128 124.563 11.2128ZM135.129 16.5926H133.734V12.9928C133.734 11.8841 133.308 11.3285 132.469 11.3285C131.644 11.3285 131.077 12.0383 131.077 12.8638V16.5926H129.682V12.1154C129.682 11.5611 129.669 10.9669 129.63 10.3221H130.856L130.922 11.2899H130.96C131.334 10.6199 132.096 10.1932 132.947 10.1932C134.263 10.1932 135.129 11.1995 135.129 12.8373V16.5926ZM144.504 11.3683H142.971V14.4125C142.971 15.1875 143.24 15.5744 143.782 15.5744C144.028 15.5744 144.234 15.5478 144.401 15.5092L144.439 16.5674C144.169 16.6711 143.808 16.7229 143.358 16.7229C142.26 16.7229 141.603 16.1167 141.603 14.5295V11.3683H140.688V10.3235H141.603V9.17492L142.971 8.7615V10.3221H144.504V11.3683V11.3683ZM151.882 16.5926H150.489V13.0194C150.489 11.8974 150.065 11.3298 149.225 11.3298C148.503 11.3298 147.83 11.8203 147.83 12.8133V16.5926H146.438V7.44678H147.83V11.2128H147.858C148.297 10.5295 148.932 10.1932 149.743 10.1932C151.07 10.1932 151.882 11.2248 151.882 12.8638V16.5926V16.5926ZM159.439 13.793H155.258C155.284 14.9802 156.07 15.6501 157.234 15.6501C157.852 15.6501 158.421 15.5465 158.924 15.3537L159.14 16.3215C158.547 16.5793 157.849 16.7083 157.037 16.7083C155.075 16.7083 153.915 15.4693 153.915 13.5485C153.915 11.6262 155.103 10.1812 156.88 10.1812C158.482 10.1812 159.487 11.3683 159.487 13.1616C159.496 13.3732 159.48 13.5852 159.439 13.793V13.793ZM158.162 12.8C158.162 11.8323 157.674 11.149 156.783 11.149C155.982 11.149 155.349 11.8456 155.259 12.8H158.162V12.8Z" fill="white"/>
</svg>
