<svg width="177" height="52" viewBox="0 0 177 52" fill="none" xmlns="http://www.w3.org/2000/svg">
<rect x="0.75" y="0.75" width="175.5" height="50.5" rx="5.25" stroke="#A6A6A6" stroke-width="1.5"/>
<path d="M63.5133 12.6059C63.5133 13.7155 63.1853 14.5991 62.5283 15.2582C61.7819 16.042 60.8093 16.4342 59.6136 16.4342C58.4685 16.4342 57.4949 16.0369 56.6943 15.2411C55.8922 14.446 55.4919 13.46 55.4919 12.2835C55.4919 11.1065 55.8922 10.1211 56.6943 9.32531C57.4949 8.53022 58.4685 8.13232 59.6136 8.13232C60.1817 8.13232 60.7257 8.24363 61.2422 8.46558C61.7586 8.68807 62.1729 8.98342 62.4828 9.35328L61.7855 10.0522C61.2603 9.42364 60.5371 9.1096 59.6136 9.1096C58.7785 9.1096 58.0564 9.40352 57.4469 9.99171C56.8374 10.5805 56.5327 11.344 56.5327 12.2835C56.5327 13.2231 56.8374 13.9865 57.4469 14.5754C58.0564 15.1636 58.7784 15.4574 59.6136 15.4574C60.4995 15.4574 61.2381 15.162 61.8294 14.5702C62.2133 14.1847 62.4352 13.6488 62.4946 12.9607H59.6135V12.0062H63.458C63.4951 12.2138 63.5132 12.4129 63.5132 12.6059" fill="white"/>
<path d="M63.5129 12.606H63.3806C63.3796 13.6903 63.0634 14.5325 62.4343 15.1647L62.4329 15.1658L62.4323 15.1668C61.7097 15.9236 60.7809 16.3002 59.6131 16.3019C58.4986 16.3002 57.5657 15.9195 56.7868 15.1476C56.0095 14.3742 55.6252 13.43 55.6237 12.2836C55.6252 11.1367 56.0095 10.1931 56.7868 9.42018C57.5657 8.64777 58.4986 8.26648 59.6131 8.26487C60.1642 8.26487 60.689 8.37261 61.1895 8.58724C61.6905 8.80354 62.0862 9.08698 62.3811 9.43887L62.4824 9.3534L62.3889 9.25977L61.6916 9.95914L61.785 10.0523L61.8868 9.96754C61.3372 9.30786 60.5656 8.97532 59.6131 8.97728C58.747 8.97621 57.9852 9.2862 57.3549 9.89671C56.7187 10.5092 56.399 11.3157 56.4 12.2836C56.399 13.2516 56.7187 14.0581 57.3549 14.6706C57.9852 15.2811 58.747 15.591 59.6131 15.59C60.5283 15.5916 61.3084 15.2806 61.9224 14.6639C62.3325 14.2521 62.565 13.6815 62.626 12.9722L62.6383 12.8284H59.7453V12.1388H63.4575V12.0063L63.3273 12.0296C63.3635 12.2304 63.3806 12.4212 63.3806 12.606H63.645C63.645 12.4047 63.6264 12.1978 63.5877 11.9826L63.5681 11.8739H59.4809V13.0932H62.4942V12.9608L62.3625 12.9494C62.3042 13.6158 62.0924 14.1177 61.7355 14.4768C61.1673 15.0437 60.4701 15.3235 59.6131 15.3251C58.809 15.324 58.1267 15.0467 57.5384 14.4803C56.9558 13.9158 56.666 13.1952 56.6645 12.2836C56.666 11.3721 56.9558 10.6514 57.5384 10.087C58.1267 9.52053 58.8089 9.24322 59.6131 9.24215C60.5073 9.24429 61.1824 9.54017 61.6839 10.1377L61.7769 10.2484L62.5759 9.44708L62.6616 9.36125L62.5836 9.26852C62.2587 8.88062 61.8259 8.57272 61.2939 8.34415C60.7609 8.11488 60.1984 8 59.6131 8C58.4376 7.99899 57.4232 8.41284 56.6004 9.23185C55.7745 10.0493 55.3582 11.0767 55.3594 12.2836C55.3582 13.49 55.7745 14.5181 56.6009 15.3359C57.4232 16.1544 58.4376 16.5678 59.6131 16.5667C60.8373 16.5678 61.8528 16.1605 62.6234 15.3499L62.5278 15.2583L62.6213 15.352C63.3062 14.6665 63.646 13.7405 63.6451 12.606H63.5128M69.6075 9.28667H65.9946V11.8062H69.2528V12.7611H65.9946V15.2806H69.6075V16.2568H64.9761V8.31047H69.6075V9.28667" fill="white"/>
<path d="M69.6077 9.28638V9.15394H65.8625V11.9384H69.1207V12.628L65.8625 12.6283V15.4127H69.4754V16.1241H65.1084V8.4426H69.4754V9.28638H69.6077V9.15394V9.28638H69.7399V8.17773H64.844V16.3889H69.7399V15.1479H66.1269V12.8932H69.3851V11.6735H66.1269V9.41881H69.7399V9.28638H69.6077M73.9065 16.2566H72.8865V9.28632H70.6706V8.31011H76.1224V9.28632H73.9065V16.2564" fill="white"/>
<path d="M73.907 16.2566V16.1241H73.0191V9.15394H70.8033V8.44266H75.9906V9.15394H73.7748V16.2565H73.907V16.1241V16.2565H74.0392V9.41881H76.255V8.17773H70.5388V9.41875H72.7546V16.3889H74.0392V16.2564H73.907M80.0673 16.2566V8.31011H81.0864V16.2564H80.0673" fill="white"/>
<path d="M80.067 16.2566H80.1993V8.4426H80.9538V16.1241H80.067V16.2565H80.1993H80.067V16.3889H81.2183V8.17773H79.9348V16.3889H80.067V16.2565M85.608 16.2566H84.588V9.28632H82.3722V8.31011H87.8239V9.28632H85.608V16.2564" fill="white"/>
<path d="M85.6082 16.2567V16.1242H84.7204V9.15413H82.5047V8.44285H87.6918V9.15413H85.4761V16.2567H85.6082V16.1242V16.2567H85.7405V9.419H87.9563V8.17792H82.2402V9.41894H84.4559V16.3891H85.7405V16.2566H85.6082M93.0801 14.5646C93.6673 15.1599 94.3858 15.4574 95.2355 15.4574C96.0851 15.4574 96.804 15.1599 97.3903 14.5646C97.9781 13.9691 98.2725 13.2079 98.2725 12.2835C98.2725 11.3592 97.9781 10.598 97.3903 10.0025C96.804 9.40709 96.0851 9.1096 95.2355 9.1096C94.3858 9.1096 93.6673 9.40709 93.0801 10.0025C92.4938 10.598 92.1995 11.3591 92.1995 12.2835C92.1995 13.2079 92.4938 13.9691 93.0801 14.5646ZM98.1444 15.2298C97.3644 16.0331 96.3945 16.4342 95.2355 16.4342C94.0753 16.4342 93.1058 16.0331 92.3276 15.2298C91.547 14.4273 91.1587 13.445 91.1587 12.2835C91.1587 11.122 91.547 10.1396 92.3276 9.33727C93.1059 8.53374 94.0753 8.13232 95.2355 8.13232C96.3883 8.13232 97.3557 8.53588 98.1393 9.34245C98.9217 10.149 99.3133 11.1293 99.3133 12.2835C99.3133 13.445 98.9227 14.4273 98.1444 15.2298Z" fill="white"/>
<path d="M93.0797 14.5647L92.9857 14.6578C93.5947 15.277 94.3545 15.5916 95.2351 15.59C96.1152 15.5916 96.876 15.277 97.484 14.6578C98.097 14.0379 98.4053 13.236 98.4044 12.2836C98.4053 11.3313 98.097 10.5294 97.484 9.90951C96.876 9.29025 96.1152 8.97574 95.2351 8.97728C94.3545 8.97574 93.5947 9.29025 92.9857 9.90951C92.3742 10.5294 92.0652 11.3313 92.0669 12.2836C92.0652 13.236 92.3742 14.0379 92.9857 14.6578L93.0797 14.5647L93.1738 14.4715C92.6128 13.8998 92.3324 13.1807 92.3313 12.2836C92.3324 11.3866 92.6128 10.6675 93.1737 10.0957C93.7398 9.52417 94.4159 9.24376 95.2351 9.24221C96.0537 9.24376 96.7314 9.52417 97.296 10.0957C97.8579 10.6675 98.1384 11.3866 98.1394 12.2836C98.1384 13.1806 97.8579 13.8998 97.296 14.4715C96.7314 15.0432 96.0538 15.3235 95.2351 15.3251C94.4159 15.3235 93.7398 15.0432 93.1737 14.4715L93.0797 14.5647ZM98.144 15.2299L98.0495 15.1379C97.2913 15.9159 96.3642 16.3003 95.2351 16.3019C94.1055 16.3002 93.1784 15.9159 92.4216 15.1379L92.418 15.1337L92.4216 15.1379C91.665 14.3571 91.2916 13.4156 91.2906 12.2836C91.2916 11.1517 91.665 10.2101 92.4216 9.42947C93.1784 8.65134 94.1055 8.26648 95.2351 8.26493C96.3569 8.26648 97.2819 8.65295 98.0443 9.43512C98.8036 10.2194 99.1791 11.1595 99.1807 12.2836C99.1791 13.4156 98.8047 14.3571 98.0495 15.1379L98.144 15.2299L98.2391 15.3219C99.0407 14.4973 99.4461 13.4745 99.4452 12.2836C99.4461 11.0995 99.0391 10.0788 98.2339 9.25055C97.4282 8.41903 96.4189 7.99858 95.2351 8C94.0451 7.99858 93.0328 8.41707 92.2321 9.24537V9.24477C91.429 10.0699 91.0251 11.0927 91.0261 12.2836C91.0251 13.4745 91.429 14.4973 92.2321 15.3224L92.2357 15.3262L92.2321 15.3219C93.0328 16.1502 94.0451 16.5678 95.2351 16.5667C96.4246 16.5678 97.4369 16.1502 98.2391 15.3219L98.144 15.2299V15.2299ZM100.744 16.2569V8.31041H101.984L105.84 14.4921H105.884L105.84 12.9607V8.31041H106.86V16.2567H105.796L101.762 9.77546H101.718L101.762 11.3074V16.2567H100.744" fill="white"/>
<path d="M100.744 16.2566H100.876V8.4426H101.911L105.767 14.6243H106.02L105.972 12.9585V8.44266H106.728V16.1241H105.87L101.836 9.64279H101.583L101.63 11.3093V16.1241H100.744L100.744 16.2566L100.744 16.3889H101.894V11.305L101.851 9.77165L101.718 9.77523V9.90766H101.762V9.77523L101.65 9.84564L105.723 16.3889H106.992V8.17773H105.708V12.9621L105.752 14.4954L105.884 14.4919V14.3594H105.84V14.4919L105.952 14.4216L102.058 8.17773H100.612V16.3889H100.744L100.744 16.2566ZM142.21 38.7711H144.678V22.2147H142.21L142.21 38.7711ZM164.433 28.1787L161.605 35.3568H161.521L158.585 28.1787H155.927L160.329 38.2113L157.82 43.7919H160.394L167.177 28.1787L164.433 28.1787ZM150.441 36.8907C149.632 36.8907 148.506 36.4861 148.506 35.4845C148.506 34.2066 149.91 33.7168 151.121 33.7168C152.207 33.7168 152.716 33.951 153.376 34.2709C153.184 35.8042 151.865 36.8907 150.441 36.8907ZM150.739 27.8165C148.953 27.8165 147.103 28.6048 146.337 30.3515L148.527 31.2672C148.995 30.3515 149.866 30.0529 150.781 30.0529C152.057 30.0529 153.354 30.8202 153.376 32.1834V32.3536C152.929 32.098 151.973 31.7146 150.802 31.7146C148.442 31.7146 146.038 33.0136 146.038 35.442C146.038 37.6574 147.974 39.0846 150.143 39.0846C151.802 39.0846 152.716 38.3391 153.291 37.466H153.376V38.7438H155.757V32.3959C155.757 29.457 153.567 27.8165 150.739 27.8165ZM135.491 30.1941H131.981V24.519H135.491C137.335 24.519 138.382 26.0487 138.382 27.3565C138.382 28.6395 137.335 30.1941 135.491 30.1941ZM135.427 22.2147H129.515V38.7711H131.981V32.4984H135.427C138.162 32.4984 140.85 30.5154 140.85 27.3565C140.85 24.1977 138.162 22.2147 135.427 22.2147ZM103.189 36.8937C101.485 36.8937 100.058 35.4643 100.058 33.501C100.058 31.5171 101.485 30.0659 103.189 30.0659C104.872 30.0659 106.193 31.517 106.193 33.501C106.193 35.4643 104.872 36.8937 103.189 36.8937ZM106.022 29.1058H105.937C105.384 28.4445 104.318 27.8471 102.976 27.8471C100.164 27.8471 97.5869 30.322 97.5869 33.501C97.5869 36.6589 100.164 39.1126 102.976 39.1126C104.318 39.1126 105.384 38.515 105.937 37.8327H106.022V38.6433C106.022 40.7987 104.872 41.9508 103.019 41.9508C101.507 41.9508 100.569 40.8622 100.185 39.945L98.0342 40.841C98.6519 42.3345 100.292 44.1696 103.019 44.1696C105.916 44.1696 108.366 42.4623 108.366 38.3019V28.1885H106.022V29.1058ZM110.07 38.7711H112.541V22.2141H110.07V38.7711ZM116.184 33.3091C116.12 31.1326 117.866 30.0234 119.123 30.0234C120.104 30.0234 120.934 30.5139 121.21 31.2186L116.184 33.3091ZM123.852 31.4316C123.384 30.1724 121.956 27.8471 119.038 27.8471C116.141 27.8471 113.734 30.13 113.734 33.4798C113.734 36.6377 116.12 39.1126 119.315 39.1126C121.893 39.1126 123.384 37.5336 124.002 36.6163L122.084 35.3359C121.446 36.2749 120.572 36.8937 119.315 36.8937C118.058 36.8937 117.163 36.3174 116.588 35.1869L124.107 32.0716L123.852 31.4316ZM63.9433 29.5754V31.965H69.6521C69.4817 33.3091 69.0344 34.2905 68.3526 34.9733C67.5221 35.8057 66.2226 36.723 63.9433 36.723C60.4283 36.723 57.6806 33.8853 57.6806 30.3648C57.6806 26.8444 60.4283 24.0063 63.9433 24.0063C65.8393 24.0063 67.2235 24.7533 68.2462 25.7134L69.929 24.028C68.5019 22.6622 66.6058 21.6167 63.9433 21.6167C59.1289 21.6167 55.0815 25.5428 55.0815 30.3648C55.0815 35.1869 59.1289 39.1126 63.9433 39.1126C66.5423 39.1126 68.5019 38.2595 70.0354 36.6589C71.6119 35.0799 72.102 32.8611 72.102 31.069C72.102 30.5139 72.0596 30.0022 71.9739 29.5754H63.9433ZM78.5924 36.8937C76.8879 36.8937 75.418 35.4854 75.418 33.4798C75.418 31.4528 76.8879 30.0659 78.5924 30.0659C80.2963 30.0659 81.7662 31.4528 81.7662 33.4798C81.7662 35.4855 80.2963 36.8937 78.5924 36.8937ZM78.5924 27.8471C75.4819 27.8471 72.9469 30.2153 72.9469 33.4798C72.9469 36.723 75.4819 39.1126 78.5924 39.1126C81.7022 39.1126 84.2372 36.723 84.2372 33.4798C84.2372 30.2153 81.7022 27.8471 78.5924 27.8471ZM90.9068 36.8937C89.203 36.8937 87.7329 35.4854 87.7329 33.4798C87.7329 31.4528 89.203 30.0659 90.9068 30.0659C92.6108 30.0659 94.0808 31.4528 94.0808 33.4798C94.0808 35.4855 92.6108 36.8937 90.9068 36.8937ZM90.9068 27.8471C87.7965 27.8471 85.262 30.2153 85.262 33.4798C85.262 36.723 87.7965 39.1126 90.9068 39.1126C94.0168 39.1126 96.5518 36.723 96.5518 33.4798C96.5518 30.2153 94.0167 27.8471 90.9068 27.8471Z" fill="white"/>
<path d="M14.7086 10.1169C14.2649 10.5179 14 11.1868 14 12.0746V11.8739V41.1708V40.9779C14 41.7978 14.2272 42.431 14.6119 42.8387L14.7101 42.9329V42.9333C15.0216 43.2148 15.4209 43.3643 15.8786 43.3638C16.3257 43.3638 16.8289 43.221 17.3599 42.9195L36.5526 31.9968L43.1452 28.2445C43.9825 27.7681 44.4525 27.1535 44.5311 26.5275V26.5249C44.4525 25.8974 43.9825 25.2833 43.1453 24.8068L36.5521 21.055L17.3599 10.1324C16.8278 9.83034 16.3243 9.68701 15.8759 9.68701C15.4188 9.68701 15.02 9.83599 14.7087 10.1169H14.7086Z" fill="#00C1FF"/>
<path d="M14.7102 42.9336L14.6119 42.8394C14.2272 42.4317 14 41.7985 14 40.9786V41.1715V11.8818V12.0753C14 11.1875 14.2649 10.5186 14.7086 10.1176L31.0911 26.5261L14.7102 42.9336Z" fill="url(#paint0_linear_3536_207)"/>
<path d="M36.5529 31.9971L31.0913 26.5258L36.5524 21.0553L43.1455 24.8071C43.9827 25.2836 44.4528 25.8977 44.5313 26.5252V26.5277C44.4528 27.1538 43.9827 27.7684 43.1455 28.2448L36.5529 31.997" fill="url(#paint1_linear_3536_207)"/>
<path d="M15.8795 43.3643C15.4219 43.3647 15.0225 43.2152 14.7112 42.9337V42.9333L31.092 26.5259L36.5536 31.9972L17.3608 42.9199C16.8298 43.2215 16.3266 43.3643 15.8795 43.3643Z" fill="url(#paint2_linear_3536_207)"/>
<path d="M31.091 26.5273L14.7085 10.1188C15.0199 9.83786 15.4187 9.68888 15.8758 9.68888C16.3241 9.68888 16.8277 9.83214 17.3598 10.1343L36.552 21.0569L31.091 26.5273Z" fill="url(#paint3_linear_3536_207)"/>
<path d="M15.8791 43.561C15.4215 43.561 15.0216 43.4115 14.7102 43.1301L14.7097 43.1306C14.7084 43.1293 14.707 43.1281 14.7056 43.127L14.6204 43.0437C14.6177 43.0411 14.6152 43.038 14.6121 43.035L14.7103 42.9366C15.0217 43.218 15.421 43.3675 15.8787 43.367C16.3258 43.367 16.8289 43.2243 17.3599 42.9227L36.5527 32L36.6756 32.1232L36.5511 32.1941L17.3599 43.1161C16.876 43.3909 16.4157 43.5341 15.9999 43.558C15.9597 43.56 15.9194 43.561 15.8791 43.561" fill="url(#paint4_linear_3536_207)"/>
<path d="M14.6119 43.0347C14.2272 42.6269 14 41.9942 14 41.1738V40.9808C14 41.8007 14.2272 42.4339 14.6119 42.8417L14.7101 42.9359L14.6119 43.0347" fill="url(#paint5_linear_3536_207)"/>
<path d="M36.6757 32.1205L36.5527 31.9973L43.1453 28.2451C43.9826 27.7688 44.4526 27.1541 44.5312 26.528C44.5312 26.7578 44.48 26.9875 44.3784 27.2111C44.1732 27.6616 43.7622 28.0874 43.1454 28.4386L36.6757 32.1206" fill="url(#paint6_linear_3536_207)"/>
<path d="M44.5313 26.5273C44.4527 25.8998 43.9827 25.2857 43.1454 24.8092L36.5522 21.0575L36.6752 20.9342H36.6758L43.1454 24.6162C44.0685 25.1419 44.5307 25.8345 44.5313 26.5273" fill="url(#paint7_linear_3536_207)"/>
<path d="M14 12.0752V11.8728C14 11.7998 14.002 11.7285 14.0057 11.6592V11.656C14.0057 11.6551 14.0057 11.6541 14.0061 11.653V11.6452C14.0459 10.939 14.2649 10.3881 14.6119 10.0203L14.7086 10.1175C14.2649 10.5185 14 11.1874 14 12.0752Z" fill="url(#paint8_linear_3536_207)"/>
<path d="M36.5521 21.0552L17.3599 10.1324C16.8279 9.83035 16.3244 9.68708 15.876 9.68708C15.4189 9.68708 15.0201 9.83606 14.7087 10.117L14.6121 10.0197C14.6422 9.98774 14.6736 9.95686 14.7061 9.92719C14.7071 9.92612 14.7087 9.92505 14.7097 9.92403C15.0187 9.64524 15.4132 9.49626 15.8662 9.49358H15.876C16.3244 9.49358 16.8279 9.6369 17.3599 9.93909L36.6756 20.9316L36.6751 20.932L36.5521 21.0552" fill="url(#paint9_linear_3536_207)"/>
<defs>
<linearGradient id="paint0_linear_3536_207" x1="24.4694" y1="11.5723" x2="10.3514" y2="25.713" gradientUnits="userSpaceOnUse">
<stop stop-color="#00A0FF"/>
<stop offset="0.00657" stop-color="#00A1FF"/>
<stop offset="0.2601" stop-color="#00BEFF"/>
<stop offset="0.5122" stop-color="#00D2FF"/>
<stop offset="0.7604" stop-color="#00DFFF"/>
<stop offset="1" stop-color="#00E3FF"/>
</linearGradient>
<linearGradient id="paint1_linear_3536_207" x1="45.5514" y1="26.4312" x2="13.5569" y2="26.4312" gradientUnits="userSpaceOnUse">
<stop stop-color="#FFE000"/>
<stop offset="0.4087" stop-color="#FFBD00"/>
<stop offset="0.7754" stop-color="#FFA500"/>
<stop offset="1" stop-color="#FF9C00"/>
</linearGradient>
<linearGradient id="paint2_linear_3536_207" x1="33.654" y1="31.7278" x2="9.72998" y2="55.5153" gradientUnits="userSpaceOnUse">
<stop stop-color="#FF3A44"/>
<stop offset="1" stop-color="#C31162"/>
</linearGradient>
<linearGradient id="paint3_linear_3536_207" x1="10.4863" y1="7.68615" x2="21.1487" y2="18.304" gradientUnits="userSpaceOnUse">
<stop stop-color="#32A071"/>
<stop offset="0.0685" stop-color="#2DA771"/>
<stop offset="0.4762" stop-color="#15CF74"/>
<stop offset="0.8009" stop-color="#06E775"/>
<stop offset="1" stop-color="#00F076"/>
</linearGradient>
<linearGradient id="paint4_linear_3536_207" x1="33.6412" y1="35.5258" x2="14.4816" y2="54.7164" gradientUnits="userSpaceOnUse">
<stop stop-color="#CC2E36"/>
<stop offset="1" stop-color="#9C0E4E"/>
</linearGradient>
<linearGradient id="paint5_linear_3536_207" x1="16.1824" y1="11.5745" x2="3.74462" y2="24.0325" gradientUnits="userSpaceOnUse">
<stop stop-color="#008DE0"/>
<stop offset="0.00657" stop-color="#008DE0"/>
<stop offset="0.2601" stop-color="#00A7E0"/>
<stop offset="0.5122" stop-color="#00B8E0"/>
<stop offset="0.7604" stop-color="#00C4E0"/>
<stop offset="1" stop-color="#00C7E0"/>
</linearGradient>
<linearGradient id="paint6_linear_3536_207" x1="45.5513" y1="26.5268" x2="13.5568" y2="26.5268" gradientUnits="userSpaceOnUse">
<stop stop-color="#E0C500"/>
<stop offset="0.4087" stop-color="#E0A600"/>
<stop offset="0.7754" stop-color="#E09100"/>
<stop offset="1" stop-color="#E08900"/>
</linearGradient>
<linearGradient id="paint7_linear_3536_207" x1="45.5514" y1="26.5286" x2="13.5569" y2="26.5286" gradientUnits="userSpaceOnUse">
<stop stop-color="#FFE840"/>
<stop offset="0.4087" stop-color="#FFCE40"/>
<stop offset="0.7754" stop-color="#FFBC40"/>
<stop offset="1" stop-color="#FFB540"/>
</linearGradient>
<linearGradient id="paint8_linear_3536_207" x1="16.1689" y1="11.5947" x2="4.18913" y2="23.074" gradientUnits="userSpaceOnUse">
<stop stop-color="#40B8FF"/>
<stop offset="0.00657" stop-color="#40B9FF"/>
<stop offset="0.2601" stop-color="#40CEFF"/>
<stop offset="0.5122" stop-color="#40DDFF"/>
<stop offset="0.7604" stop-color="#40E7FF"/>
<stop offset="1" stop-color="#40EAFF"/>
</linearGradient>
<linearGradient id="paint9_linear_3536_207" x1="10.4626" y1="11.1545" x2="19.0182" y2="19.724" gradientUnits="userSpaceOnUse">
<stop stop-color="#65B895"/>
<stop offset="0.0685" stop-color="#62BD95"/>
<stop offset="0.4762" stop-color="#50DB97"/>
<stop offset="0.8009" stop-color="#44ED98"/>
<stop offset="1" stop-color="#40F498"/>
</linearGradient>
</defs>
</svg>
