<svg width="177" height="52" viewBox="0 0 177 52" fill="none" xmlns="http://www.w3.org/2000/svg">
<rect x="0.75" y="0.75" width="175.5" height="50.5" rx="5.25" stroke="#A6A6A6" stroke-width="1.5"/>
<path d="M53.702 19V15.292C53.702 14.08 53.678 13.192 53.618 12.772L56.138 19H57.242L59.774 12.748C59.714 13.36 59.702 13.948 59.702 15.568V19H60.854V10.324H59.678L56.69 17.62L53.702 10.324H52.55V19H53.702ZM64.0982 19.144C65.0462 19.144 65.8502 18.724 66.1502 18.052L66.2702 19H67.2302V15.316C67.2302 13.732 66.2462 12.964 64.7942 12.964C63.2822 12.964 62.2742 13.768 62.2742 14.992H63.2582C63.2582 14.284 63.7982 13.864 64.7462 13.864C65.5382 13.864 66.1262 14.212 66.1262 15.196V15.364L64.2782 15.508C62.8982 15.616 62.0942 16.288 62.0942 17.368C62.0942 18.436 62.8382 19.144 64.0982 19.144ZM64.4222 18.268C63.6902 18.268 63.2342 17.956 63.2342 17.332C63.2342 16.756 63.6422 16.372 64.6382 16.276L66.1382 16.156V16.468C66.1382 17.572 65.4902 18.268 64.4222 18.268ZM69.6204 19V15.892C69.6204 14.752 70.2324 13.996 71.2884 13.996C72.1524 13.996 72.7044 14.476 72.7044 15.664V19H73.8324V15.412C73.8324 13.912 73.1244 12.964 71.5764 12.964C70.7484 12.964 70.0044 13.36 69.6324 14.032L69.5124 13.132H68.4924V19H69.6204ZM76.8107 19.144C77.7587 19.144 78.5627 18.724 78.8627 18.052L78.9827 19H79.9427V15.316C79.9427 13.732 78.9587 12.964 77.5067 12.964C75.9947 12.964 74.9867 13.768 74.9867 14.992H75.9707C75.9707 14.284 76.5107 13.864 77.4587 13.864C78.2507 13.864 78.8387 14.212 78.8387 15.196V15.364L76.9907 15.508C75.6107 15.616 74.8067 16.288 74.8067 17.368C74.8067 18.436 75.5507 19.144 76.8107 19.144ZM77.1347 18.268C76.4027 18.268 75.9467 17.956 75.9467 17.332C75.9467 16.756 76.3547 16.372 77.3507 16.276L78.8507 16.156V16.468C78.8507 17.572 78.2027 18.268 77.1347 18.268ZM80.8329 15.916C80.8329 17.56 81.8889 18.844 83.5569 18.844C84.4809 18.844 85.2489 18.436 85.6329 17.752V18.928C85.6329 20.044 84.9129 20.764 83.8089 20.764C82.8249 20.764 82.1769 20.26 82.0329 19.396H80.9049C81.1209 20.884 82.2129 21.784 83.8089 21.784C85.6089 21.784 86.7489 20.608 86.7489 18.76V13.132H85.7409L85.6569 14.128C85.2849 13.396 84.5529 12.964 83.6049 12.964C81.9009 12.964 80.8329 14.26 80.8329 15.916ZM81.9609 15.892C81.9609 14.812 82.6329 13.948 83.7609 13.948C84.9129 13.948 85.5849 14.764 85.5849 15.892C85.5849 17.044 84.8889 17.86 83.7489 17.86C82.6449 17.86 81.9609 16.996 81.9609 15.892ZM90.6087 19.144C92.0607 19.144 93.0447 18.436 93.3327 17.176H92.2767C92.0847 17.848 91.5087 18.208 90.6327 18.208C89.5167 18.208 88.8687 17.524 88.7847 16.288L93.3207 16.276V15.856C93.3207 14.116 92.2287 12.964 90.5607 12.964C88.8567 12.964 87.6927 14.236 87.6927 16.072C87.6927 17.896 88.8807 19.144 90.6087 19.144ZM90.5607 13.912C91.5567 13.912 92.1927 14.56 92.1927 15.532H88.8087C88.9527 14.5 89.5767 13.912 90.5607 13.912ZM96.8779 16.06C96.8779 17.872 98.1739 19.144 99.9379 19.144C101.69 19.144 102.986 17.872 102.986 16.06C102.986 14.248 101.69 12.976 99.9379 12.976C98.1739 12.976 96.8779 14.248 96.8779 16.06ZM98.0179 16.06C98.0179 14.836 98.7979 13.984 99.9379 13.984C101.066 13.984 101.858 14.836 101.858 16.06C101.858 17.284 101.066 18.136 99.9379 18.136C98.7979 18.136 98.0179 17.284 98.0179 16.06ZM105.063 19V15.892C105.063 14.752 105.675 13.996 106.731 13.996C107.595 13.996 108.147 14.476 108.147 15.664V19H109.275V15.412C109.275 13.912 108.567 12.964 107.019 12.964C106.191 12.964 105.447 13.36 105.075 14.032L104.955 13.132H103.935V19H105.063ZM115.174 19V14.08H116.326V13.132H115.174V11.296H114.046V13.132H112.894V14.08H114.046V19H115.174ZM118.166 18.988V15.796C118.166 14.788 118.754 13.996 119.846 13.996C120.686 13.996 121.25 14.476 121.25 15.664V19H122.378V15.412C122.378 13.912 121.658 12.964 120.158 12.964C119.246 12.964 118.538 13.396 118.166 14.032V10.168H117.038V18.988H118.166ZM126.173 19.144C127.625 19.144 128.609 18.436 128.897 17.176H127.841C127.649 17.848 127.073 18.208 126.197 18.208C125.081 18.208 124.433 17.524 124.349 16.288L128.885 16.276V15.856C128.885 14.116 127.793 12.964 126.125 12.964C124.421 12.964 123.257 14.236 123.257 16.072C123.257 17.896 124.445 19.144 126.173 19.144ZM126.125 13.912C127.121 13.912 127.757 14.56 127.757 15.532H124.373C124.517 14.5 125.141 13.912 126.125 13.912Z" fill="white"/>
<path d="M58.11 41C62.774 41 65.986 37.722 65.986 32.992C65.986 28.196 62.708 24.918 57.956 24.918H52.324V41H58.11ZM57.692 27.514C61.014 27.514 63.016 29.582 63.016 32.992C63.016 36.336 61.058 38.404 57.846 38.404H55.14V27.514H57.692ZM71.1471 41.286C72.8411 41.286 74.3151 40.516 74.7771 39.394L74.9751 41H77.3291V34.4C77.3291 31.386 75.5251 29.802 72.5991 29.802C69.6511 29.802 67.7151 31.342 67.7151 33.696H70.0031C70.0031 32.552 70.8831 31.892 72.4671 31.892C73.8311 31.892 74.7111 32.486 74.7111 33.96V34.202L71.4551 34.444C68.8811 34.642 67.4291 35.896 67.4291 37.898C67.4291 39.944 68.8371 41.286 71.1471 41.286ZM72.0271 39.262C70.8171 39.262 70.1571 38.778 70.1571 37.788C70.1571 36.908 70.7951 36.358 72.4671 36.204L74.7331 36.028V36.6C74.7331 38.272 73.6771 39.262 72.0271 39.262ZM78.8299 37.7C78.8299 39.834 80.5459 41.286 83.2519 41.286C85.9359 41.286 87.8059 39.922 87.8059 37.722C87.8059 36.05 86.8819 35.214 85.0559 34.796L83.0979 34.334C82.1739 34.114 81.6899 33.718 81.6899 33.102C81.6899 32.288 82.3059 31.804 83.3619 31.804C84.3959 31.804 85.0119 32.398 85.0339 33.322H87.5859C87.5639 31.21 85.9139 29.802 83.4719 29.802C80.9639 29.802 79.1599 31.078 79.1599 33.212C79.1599 34.95 80.1059 35.874 82.0639 36.314L84.0219 36.776C84.9899 36.996 85.2759 37.392 85.2759 37.942C85.2759 38.734 84.5939 39.24 83.3399 39.24C82.1079 39.24 81.4039 38.646 81.3819 37.7H78.8299ZM92.2335 41V35.06C92.2335 33.432 93.2235 32.244 94.9175 32.244C96.2815 32.244 97.1835 33.124 97.1835 34.95V41H99.8675V34.312C99.8675 31.496 98.4595 29.802 95.7755 29.802C94.2135 29.802 92.9375 30.484 92.2555 31.54V24.632H89.5495V41H92.2335ZM104.691 41L104.867 39.306C105.505 40.56 106.891 41.286 108.519 41.286C111.643 41.286 113.689 38.976 113.689 35.632C113.689 32.2 111.797 29.78 108.695 29.78C107.045 29.78 105.593 30.506 104.889 31.716V24.632H102.205V41H104.691ZM104.911 35.522C104.911 33.564 106.121 32.2 107.969 32.2C109.861 32.2 110.983 33.586 110.983 35.522C110.983 37.458 109.861 38.822 107.969 38.822C106.121 38.822 104.911 37.48 104.911 35.522ZM114.888 35.544C114.888 38.932 117.33 41.264 120.696 41.264C124.062 41.264 126.504 38.932 126.504 35.544C126.504 32.156 124.062 29.824 120.696 29.824C117.33 29.824 114.888 32.156 114.888 35.544ZM117.572 35.544C117.572 33.564 118.848 32.222 120.696 32.222C122.544 32.222 123.82 33.564 123.82 35.544C123.82 37.524 122.544 38.866 120.696 38.866C118.848 38.866 117.572 37.524 117.572 35.544ZM131.565 41.286C133.259 41.286 134.733 40.516 135.195 39.394L135.393 41H137.747V34.4C137.747 31.386 135.943 29.802 133.017 29.802C130.069 29.802 128.133 31.342 128.133 33.696H130.421C130.421 32.552 131.301 31.892 132.885 31.892C134.249 31.892 135.129 32.486 135.129 33.96V34.202L131.873 34.444C129.299 34.642 127.847 35.896 127.847 37.898C127.847 39.944 129.255 41.286 131.565 41.286ZM132.445 39.262C131.235 39.262 130.575 38.778 130.575 37.788C130.575 36.908 131.213 36.358 132.885 36.204L135.151 36.028V36.6C135.151 38.272 134.095 39.262 132.445 39.262ZM146.904 30.088C146.464 29.978 146.09 29.934 145.716 29.934C144.264 29.934 143.23 30.66 142.768 31.738L142.614 30.154H140.084V41H142.768V35.72C142.768 33.608 143.978 32.574 145.914 32.574H146.904V30.088ZM152.521 41.286C154.171 41.286 155.579 40.56 156.239 39.306L156.415 41H158.879V24.632H156.217V31.518C155.535 30.44 154.193 29.802 152.675 29.802C149.397 29.802 147.417 32.222 147.417 35.61C147.417 38.976 149.375 41.286 152.521 41.286ZM153.115 38.822C151.245 38.822 150.101 37.458 150.101 35.522C150.101 33.586 151.245 32.2 153.115 32.2C154.985 32.2 156.195 33.564 156.195 35.522C156.195 37.48 154.985 38.822 153.115 38.822Z" fill="white"/>
<path d="M32.3135 42.3443V34.1074L40.0542 29.8401V37.9777L32.3135 42.3443Z" fill="#BB6A37"/>
<path fill-rule="evenodd" clip-rule="evenodd" d="M15.542 16.1452L28.0462 9L40.0541 16.1452V27.1608L32.115 31.6266H23.2827V42.3445L15.542 37.9779V16.1452ZM23.2828 20.7104L27.8478 18.031L32.3136 20.7104V27.3595H23.2828V20.7104Z" fill="#BB6A37"/>
</svg>
