<svg width="179" height="52" viewBox="0 0 179 52" fill="none" xmlns="http://www.w3.org/2000/svg">
<rect x="0.75" y="0.75" width="177.5" height="50.5" rx="5.25" fill="white" stroke="#BB6A37" stroke-width="1.5"/>
<path d="M56.16 19V15.292C56.16 14.08 56.136 13.192 56.076 12.772L58.596 19H59.7L62.232 12.748C62.172 13.36 62.16 13.948 62.16 15.568V19H63.312V10.324H62.136L59.148 17.62L56.16 10.324H55.008V19H56.16ZM66.5562 19.144C67.5042 19.144 68.3082 18.724 68.6082 18.052L68.7282 19H69.6882V15.316C69.6882 13.732 68.7042 12.964 67.2522 12.964C65.7402 12.964 64.7322 13.768 64.7322 14.992H65.7162C65.7162 14.284 66.2562 13.864 67.2042 13.864C67.9962 13.864 68.5842 14.212 68.5842 15.196V15.364L66.7362 15.508C65.3562 15.616 64.5522 16.288 64.5522 17.368C64.5522 18.436 65.2962 19.144 66.5562 19.144ZM66.8802 18.268C66.1482 18.268 65.6922 17.956 65.6922 17.332C65.6922 16.756 66.1002 16.372 67.0962 16.276L68.5962 16.156V16.468C68.5962 17.572 67.9482 18.268 66.8802 18.268ZM72.0784 19V15.892C72.0784 14.752 72.6904 13.996 73.7464 13.996C74.6104 13.996 75.1624 14.476 75.1624 15.664V19H76.2904V15.412C76.2904 13.912 75.5824 12.964 74.0344 12.964C73.2064 12.964 72.4624 13.36 72.0904 14.032L71.9704 13.132H70.9504V19H72.0784ZM79.2687 19.144C80.2167 19.144 81.0207 18.724 81.3207 18.052L81.4407 19H82.4007V15.316C82.4007 13.732 81.4167 12.964 79.9647 12.964C78.4527 12.964 77.4447 13.768 77.4447 14.992H78.4287C78.4287 14.284 78.9687 13.864 79.9167 13.864C80.7087 13.864 81.2967 14.212 81.2967 15.196V15.364L79.4487 15.508C78.0687 15.616 77.2647 16.288 77.2647 17.368C77.2647 18.436 78.0087 19.144 79.2687 19.144ZM79.5927 18.268C78.8607 18.268 78.4047 17.956 78.4047 17.332C78.4047 16.756 78.8127 16.372 79.8087 16.276L81.3087 16.156V16.468C81.3087 17.572 80.6607 18.268 79.5927 18.268ZM83.2909 15.916C83.2909 17.56 84.3469 18.844 86.0149 18.844C86.9389 18.844 87.7069 18.436 88.0909 17.752V18.928C88.0909 20.044 87.3709 20.764 86.2669 20.764C85.2829 20.764 84.6349 20.26 84.4909 19.396H83.3629C83.5789 20.884 84.6709 21.784 86.2669 21.784C88.0669 21.784 89.2069 20.608 89.2069 18.76V13.132H88.1989L88.1149 14.128C87.7429 13.396 87.0109 12.964 86.0629 12.964C84.3589 12.964 83.2909 14.26 83.2909 15.916ZM84.4189 15.892C84.4189 14.812 85.0909 13.948 86.2189 13.948C87.3709 13.948 88.0429 14.764 88.0429 15.892C88.0429 17.044 87.3469 17.86 86.2069 17.86C85.1029 17.86 84.4189 16.996 84.4189 15.892ZM93.0668 19.144C94.5188 19.144 95.5028 18.436 95.7908 17.176H94.7348C94.5428 17.848 93.9668 18.208 93.0908 18.208C91.9748 18.208 91.3268 17.524 91.2428 16.288L95.7787 16.276V15.856C95.7787 14.116 94.6868 12.964 93.0188 12.964C91.3148 12.964 90.1508 14.236 90.1508 16.072C90.1508 17.896 91.3388 19.144 93.0668 19.144ZM93.0188 13.912C94.0148 13.912 94.6508 14.56 94.6508 15.532H91.2668C91.4108 14.5 92.0348 13.912 93.0188 13.912ZM99.3359 16.06C99.3359 17.872 100.632 19.144 102.396 19.144C104.148 19.144 105.444 17.872 105.444 16.06C105.444 14.248 104.148 12.976 102.396 12.976C100.632 12.976 99.3359 14.248 99.3359 16.06ZM100.476 16.06C100.476 14.836 101.256 13.984 102.396 13.984C103.524 13.984 104.316 14.836 104.316 16.06C104.316 17.284 103.524 18.136 102.396 18.136C101.256 18.136 100.476 17.284 100.476 16.06ZM107.521 19V15.892C107.521 14.752 108.133 13.996 109.189 13.996C110.053 13.996 110.605 14.476 110.605 15.664V19H111.733V15.412C111.733 13.912 111.025 12.964 109.477 12.964C108.649 12.964 107.905 13.36 107.533 14.032L107.413 13.132H106.393V19H107.521ZM117.632 19V14.08H118.784V13.132H117.632V11.296H116.504V13.132H115.352V14.08H116.504V19H117.632ZM120.624 18.988V15.796C120.624 14.788 121.212 13.996 122.304 13.996C123.144 13.996 123.708 14.476 123.708 15.664V19H124.836V15.412C124.836 13.912 124.116 12.964 122.616 12.964C121.704 12.964 120.996 13.396 120.624 14.032V10.168H119.496V18.988H120.624ZM128.631 19.144C130.083 19.144 131.067 18.436 131.355 17.176H130.299C130.107 17.848 129.531 18.208 128.655 18.208C127.539 18.208 126.891 17.524 126.807 16.288L131.343 16.276V15.856C131.343 14.116 130.251 12.964 128.583 12.964C126.879 12.964 125.715 14.236 125.715 16.072C125.715 17.896 126.903 19.144 128.631 19.144ZM128.583 13.912C129.579 13.912 130.215 14.56 130.215 15.532H126.831C126.975 14.5 127.599 13.912 128.583 13.912Z" fill="black"/>
<path d="M60.568 41C65.232 41 68.444 37.722 68.444 32.992C68.444 28.196 65.166 24.918 60.414 24.918H54.782V41H60.568ZM60.15 27.514C63.472 27.514 65.474 29.582 65.474 32.992C65.474 36.336 63.516 38.404 60.304 38.404H57.598V27.514H60.15ZM73.6052 41.286C75.2992 41.286 76.7732 40.516 77.2352 39.394L77.4332 41H79.7872V34.4C79.7872 31.386 77.9832 29.802 75.0572 29.802C72.1092 29.802 70.1732 31.342 70.1732 33.696H72.4612C72.4612 32.552 73.3412 31.892 74.9252 31.892C76.2892 31.892 77.1692 32.486 77.1692 33.96V34.202L73.9132 34.444C71.3392 34.642 69.8872 35.896 69.8872 37.898C69.8872 39.944 71.2952 41.286 73.6052 41.286ZM74.4852 39.262C73.2752 39.262 72.6152 38.778 72.6152 37.788C72.6152 36.908 73.2532 36.358 74.9252 36.204L77.1912 36.028V36.6C77.1912 38.272 76.1352 39.262 74.4852 39.262ZM81.2879 37.7C81.2879 39.834 83.0039 41.286 85.7099 41.286C88.3939 41.286 90.2639 39.922 90.2639 37.722C90.2639 36.05 89.3399 35.214 87.5139 34.796L85.5559 34.334C84.6319 34.114 84.1479 33.718 84.1479 33.102C84.1479 32.288 84.7639 31.804 85.8199 31.804C86.8539 31.804 87.4699 32.398 87.4919 33.322H90.0439C90.0219 31.21 88.3719 29.802 85.9299 29.802C83.4219 29.802 81.6179 31.078 81.6179 33.212C81.6179 34.95 82.5639 35.874 84.5219 36.314L86.4799 36.776C87.4479 36.996 87.7339 37.392 87.7339 37.942C87.7339 38.734 87.0519 39.24 85.7979 39.24C84.5659 39.24 83.8619 38.646 83.8399 37.7H81.2879ZM94.6915 41V35.06C94.6915 33.432 95.6815 32.244 97.3755 32.244C98.7395 32.244 99.6415 33.124 99.6415 34.95V41H102.325V34.312C102.325 31.496 100.917 29.802 98.2335 29.802C96.6715 29.802 95.3955 30.484 94.7135 31.54V24.632H92.0075V41H94.6915ZM107.149 41L107.325 39.306C107.963 40.56 109.349 41.286 110.977 41.286C114.101 41.286 116.147 38.976 116.147 35.632C116.147 32.2 114.255 29.78 111.153 29.78C109.503 29.78 108.051 30.506 107.347 31.716V24.632H104.663V41H107.149ZM107.369 35.522C107.369 33.564 108.579 32.2 110.427 32.2C112.319 32.2 113.441 33.586 113.441 35.522C113.441 37.458 112.319 38.822 110.427 38.822C108.579 38.822 107.369 37.48 107.369 35.522ZM117.346 35.544C117.346 38.932 119.788 41.264 123.154 41.264C126.52 41.264 128.962 38.932 128.962 35.544C128.962 32.156 126.52 29.824 123.154 29.824C119.788 29.824 117.346 32.156 117.346 35.544ZM120.03 35.544C120.03 33.564 121.306 32.222 123.154 32.222C125.002 32.222 126.278 33.564 126.278 35.544C126.278 37.524 125.002 38.866 123.154 38.866C121.306 38.866 120.03 37.524 120.03 35.544ZM134.023 41.286C135.717 41.286 137.191 40.516 137.653 39.394L137.851 41H140.205V34.4C140.205 31.386 138.401 29.802 135.475 29.802C132.527 29.802 130.591 31.342 130.591 33.696H132.879C132.879 32.552 133.759 31.892 135.343 31.892C136.707 31.892 137.587 32.486 137.587 33.96V34.202L134.331 34.444C131.757 34.642 130.305 35.896 130.305 37.898C130.305 39.944 131.713 41.286 134.023 41.286ZM134.903 39.262C133.693 39.262 133.033 38.778 133.033 37.788C133.033 36.908 133.671 36.358 135.343 36.204L137.609 36.028V36.6C137.609 38.272 136.553 39.262 134.903 39.262ZM149.362 30.088C148.922 29.978 148.548 29.934 148.174 29.934C146.722 29.934 145.688 30.66 145.226 31.738L145.072 30.154H142.542V41H145.226V35.72C145.226 33.608 146.436 32.574 148.372 32.574H149.362V30.088ZM154.979 41.286C156.629 41.286 158.037 40.56 158.697 39.306L158.873 41H161.337V24.632H158.675V31.518C157.993 30.44 156.651 29.802 155.133 29.802C151.855 29.802 149.875 32.222 149.875 35.61C149.875 38.976 151.833 41.286 154.979 41.286ZM155.573 38.822C153.703 38.822 152.559 37.458 152.559 35.522C152.559 33.586 153.703 32.2 155.573 32.2C157.443 32.2 158.653 33.564 158.653 35.522C158.653 37.48 157.443 38.822 155.573 38.822Z" fill="black"/>
<path d="M34.7715 42.3443V34.1074L42.5122 29.8401V37.9777L34.7715 42.3443Z" fill="#BB6A37"/>
<path fill-rule="evenodd" clip-rule="evenodd" d="M18 16.1452L30.5042 9L42.5122 16.1452V27.1608L34.573 31.6266H25.7407V42.3445L18 37.9779V16.1452ZM25.7408 20.7104L30.3058 18.031L34.7716 20.7104V27.3595H25.7408V20.7104Z" fill="#BB6A37"/>
</svg>
