<svg width="179" height="54" viewBox="0 0 179 54" fill="none" xmlns="http://www.w3.org/2000/svg">
<rect x="1" y="0.195801" width="177" height="52" rx="6" fill="#161616"/>
<path d="M171.893 0.195801H6.61127C2.97511 0.195801 0 3.17567 0 6.81778V46.5494C0 50.1915 2.97505 53.1714 6.61127 53.1714H171.893C175.529 53.1714 178.504 50.1915 178.504 46.5495V6.81778C178.504 3.17567 175.529 0.195801 171.893 0.195801M171.893 1.25528C174.955 1.25528 177.446 3.75101 177.446 6.81778V46.5494C177.446 49.6168 174.955 52.1125 171.893 52.1125H6.61127C3.54949 52.1125 1.05781 49.6167 1.05781 46.5495V6.81778C1.05781 3.75101 3.54943 1.25534 6.61127 1.25534H171.893" fill="#A6A6A6"/>
<path d="M62.6995 13.7636C62.6995 14.8732 62.3714 15.7568 61.7144 16.4159C60.9681 17.1997 59.9954 17.5919 58.7997 17.5919C57.6546 17.5919 56.6811 17.1946 55.8804 16.3988C55.0784 15.6037 54.6781 14.6177 54.6781 13.4412C54.6781 12.2643 55.0784 11.2788 55.8804 10.483C56.6811 9.68794 57.6546 9.29004 58.7997 9.29004C59.3679 9.29004 59.9119 9.40134 60.4283 9.6233C60.9448 9.84579 61.3591 10.1411 61.669 10.511L60.9716 11.2099C60.4464 10.5814 59.7233 10.2673 58.7997 10.2673C57.9646 10.2673 57.2425 10.5612 56.6331 11.1494C56.0235 11.7382 55.7188 12.5017 55.7188 13.4412C55.7188 14.3808 56.0235 15.1443 56.6331 15.7331C57.2425 16.3213 57.9646 16.6151 58.7997 16.6151C59.6856 16.6151 60.4242 16.3197 61.0156 15.7279C61.3994 15.3424 61.6214 14.8065 61.6808 14.1184H58.7997V13.1639H62.6441C62.6813 13.3715 62.6994 13.5706 62.6994 13.7636" fill="white"/>
<path d="M62.6988 13.7637H62.5666C62.5655 14.848 62.2493 15.6902 61.6202 16.3224L61.6188 16.3235L61.6182 16.3246C60.8956 17.0813 59.9668 17.458 58.799 17.4596C57.6845 17.458 56.7516 17.0772 55.9727 16.3053C55.1954 15.5319 54.8111 14.5877 54.8096 13.4413C54.8111 12.2944 55.1954 11.3508 55.9727 10.5779C56.7516 9.80549 57.6845 9.42419 58.799 9.42259C59.3501 9.42259 59.8749 9.53032 60.3754 9.74495C60.8764 9.96125 61.2722 10.2447 61.567 10.5966L61.6683 10.5111L61.5748 10.4175L60.8775 11.1169L60.9709 11.21L61.0728 11.1253C60.5231 10.4656 59.7516 10.133 58.799 10.135C57.9329 10.1339 57.1711 10.4439 56.5409 11.0544C55.9046 11.6669 55.5849 12.4734 55.586 13.4413C55.5849 14.4093 55.9046 15.2158 56.5409 15.8283C57.1711 16.4388 57.9329 16.7488 58.799 16.7477C59.7142 16.7493 60.4943 16.4383 61.1083 15.8217C61.5184 15.4098 61.7509 14.8393 61.8119 14.1299L61.8242 13.9861H58.9312V13.2965H62.6435V13.164L62.5132 13.1873C62.5494 13.3881 62.5665 13.579 62.5665 13.7637H62.831C62.831 13.5624 62.8123 13.3555 62.7736 13.1403L62.754 13.0316H58.6668V14.251H61.6801V14.1185L61.5484 14.1071C61.4901 14.7736 61.2783 15.2754 60.9214 15.6345C60.3533 16.2014 59.656 16.4812 58.799 16.4828C57.9949 16.4818 57.3126 16.2044 56.7243 15.638C56.1417 15.0735 55.8519 14.3529 55.8504 13.4413C55.8519 12.5298 56.1417 11.8092 56.7243 11.2447C57.3126 10.6782 57.9948 10.4009 58.799 10.3999C59.6932 10.402 60.3683 10.6979 60.8698 11.2954L60.9628 11.4061L61.7618 10.6048L61.8475 10.519L61.7695 10.4262C61.4446 10.0383 61.0118 9.73043 60.4798 9.50187C59.9468 9.27259 59.3843 9.15772 58.799 9.15772C57.6236 9.1567 56.6091 9.57056 55.7863 10.3896C54.9605 11.207 54.5442 12.2344 54.5453 13.4413C54.5442 14.6477 54.9604 15.6758 55.7868 16.4937C56.6091 17.3121 57.6236 17.7255 58.799 17.7244C60.0232 17.7255 61.0387 17.3183 61.8093 16.5076L61.7137 16.416L61.8072 16.5097C62.4921 15.8242 62.8319 14.8982 62.831 13.7637H62.6988M68.7935 10.4444H65.1805V12.9639H68.4387V13.9188H65.1805V16.4383H68.7935V17.4145H64.162V9.46818H68.7935V10.4444Z" fill="white"/>
<path d="M68.7938 10.4441V10.3117H65.0487V13.0961H68.3068V13.7857L65.0486 13.786V16.5704H68.6616V17.2818H64.2946V9.60032H68.6616V10.4441H68.7938V10.3117V10.4441H68.926V9.33545H64.0302V17.5467H68.926V16.3056H65.3131V14.0509H68.5713V12.8312H65.3131V10.5765H68.926V10.4441H68.7938ZM73.0927 17.4143H72.0726V10.444H69.8568V9.46782H75.3085V10.444H73.0927V17.4142" fill="white"/>
<path d="M73.093 17.4143V17.2818H72.2051V10.3117H69.9893V9.60038H75.1766V10.3117H72.9608V17.4142H73.093V17.2818V17.4142H73.2252V10.5765H75.441V9.33545H69.7249V10.5765H71.9406V17.5466H73.2252V17.4142H73.093M79.2534 17.4143V9.46782H80.2724V17.4142H79.2534" fill="white"/>
<path d="M79.2529 17.4143H79.3852V9.60032H80.1397V17.2818H79.2529V17.4142H79.3852H79.2529V17.5467H80.4042V9.33545H79.1207V17.5467H79.2529V17.4142M84.7939 17.4143H83.7739V10.444H81.5581V9.46782H87.0098V10.444H84.7939V17.4142" fill="white"/>
<path d="M84.7943 17.4145V17.282H83.9064V10.3118H81.6907V9.60056H86.8779V10.3118H84.6621V17.4144H84.7943V17.282V17.4144H84.9265V10.5767H87.1423V9.33563H81.4263V10.5767H83.6419V17.5468H84.9265V17.4143H84.7943M92.2661 15.7223C92.8533 16.3177 93.5718 16.6151 94.4215 16.6151C95.2712 16.6151 95.9901 16.3177 96.5764 15.7223C97.1641 15.1268 97.4586 14.3657 97.4586 13.4412C97.4586 12.5169 97.1641 11.7557 96.5764 11.1603C95.9901 10.5648 95.2712 10.2673 94.4215 10.2673C93.5718 10.2673 92.8533 10.5648 92.2661 11.1603C91.6798 11.7557 91.3855 12.5168 91.3855 13.4412C91.3855 14.3657 91.6798 15.1268 92.2661 15.7223ZM97.3304 16.3875C96.5505 17.1908 95.5805 17.5919 94.4215 17.5919C93.2614 17.5919 92.2918 17.1908 91.5136 16.3875C90.7331 15.585 90.3447 14.6027 90.3447 13.4412C90.3447 12.2797 90.7331 11.2973 91.5136 10.495C92.2919 9.69145 93.2614 9.29004 94.4215 9.29004C95.5744 9.29004 96.5417 9.69359 97.3253 10.5002C98.1078 11.3067 98.4993 12.287 98.4993 13.4412C98.4993 14.6027 98.1087 15.585 97.3304 16.3875Z" fill="white"/>
<path d="M92.2659 15.7224L92.1718 15.8155C92.7809 16.4347 93.5407 16.7493 94.4213 16.7477C95.3013 16.7493 96.0621 16.4347 96.6702 15.8155C97.2832 15.1956 97.5915 14.3937 97.5905 13.4413C97.5914 12.489 97.2832 11.6871 96.6702 11.0672C96.0621 10.448 95.3013 10.1335 94.4213 10.135C93.5407 10.1335 92.7809 10.448 92.1718 11.0672C91.5603 11.6871 91.2514 12.489 91.253 13.4413C91.2514 14.3937 91.5603 15.1956 92.1718 15.8155L92.2659 15.7224L92.3599 15.6292C91.799 15.0575 91.5185 14.3384 91.5175 13.4413C91.5185 12.5444 91.799 11.8252 92.3599 11.2535C92.9259 10.6819 93.602 10.4015 94.4213 10.3999C95.2399 10.4015 95.9175 10.6819 96.4821 11.2535C97.0441 11.8252 97.3245 12.5444 97.3255 13.4413C97.3245 14.3383 97.0441 15.0575 96.4821 15.6292C95.9175 16.2009 95.2399 16.4812 94.4213 16.4828C93.602 16.4812 92.9259 16.2009 92.3599 15.6292L92.2659 15.7224ZM97.3302 16.3876L97.2357 16.2956C96.4775 17.0736 95.5503 17.458 94.4213 17.4596C93.2917 17.458 92.3645 17.0736 91.6078 16.2956L91.6042 16.2914L91.6078 16.2956C90.8512 15.5148 90.4778 14.5733 90.4767 13.4413C90.4778 12.3094 90.8512 11.3679 91.6078 10.5872C92.3645 9.80906 93.2916 9.4242 94.4213 9.42265C95.5431 9.4242 96.4681 9.81067 97.2305 10.5928C97.9897 11.3771 98.3653 12.3172 98.3669 13.4413C98.3653 14.5733 97.9908 15.5148 97.2357 16.2956L97.3302 16.3876L97.4253 16.4796C98.2268 15.6551 98.6322 14.6322 98.6313 13.4413C98.6323 12.2572 98.2253 11.2365 97.42 10.4083C96.6143 9.57675 95.6051 9.15629 94.4213 9.15772C93.2313 9.15629 92.2189 9.57478 91.4183 10.4031V10.4025C90.6152 11.2276 90.2112 12.2504 90.2123 13.4413C90.2112 14.6322 90.6152 15.6551 91.4183 16.4801L91.4219 16.4839L91.4183 16.4796C92.2189 17.3079 93.2313 17.7255 94.4213 17.7244C95.6107 17.7255 96.6231 17.3079 97.4253 16.4796L97.3302 16.3876ZM99.9297 17.4146V9.46812H101.17L105.026 15.6498H105.07L105.026 14.1185V9.46812H106.046V17.4145H104.982L100.948 10.9332H100.904L100.948 12.4651V17.4145H99.9298" fill="white"/>
<path d="M99.9296 17.4143H100.062V9.60032H101.097L104.953 15.782H105.206L105.158 14.1163V9.60038H105.914V17.2818H105.055L101.022 10.8005H100.769L100.816 12.467V17.2818H99.9297L99.9296 17.4143L99.9297 17.5466H101.08V12.4628L101.037 10.9294L100.904 10.9329V11.0654H100.948V10.9329L100.836 11.0034L104.909 17.5466H106.178V9.33545H104.894V14.1198L104.938 15.6532L105.07 15.6496V15.5171H105.026V15.6496L105.138 15.5793L101.244 9.33545H99.7975V17.5466H99.9297L99.9296 17.4143ZM141.396 39.9288H143.864V23.3724H141.396L141.396 39.9288ZM163.619 29.3364L160.791 36.5145H160.706L157.771 29.3364H155.113L159.515 39.369L157.006 44.9496H159.58L166.363 29.3364L163.619 29.3364ZM149.627 38.0484C148.818 38.0484 147.692 37.6438 147.692 36.6423C147.692 35.3643 149.096 34.8745 150.307 34.8745C151.393 34.8745 151.902 35.1088 152.561 35.4286C152.37 36.9619 151.051 38.0484 149.627 38.0484ZM149.925 28.9742C148.138 28.9742 146.289 29.7626 145.523 31.5092L147.713 32.4249C148.181 31.5092 149.052 31.2106 149.967 31.2106C151.243 31.2106 152.54 31.9779 152.561 33.3411V33.5113C152.114 33.2557 151.158 32.8724 149.988 32.8724C147.628 32.8724 145.224 34.1714 145.224 36.5998C145.224 38.8151 147.16 40.2423 149.328 40.2423C150.988 40.2423 151.902 39.4968 152.477 38.6237H152.561V39.9015H154.943V33.5536C154.943 30.6147 152.753 28.9742 149.925 28.9742ZM134.677 31.3518H131.167V25.6767H134.677C136.521 25.6767 137.568 27.2064 137.568 28.5142C137.568 29.7973 136.521 31.3518 134.677 31.3518ZM134.613 23.3724H128.701V39.9288H131.167V33.6561H134.613C137.348 33.6561 140.036 31.6731 140.036 28.5142C140.036 25.3554 137.348 23.3724 134.613 23.3724ZM102.375 38.0514C100.671 38.0514 99.2437 36.622 99.2437 34.6587C99.2437 32.6748 100.671 31.2236 102.375 31.2236C104.058 31.2236 105.379 32.6748 105.379 34.6587C105.379 36.622 104.058 38.0514 102.375 38.0514ZM105.208 30.2635H105.123C104.569 29.6022 103.504 29.0048 102.162 29.0048C99.3501 29.0048 96.7728 31.4797 96.7728 34.6587C96.7728 37.8166 99.35 40.2703 102.162 40.2703C103.504 40.2703 104.569 39.6727 105.123 38.9904H105.208V39.8011C105.208 41.9564 104.058 43.1085 102.205 43.1085C100.692 43.1085 99.7551 42.0199 99.3712 41.1027L97.2201 41.9988C97.8378 43.4923 99.4782 45.3274 102.205 45.3274C105.102 45.3274 107.552 43.6201 107.552 39.4596V29.3462H105.208V30.2635ZM109.256 39.9288H111.727V23.3718H109.256V39.9288ZM115.369 34.4668C115.305 32.2903 117.052 31.1811 118.309 31.1811C119.29 31.1811 120.12 31.6716 120.396 32.3763L115.369 34.4668ZM123.038 32.5893C122.57 31.3301 121.142 29.0048 118.224 29.0048C115.327 29.0048 112.92 31.2877 112.92 34.6375C112.92 37.7954 115.305 40.2703 118.501 40.2703C121.079 40.2703 122.57 38.6913 123.188 37.7741L121.27 36.4936C120.632 37.4326 119.758 38.0514 118.501 38.0514C117.244 38.0514 116.349 37.4751 115.774 36.3447L123.293 33.2293L123.038 32.5893ZM63.1292 30.7331V33.1227H68.838C68.6676 34.4668 68.2203 35.4482 67.5385 36.131C66.708 36.9634 65.4085 37.8807 63.1292 37.8807C59.6143 37.8807 56.8665 35.043 56.8665 31.5225C56.8665 28.0021 59.6143 25.1641 63.1292 25.1641C65.0252 25.1641 66.4095 25.911 67.4321 26.8711L69.1149 25.1857C67.6879 23.8199 65.7917 22.7745 63.1292 22.7745C58.3148 22.7745 54.2675 26.7005 54.2675 31.5225C54.2675 36.3447 58.3148 40.2703 63.1292 40.2703C65.7282 40.2703 67.6878 39.4173 69.2214 37.8166C70.7978 36.2376 71.2879 34.0188 71.2879 32.2267C71.2879 31.6716 71.2455 31.1599 71.1598 30.7331H63.1292ZM77.7783 38.0514C76.0738 38.0514 74.6039 36.6432 74.6039 34.6375C74.6039 32.6105 76.0738 31.2236 77.7783 31.2236C79.4822 31.2236 80.9521 32.6105 80.9521 34.6375C80.9521 36.6432 79.4822 38.0514 77.7783 38.0514ZM77.7783 29.0048C74.6679 29.0048 72.1328 31.373 72.1328 34.6375C72.1328 37.8807 74.6679 40.2703 77.7783 40.2703C80.8881 40.2703 83.4231 37.8807 83.4231 34.6375C83.4231 31.373 80.8881 29.0048 77.7783 29.0048ZM90.0927 38.0514C88.3889 38.0514 86.9188 36.6432 86.9188 34.6375C86.9188 32.6105 88.3889 31.2236 90.0928 31.2236C91.7967 31.2236 93.2667 32.6105 93.2667 34.6375C93.2667 36.6432 91.7967 38.0514 90.0927 38.0514ZM90.0927 29.0048C86.9824 29.0048 84.4479 31.373 84.4479 34.6375C84.4479 37.8807 86.9824 40.2703 90.0928 40.2703C93.2027 40.2703 95.7378 37.8807 95.7378 34.6375C95.7378 31.373 93.2026 29.0048 90.0927 29.0048Z" fill="white"/>
<path d="M13.8946 10.2746C13.4509 10.6756 13.186 11.3445 13.186 12.2323V12.0316V41.3286V41.1356C13.186 41.9555 13.4132 42.5887 13.798 42.9965L13.8962 43.0906V43.091C14.2076 43.3725 14.6069 43.522 15.0646 43.5215C15.5118 43.5215 16.0149 43.3787 16.5459 43.0772L35.7387 32.1545L42.3312 28.4023C43.1685 27.9259 43.6386 27.3112 43.7171 26.6852V26.6826C43.6386 26.0552 43.1685 25.441 42.3313 24.9646L35.7381 21.2128L16.546 10.2901C16.0138 9.98805 15.5103 9.84473 15.062 9.84473C14.6048 9.84473 14.2061 9.99371 13.8948 10.2746H13.8946Z" fill="#00C1FF"/>
<path d="M13.8962 43.0913L13.798 42.9971C13.4132 42.5894 13.186 41.9562 13.186 41.1363V41.3292V12.0395V12.233C13.186 11.3452 13.4509 10.6763 13.8946 10.2753L30.2771 26.6839L13.8962 43.0913Z" fill="url(#paint0_linear_2434_6912)"/>
<path d="M35.7389 32.1548L30.2773 26.6835L35.7384 21.213L42.3315 24.9648C43.1688 25.4413 43.6388 26.0554 43.7174 26.6829V26.6854C43.6388 27.3115 43.1688 27.9262 42.3315 28.4025L35.739 32.1547" fill="url(#paint1_linear_2434_6912)"/>
<path d="M15.0655 43.522C14.6079 43.5224 14.2086 43.3729 13.8972 43.0915V43.091L30.2781 26.6836L35.7396 32.1549L16.5468 43.0776C16.0158 43.3792 15.5127 43.522 15.0655 43.522Z" fill="url(#paint2_linear_2434_6912)"/>
<path d="M30.2771 26.6851L13.8945 10.2765C14.2059 9.99557 14.6047 9.84659 15.0618 9.84659C15.5102 9.84659 16.0137 9.98986 16.5458 10.292L35.7381 21.2146L30.2771 26.6851Z" fill="url(#paint3_linear_2434_6912)"/>
<path d="M15.0651 43.7188C14.6075 43.7188 14.2077 43.5692 13.8962 43.2878L13.8957 43.2883C13.8944 43.287 13.8931 43.2858 13.8916 43.2847L13.8064 43.2014C13.8038 43.1988 13.8013 43.1957 13.7981 43.1927L13.8963 43.0943C14.2077 43.3757 14.607 43.5252 15.0647 43.5247C15.5118 43.5247 16.015 43.382 16.546 43.0804L35.7387 32.1578L35.8617 32.281L35.7372 32.3518L16.5459 43.2738C16.062 43.5486 15.6017 43.6918 15.186 43.7157C15.1457 43.7177 15.1054 43.7187 15.0651 43.7187" fill="url(#paint4_linear_2434_6912)"/>
<path d="M13.798 43.1924C13.4132 42.7847 13.186 42.152 13.186 41.3315V41.1385C13.186 41.9584 13.4132 42.5916 13.798 42.9994L13.8962 43.0936L13.798 43.1924Z" fill="url(#paint5_linear_2434_6912)"/>
<path d="M35.8617 32.2783L35.7388 32.1551L42.3313 28.4028C43.1686 27.9265 43.6387 27.3118 43.7172 26.6858C43.7172 26.9155 43.666 27.1452 43.5644 27.3688C43.3593 27.8193 42.9482 28.2451 42.3314 28.5963L35.8617 32.2783" fill="url(#paint6_linear_2434_6912)"/>
<path d="M43.7173 26.6851C43.6387 26.0575 43.1687 25.4434 42.3315 24.9669L35.7383 21.2152L35.8613 21.092H35.8618L42.3315 24.7739C43.2545 25.2996 43.7168 25.9922 43.7173 26.6851Z" fill="url(#paint7_linear_2434_6912)"/>
<path d="M13.186 12.2329V12.0305C13.186 11.9576 13.188 11.8862 13.1917 11.8169V11.8138C13.1917 11.8128 13.1917 11.8118 13.1921 11.8107V11.8029C13.2319 11.0967 13.4509 10.5458 13.798 10.178L13.8946 10.2752C13.4509 10.6763 13.186 11.3451 13.186 12.2329Z" fill="url(#paint8_linear_2434_6912)"/>
<path d="M35.7382 21.2129L16.546 10.2901C16.0139 9.98806 15.5104 9.8448 15.062 9.8448C14.6049 9.8448 14.2061 9.99378 13.8948 10.2747L13.7981 10.1775C13.8283 10.1455 13.8597 10.1146 13.8921 10.0849C13.8932 10.0838 13.8948 10.0828 13.8958 10.0817C14.2047 9.80295 14.5993 9.65397 15.0523 9.65129H15.062C15.5104 9.65129 16.0139 9.79462 16.546 10.0968L35.8617 21.0893L35.8611 21.0897L35.7382 21.2129Z" fill="url(#paint9_linear_2434_6912)"/>
<defs>
<linearGradient id="paint0_linear_2434_6912" x1="23.6554" y1="11.73" x2="9.53742" y2="25.8707" gradientUnits="userSpaceOnUse">
<stop stop-color="#00A0FF"/>
<stop offset="0.00657" stop-color="#00A1FF"/>
<stop offset="0.2601" stop-color="#00BEFF"/>
<stop offset="0.5122" stop-color="#00D2FF"/>
<stop offset="0.7604" stop-color="#00DFFF"/>
<stop offset="1" stop-color="#00E3FF"/>
</linearGradient>
<linearGradient id="paint1_linear_2434_6912" x1="44.7375" y1="26.5889" x2="12.7429" y2="26.5889" gradientUnits="userSpaceOnUse">
<stop stop-color="#FFE000"/>
<stop offset="0.4087" stop-color="#FFBD00"/>
<stop offset="0.7754" stop-color="#FFA500"/>
<stop offset="1" stop-color="#FF9C00"/>
</linearGradient>
<linearGradient id="paint2_linear_2434_6912" x1="32.84" y1="31.8855" x2="8.91601" y2="55.6731" gradientUnits="userSpaceOnUse">
<stop stop-color="#FF3A44"/>
<stop offset="1" stop-color="#C31162"/>
</linearGradient>
<linearGradient id="paint3_linear_2434_6912" x1="9.6723" y1="7.84387" x2="20.3347" y2="18.4617" gradientUnits="userSpaceOnUse">
<stop stop-color="#32A071"/>
<stop offset="0.0685" stop-color="#2DA771"/>
<stop offset="0.4762" stop-color="#15CF74"/>
<stop offset="0.8009" stop-color="#06E775"/>
<stop offset="1" stop-color="#00F076"/>
</linearGradient>
<linearGradient id="paint4_linear_2434_6912" x1="32.8272" y1="35.6835" x2="13.6677" y2="54.8741" gradientUnits="userSpaceOnUse">
<stop stop-color="#CC2E36"/>
<stop offset="1" stop-color="#9C0E4E"/>
</linearGradient>
<linearGradient id="paint5_linear_2434_6912" x1="15.3684" y1="11.7322" x2="2.93066" y2="24.1902" gradientUnits="userSpaceOnUse">
<stop stop-color="#008DE0"/>
<stop offset="0.00657" stop-color="#008DE0"/>
<stop offset="0.2601" stop-color="#00A7E0"/>
<stop offset="0.5122" stop-color="#00B8E0"/>
<stop offset="0.7604" stop-color="#00C4E0"/>
<stop offset="1" stop-color="#00C7E0"/>
</linearGradient>
<linearGradient id="paint6_linear_2434_6912" x1="44.7374" y1="26.6845" x2="12.7428" y2="26.6845" gradientUnits="userSpaceOnUse">
<stop stop-color="#E0C500"/>
<stop offset="0.4087" stop-color="#E0A600"/>
<stop offset="0.7754" stop-color="#E09100"/>
<stop offset="1" stop-color="#E08900"/>
</linearGradient>
<linearGradient id="paint7_linear_2434_6912" x1="44.7374" y1="26.6864" x2="12.7429" y2="26.6864" gradientUnits="userSpaceOnUse">
<stop stop-color="#FFE840"/>
<stop offset="0.4087" stop-color="#FFCE40"/>
<stop offset="0.7754" stop-color="#FFBC40"/>
<stop offset="1" stop-color="#FFB540"/>
</linearGradient>
<linearGradient id="paint8_linear_2434_6912" x1="15.3549" y1="11.7524" x2="3.37517" y2="23.2317" gradientUnits="userSpaceOnUse">
<stop stop-color="#40B8FF"/>
<stop offset="0.00657" stop-color="#40B9FF"/>
<stop offset="0.2601" stop-color="#40CEFF"/>
<stop offset="0.5122" stop-color="#40DDFF"/>
<stop offset="0.7604" stop-color="#40E7FF"/>
<stop offset="1" stop-color="#40EAFF"/>
</linearGradient>
<linearGradient id="paint9_linear_2434_6912" x1="9.6486" y1="11.3122" x2="18.2042" y2="19.8817" gradientUnits="userSpaceOnUse">
<stop stop-color="#65B895"/>
<stop offset="0.0685" stop-color="#62BD95"/>
<stop offset="0.4762" stop-color="#50DB97"/>
<stop offset="0.8009" stop-color="#44ED98"/>
<stop offset="1" stop-color="#40F498"/>
</linearGradient>
</defs>
</svg>
