<?xml version="1.0" standalone="no"?>
<!DOCTYPE svg PUBLIC "-//W3C//DTD SVG 20010904//EN"
 "http://www.w3.org/TR/2001/REC-SVG-20010904/DTD/svg10.dtd">
<svg version="1.0" xmlns="http://www.w3.org/2000/svg"
 width="438.000000pt" height="133.000000pt" viewBox="0 0 438.000000 133.000000"
 preserveAspectRatio="xMidYMid meet">

<g transform="translate(0.000000,133.000000) scale(0.100000,-0.100000)"
fill="#BB6A37" stroke="none">
<path d="M430 1300 c-142 -10 -211 -34 -274 -94 -86 -84 -102 -143 -112 -421
-8 -237 7 -471 36 -547 37 -100 125 -172 241 -199 69 -16 3367 -25 3608 -10
186 11 248 30 315 95 86 84 102 143 112 421 8 237 -7 471 -36 547 -24 65 -87
136 -147 166 -89 46 -55 45 -1888 47 -957 2 -1792 -1 -1855 -5z m3647 -63
c110 -23 183 -95 209 -204 19 -80 19 -641 1 -730 -23 -110 -95 -183 -204 -209
-84 -20 -3667 -20 -3760 -1 -110 23 -183 95 -209 204 -19 80 -19 641 -1 730
23 108 95 183 200 209 77 18 3674 19 3764 1z"/>
<path d="M550 892 c-24 -19 -38 -91 -26 -136 11 -45 32 -56 107 -56 91 0 109
16 109 99 0 88 -22 111 -105 111 -45 0 -69 -5 -85 -18z"/>
<path d="M820 890 c-16 -16 -20 -33 -20 -83 0 -93 13 -107 104 -107 95 0 106
11 106 108 0 89 -14 102 -107 102 -50 0 -67 -4 -83 -20z"/>
<path d="M1310 665 l0 -198 89 5 c73 4 98 10 134 32 120 69 116 258 -7 327
-28 16 -61 23 -127 27 l-89 5 0 -198z m198 131 c43 -22 62 -63 62 -132 0 -65
-24 -114 -66 -133 -15 -7 -56 -15 -91 -18 l-63 -6 0 158 0 158 63 -5 c35 -3
77 -13 95 -22z"/>
<path d="M2190 665 c0 -188 1 -195 20 -195 18 0 20 7 20 74 0 115 22 156 84
156 52 0 66 -30 66 -135 0 -88 1 -95 20 -95 19 0 20 7 20 104 0 116 -14 149
-69 161 -31 7 -101 -17 -101 -34 0 -6 -4 -11 -10 -11 -6 0 -10 35 -10 85 0 78
-2 85 -20 85 -19 0 -20 -7 -20 -195z"/>
<path d="M2490 665 c0 -188 1 -195 20 -195 15 0 20 7 20 25 0 31 3 31 34 0 46
-46 139 -26 172 37 11 22 15 48 12 85 -4 44 -11 60 -37 86 -41 42 -105 45
-145 8 l-26 -24 0 86 c0 86 0 87 -25 87 l-25 0 0 -195z m175 29 c44 -17 59
-114 24 -158 -27 -34 -91 -37 -126 -4 -33 31 -33 109 2 143 24 25 65 32 100
19z"/>
<path d="M3770 773 l0 -86 -23 21 c-33 31 -78 37 -120 17 -50 -24 -71 -68 -65
-140 4 -50 10 -63 37 -87 22 -19 42 -28 67 -28 38 0 94 24 94 41 0 6 5 7 10 4
6 -3 10 -15 10 -26 0 -10 7 -19 15 -19 13 0 15 28 15 195 0 188 -1 195 -20
195 -18 0 -20 -7 -20 -87z m-25 -98 c33 -32 35 -100 4 -139 -16 -21 -29 -26
-64 -26 -57 0 -85 32 -85 97 0 57 33 93 85 93 25 0 44 -8 60 -25z"/>
<path d="M1735 726 c-32 -14 -48 -30 -58 -58 -10 -28 28 -22 41 6 24 54 131
33 132 -26 0 -13 -14 -18 -65 -23 -82 -9 -115 -32 -115 -81 0 -45 29 -74 75
-74 37 0 85 18 85 32 0 4 5 8 10 8 6 0 10 -9 10 -20 0 -13 7 -20 20 -20 19 0
20 7 20 95 0 111 -13 147 -61 164 -40 14 -57 13 -94 -3z m115 -151 c0 -38 -42
-75 -83 -75 -40 0 -60 19 -55 52 4 29 41 48 96 48 38 0 42 -2 42 -25z"/>
<path d="M1992 725 c-39 -17 -56 -55 -40 -89 11 -25 38 -40 96 -51 18 -4 37
-15 42 -25 13 -24 13 -26 -6 -44 -23 -23 -81 -21 -96 4 -15 23 -48 27 -48 6 0
-46 110 -74 158 -40 64 44 44 104 -42 129 -80 23 -99 60 -43 86 28 13 77 -3
77 -26 0 -8 9 -15 20 -15 40 0 16 53 -31 69 -40 14 -46 13 -87 -4z"/>
<path d="M2870 723 c-42 -22 -80 -76 -80 -115 0 -76 59 -138 133 -138 73 0
121 43 132 117 15 100 -96 182 -185 136z m107 -38 c25 -18 44 -74 36 -107 -8
-31 -40 -65 -69 -72 -41 -11 -90 17 -104 58 -14 44 0 98 33 121 28 19 77 19
104 0z"/>
<path d="M3163 725 c-30 -13 -53 -41 -53 -64 0 -20 24 -11 46 16 38 47 124 32
124 -23 0 -20 -6 -23 -57 -30 -32 -3 -70 -13 -84 -20 -73 -37 -36 -134 51
-134 30 0 47 6 65 24 l25 25 6 -25 c3 -13 12 -24 20 -24 11 0 14 21 14 101 0
55 -5 109 -11 121 -11 21 -66 48 -96 48 -10 -1 -32 -7 -50 -15z m117 -152 c0
-15 -10 -37 -22 -50 -50 -53 -150 -7 -105 49 16 21 33 26 85 27 39 1 42 -1 42
-26z"/>
<path d="M3390 600 c0 -121 1 -130 19 -130 16 0 19 10 23 90 5 101 20 130 70
130 21 0 28 5 28 20 0 28 -47 27 -77 -2 l-23 -21 0 21 c0 15 -6 22 -20 22 -19
0 -20 -7 -20 -130z"/>
<path d="M544 616 c-16 -12 -19 -27 -19 -84 0 -97 15 -112 106 -112 61 0 70 3
88 26 26 33 29 128 5 162 -13 19 -24 22 -88 22 -47 0 -79 -5 -92 -14z"/>
<path d="M816 608 c-11 -15 -16 -45 -16 -85 0 -86 17 -103 103 -103 93 0 107
13 107 104 0 95 -11 106 -108 106 -62 0 -73 -3 -86 -22z"/>
</g>
</svg>
