<svg width="153" height="31" viewBox="0 0 153 31" fill="none" xmlns="http://www.w3.org/2000/svg">
<path d="M20.9268 30H0.767578V0.591797H20.9268V6.47754H6.65332V12.3633H16.3125V18.249H6.65332V24.1143H20.9268V30Z" fill="#011D41" fill-opacity="0.5"/>
<path d="M35.1231 6.47754V18.249H41.0088C41.8154 18.249 42.5742 18.0986 43.2852 17.7979C43.9961 17.4834 44.6182 17.0596 45.1514 16.5264C45.6846 15.9932 46.1016 15.3711 46.4024 14.6602C46.7168 13.9355 46.874 13.1699 46.874 12.3633C46.874 11.5566 46.7168 10.7979 46.4024 10.0869C46.1016 9.3623 45.6846 8.7334 45.1514 8.2002C44.6182 7.66699 43.9961 7.25 43.2852 6.94922C42.5742 6.63477 41.8154 6.47754 41.0088 6.47754H35.1231ZM35.1231 30H29.2373V0.591797H41.0088C42.0889 0.591797 43.1279 0.735352 44.126 1.02246C45.124 1.2959 46.0537 1.69238 46.9151 2.21191C47.7901 2.71777 48.583 3.33301 49.294 4.05762C50.0186 4.76855 50.6338 5.56152 51.1397 6.43652C51.6592 7.31152 52.0557 8.24805 52.3291 9.24609C52.6162 10.2441 52.7598 11.2832 52.7598 12.3633C52.7598 13.375 52.6299 14.3594 52.3701 15.3164C52.124 16.2734 51.7617 17.1826 51.2832 18.0439C50.8184 18.9053 50.2442 19.6982 49.5606 20.4229C48.877 21.1475 48.1113 21.7764 47.2637 22.3096L50.5244 30H44.2695L41.7061 24.0732L35.1231 24.1143V30Z" fill="#011D41" fill-opacity="0.5"/>
<path d="M66.71 6.47754V18.249H72.5957C73.4024 18.249 74.1612 18.0986 74.8721 17.7979C75.583 17.4834 76.2051 17.0596 76.7383 16.5264C77.2715 15.9932 77.6885 15.3711 77.9893 14.6602C78.3037 13.9355 78.461 13.1699 78.461 12.3633C78.461 11.5566 78.3037 10.7979 77.9893 10.0869C77.6885 9.3623 77.2715 8.7334 76.7383 8.2002C76.2051 7.66699 75.583 7.25 74.8721 6.94922C74.1612 6.63477 73.4024 6.47754 72.5957 6.47754H66.71ZM66.71 30H60.8243V0.591797H72.5957C73.6758 0.591797 74.7149 0.735352 75.7129 1.02246C76.711 1.2959 77.6407 1.69238 78.502 2.21191C79.377 2.71777 80.17 3.33301 80.8809 4.05762C81.6055 4.76855 82.2207 5.56152 82.7266 6.43652C83.2461 7.31152 83.6426 8.24805 83.916 9.24609C84.2032 10.2441 84.3467 11.2832 84.3467 12.3633C84.3467 13.375 84.2168 14.3594 83.9571 15.3164C83.711 16.2734 83.3487 17.1826 82.8701 18.0439C82.4053 18.9053 81.8311 19.6982 81.1475 20.4229C80.4639 21.1475 79.6983 21.7764 78.8506 22.3096L82.1114 30H75.8565L73.293 24.0732L66.71 24.1143V30Z" fill="#011D41" fill-opacity="0.5"/>
<path d="M121.225 15.4189C121.225 16.8135 121.04 18.1602 120.671 19.459C120.315 20.7441 119.81 21.9541 119.153 23.0889C118.497 24.21 117.704 25.2354 116.774 26.165C115.845 27.0947 114.819 27.8945 113.698 28.5645C112.577 29.2207 111.367 29.7266 110.068 30.082C108.77 30.4512 107.423 30.6357 106.028 30.6357C104.634 30.6357 103.287 30.4512 101.988 30.082C100.703 29.7266 99.4932 29.2207 98.3585 28.5645C97.2374 27.8945 96.212 27.0947 95.2823 26.165C94.3526 25.2354 93.5528 24.21 92.8829 23.0889C92.2266 21.9541 91.7139 20.7441 91.3448 19.459C90.9893 18.1602 90.8116 16.8135 90.8116 15.4189C90.8116 14.0244 90.9893 12.6777 91.3448 11.3789C91.7139 10.0801 92.2266 8.87012 92.8829 7.74902C93.5528 6.62793 94.3526 5.60254 95.2823 4.67285C96.212 3.74316 97.2374 2.9502 98.3585 2.29395C99.4932 1.6377 100.703 1.13184 101.988 0.776367C103.287 0.407227 104.634 0.222656 106.028 0.222656C107.423 0.222656 108.77 0.407227 110.068 0.776367C111.367 1.13184 112.577 1.6377 113.698 2.29395C114.819 2.9502 115.845 3.74316 116.774 4.67285C117.704 5.60254 118.497 6.62793 119.153 7.74902C119.81 8.87012 120.315 10.0801 120.671 11.3789C121.04 12.6777 121.225 14.0244 121.225 15.4189ZM115.38 15.4189C115.38 14.1338 115.134 12.9238 114.642 11.7891C114.149 10.6406 113.48 9.64941 112.632 8.81543C111.798 7.96777 110.807 7.29785 109.658 6.80566C108.523 6.31348 107.314 6.06738 106.028 6.06738C104.73 6.06738 103.513 6.31348 102.378 6.80566C101.243 7.29785 100.252 7.96777 99.4044 8.81543C98.5567 9.64941 97.8868 10.6406 97.3946 11.7891C96.9024 12.9238 96.6563 14.1338 96.6563 15.4189C96.6563 16.7041 96.9024 17.9141 97.3946 19.0488C97.8868 20.1699 98.5567 21.1543 99.4044 22.002C100.252 22.8496 101.243 23.5195 102.378 24.0117C103.513 24.5039 104.73 24.75 106.028 24.75C107.314 24.75 108.523 24.5039 109.658 24.0117C110.807 23.5195 111.798 22.8496 112.632 22.002C113.48 21.1543 114.149 20.1699 114.642 19.0488C115.134 17.9141 115.38 16.7041 115.38 15.4189Z" fill="#011D41" fill-opacity="0.5"/>
<path d="M135.175 6.47754V18.249H141.061C141.867 18.249 142.626 18.0986 143.337 17.7979C144.048 17.4834 144.67 17.0596 145.203 16.5264C145.736 15.9932 146.153 15.3711 146.454 14.6602C146.769 13.9355 146.926 13.1699 146.926 12.3633C146.926 11.5566 146.769 10.7979 146.454 10.0869C146.153 9.3623 145.736 8.7334 145.203 8.2002C144.67 7.66699 144.048 7.25 143.337 6.94922C142.626 6.63477 141.867 6.47754 141.061 6.47754H135.175ZM135.175 30H129.289V0.591797H141.061C142.141 0.591797 143.18 0.735352 144.178 1.02246C145.176 1.2959 146.106 1.69238 146.967 2.21191C147.842 2.71777 148.635 3.33301 149.346 4.05762C150.07 4.76855 150.686 5.56152 151.191 6.43652C151.711 7.31152 152.107 8.24805 152.381 9.24609C152.668 10.2441 152.812 11.2832 152.812 12.3633C152.812 13.375 152.682 14.3594 152.422 15.3164C152.176 16.2734 151.814 17.1826 151.335 18.0439C150.87 18.9053 150.296 19.6982 149.612 20.4229C148.929 21.1475 148.163 21.7764 147.315 22.3096L150.576 30H144.321L141.758 24.0732L135.175 24.1143V30Z" fill="#011D41" fill-opacity="0.5"/>
</svg>
