<svg width="136" height="46" viewBox="0 0 136 46" fill="none" xmlns="http://www.w3.org/2000/svg">
<path d="M17.439 45.1014V36.5366L25.4878 32.0995V40.561L17.439 45.1014Z" fill="#BB6A37"/>
<path fill-rule="evenodd" clip-rule="evenodd" d="M0 17.8593L13.0019 10.4297L25.4878 17.8593V29.3134L17.2327 33.9569H8.04879V45.1014L0 40.561V17.8593ZM8.04893 22.6061L12.7957 19.82L17.4392 22.6061V29.5198H8.04893V22.6061Z" fill="#BB6A37"/>
<path d="M28.4746 40.57H31.2946V31.6C32.2546 33.4 34.2046 34.39 36.5446 34.39C40.8946 34.39 43.3546 31.03 43.3546 26.56C43.3546 22.06 40.7446 18.91 36.5446 18.91C34.2046 18.91 32.2246 19.96 31.2346 21.97L31.0246 19.33H28.4746V40.57ZM31.3246 26.68C31.3246 23.62 33.0646 21.49 35.9446 21.49C38.8246 21.49 40.5346 23.65 40.5346 26.68C40.5346 29.68 38.8246 31.84 35.9446 31.84C33.0646 31.84 31.3246 29.68 31.3246 26.68ZM46.4629 40.57H49.2829V31.6C50.2429 33.4 52.1929 34.39 54.5329 34.39C58.8829 34.39 61.3429 31.03 61.3429 26.56C61.3429 22.06 58.7329 18.91 54.5329 18.91C52.1929 18.91 50.2129 19.96 49.2229 21.97L49.0129 19.33H46.4629V40.57ZM49.3129 26.68C49.3129 23.62 51.0529 21.49 53.9329 21.49C56.8129 21.49 58.5229 23.65 58.5229 26.68C58.5229 29.68 56.8129 31.84 53.9329 31.84C51.0529 31.84 49.3129 29.68 49.3129 26.68ZM72.8511 19.21C72.2811 19.09 71.8611 19.03 71.3511 19.03C69.3411 19.03 67.8711 20.05 67.2711 21.58L67.0911 19.36H64.4511V34H67.2711V26.23C67.2711 23.41 68.9211 21.79 71.5911 21.79H72.8511V19.21ZM81.2987 34.36C84.9287 34.36 87.3887 32.59 88.1087 29.44H85.4687C84.9887 31.12 83.5487 32.02 81.3587 32.02C78.5687 32.02 76.9487 30.31 76.7387 27.22L88.0787 27.19V26.14C88.0787 21.79 85.3487 18.91 81.1787 18.91C76.9187 18.91 74.0087 22.09 74.0087 26.68C74.0087 31.24 76.9787 34.36 81.2987 34.36ZM81.1787 21.28C83.6687 21.28 85.2587 22.9 85.2587 25.33H76.7987C77.1587 22.75 78.7187 21.28 81.1787 21.28ZM90.2685 26.68C90.2685 31.3 93.1185 34.36 97.4385 34.36C100.978 34.36 103.708 32.23 104.278 29.05H101.458C100.948 30.79 99.4485 31.84 97.4385 31.84C94.7685 31.84 93.0585 29.8 93.0585 26.65C93.0585 23.47 94.8885 21.43 97.5585 21.43C99.4485 21.43 100.948 22.42 101.428 24.28H104.248C103.738 21.01 101.158 18.91 97.4685 18.91C93.1785 18.91 90.2685 22.09 90.2685 26.68ZM108.634 15.85C109.654 15.85 110.494 15.01 110.494 13.99C110.494 12.94 109.654 12.13 108.634 12.13C107.614 12.13 106.774 12.94 106.774 13.99C106.774 15.01 107.614 15.85 108.634 15.85ZM107.254 34H110.074V19.33H107.254V34ZM118.458 34.36C120.828 34.36 122.838 33.31 123.588 31.63L123.888 34H126.288V24.79C126.288 20.83 123.828 18.91 120.198 18.91C116.418 18.91 113.898 20.92 113.898 23.98H116.358C116.358 22.21 117.708 21.16 120.078 21.16C122.058 21.16 123.528 22.03 123.528 24.49V24.91L118.908 25.27C115.458 25.54 113.448 27.22 113.448 29.92C113.448 32.59 115.308 34.36 118.458 34.36ZM119.268 32.17C117.438 32.17 116.298 31.39 116.298 29.83C116.298 28.39 117.318 27.43 119.808 27.19L123.558 26.89V27.67C123.558 30.43 121.938 32.17 119.268 32.17ZM133.073 34V11.92H130.253V34H133.073Z" fill="#BB6A37"/>
</svg>
